<svg id="Group_3557" data-name="Group 3557" xmlns="http://www.w3.org/2000/svg" width="41.017" height="39.176" viewBox="0 0 41.017 39.176">
  <circle id="Ellipse_75" data-name="Ellipse 75" cx="3.697" cy="3.697" r="3.697" transform="translate(15.376 31.93) rotate(-11.476)" fill="#1b68ee"/>
  <path id="Path_6804" data-name="Path 6804" d="M97.751,283.661H94.339a11.153,11.153,0,0,1-.747,2.137h4.159a.149.149,0,0,1,.177.227L94.046,298.8a1.115,1.115,0,0,1-.955.746H74.04a1.115,1.115,0,0,1-.955-.746l-3.661-12.046-.234-.857a.115.115,0,0,1,.015-.053.243.243,0,0,1,.175-.046h4.159a11.155,11.155,0,0,1-.747-2.137H68.579l-1.039-3.8a1.068,1.068,0,0,0-.835-.768L60.326,277.9a1.069,1.069,0,0,0-.391,2.1l5.72,1.066,5.357,18.246a3.241,3.241,0,0,0,3.028,2.364H93.09a3.241,3.241,0,0,0,3.029-2.364L100,286.544a2.26,2.26,0,0,0-2.25-2.883Z" transform="translate(-59.062 -271.991)" fill="#1b68ee"/>
  <path id="Path_6805" data-name="Path 6805" d="M345.113,556.369a3.7,3.7,0,1,0,3.7,3.7A3.7,3.7,0,0,0,345.113,556.369Z" transform="translate(-315.841 -525.249)" fill="#1b68ee"/>
  <path id="Path_6806" data-name="Path 6806" d="M230.589,226.607a9.036,9.036,0,1,0-.958-2.137A9.086,9.086,0,0,0,230.589,226.607Zm14.316-2.137a6.979,6.979,0,0,1-1.322,2.137c-.082.091-.16.184-.247.271a7.062,7.062,0,0,1-9.186.674l3.082-3.081,6.778-6.779A7.074,7.074,0,0,1,244.905,224.47ZM233.356,216.9a7.062,7.062,0,0,1,9.186-.674L234.3,224.47l-1.613,1.613a7.07,7.07,0,0,1,.674-9.186Z" transform="translate(-213.842 -212.8)" fill="#f7941d"/>
</svg>
