<svg xmlns="http://www.w3.org/2000/svg" width="19.228" height="27.24" viewBox="0 0 19.228 27.24">
  <g id="Group_126" data-name="Group 126" transform="translate(-345.076 -541.703)">
    <path id="Path_1" data-name="Path 1" d="M346.454,650.7h.206A32.644,32.644,0,0,1,364.3,633.928l-.345-2.775a1.326,1.326,0,0,0-1.378-1.268H348.723a1.326,1.326,0,0,0-1.378,1.268l-2.269,18.276A1.326,1.326,0,0,0,346.454,650.7Z" transform="translate(0 -81.754)"/>
    <g id="Group_1" data-name="Group 1" transform="translate(350.777 541.703)">
      <path id="Path_2" data-name="Path 2" d="M432.444,551.453a.587.587,0,0,1-.587-.587v-4.288a3.7,3.7,0,1,0-7.4,0v4.288a.587.587,0,0,1-1.174,0v-4.288a4.875,4.875,0,0,1,9.75,0v4.288A.587.587,0,0,1,432.444,551.453Z" transform="translate(-423.282 -541.703)"/>
    </g>
  </g>
</svg>
