<svg xmlns="http://www.w3.org/2000/svg" width="67.984" height="114.652" viewBox="0 0 67.984 114.652">
  <g id="Group_2370" data-name="Group 2370" transform="translate(-86.5 -44.509)">
    <g id="Group_2382" data-name="Group 2382" transform="translate(86.5 44.509)">
      <g id="Group_2381" data-name="Group 2381">
        <g id="Group_2370-2" data-name="Group 2370" transform="translate(33.109 79.776)">
          <path id="Path_6990" data-name="Path 6990" d="M125,144.143l24.832-8.277V160.7L125,168.975Z" transform="translate(-124.117 -134.982)" fill="#fba56e"/>
          <path id="Path_6991" data-name="Path 6991" d="M124.883,169.741a.882.882,0,0,1-.883-.883V144.026a.882.882,0,0,1,.6-.837l24.832-8.277a.882.882,0,0,1,1.162.837v24.832a.88.88,0,0,1-.6.837l-24.832,8.277A.844.844,0,0,1,124.883,169.741Zm.883-25.078v22.971l23.066-7.688V136.974Z" transform="translate(-124 -134.865)" fill="#f9690e"/>
        </g>
        <g id="Group_2371" data-name="Group 2371" transform="translate(8.277 79.776)">
          <path id="Path_6992" data-name="Path 6992" d="M121.707,168.975,96.875,160.7V135.866l24.832,8.277Z" transform="translate(-95.992 -134.982)" fill="#fff"/>
          <path id="Path_6993" data-name="Path 6993" d="M121.59,169.741a.844.844,0,0,1-.279-.046l-24.832-8.277a.88.88,0,0,1-.6-.837V135.749a.881.881,0,0,1,.367-.716.872.872,0,0,1,.795-.121l24.832,8.277a.882.882,0,0,1,.6.837v24.832a.882.882,0,0,1-.883.883Zm-23.949-9.8,23.066,7.688V144.663l-23.066-7.688Z" transform="translate(-95.875 -134.865)" fill="#f9690e"/>
        </g>
        <g id="Group_2372" data-name="Group 2372" transform="translate(0 63.222)">
          <path id="Path_6994" data-name="Path 6994" d="M112.332,117.116,87.5,125.393l8.277,8.277,24.832-8.277Z" transform="translate(-86.617 -116.232)" fill="#fba56e"/>
          <path id="Path_6995" data-name="Path 6995" d="M95.66,134.436a.88.88,0,0,1-.624-.259L86.759,125.9a.883.883,0,0,1,.345-1.462l24.832-8.277a.879.879,0,0,1,.9.214l8.277,8.277a.882.882,0,0,1-.345,1.461L95.939,134.39A.848.848,0,0,1,95.66,134.436Zm-6.643-8.773,6.881,6.881,22.959-7.653-6.881-6.881Z" transform="translate(-86.5 -116.115)" fill="#f9690e"/>
        </g>
        <g id="Group_2373" data-name="Group 2373" transform="translate(33.109 63.223)">
          <path id="Path_6996" data-name="Path 6996" d="M133.277,117.116l24.832,8.277-8.277,8.277L125,125.393Z" transform="translate(-124.117 -116.233)" fill="#fff"/>
          <path id="Path_6997" data-name="Path 6997" d="M149.715,134.436a.848.848,0,0,1-.279-.046L124.6,126.113a.882.882,0,0,1-.345-1.461l8.277-8.277a.885.885,0,0,1,.9-.214l24.832,8.277a.882.882,0,0,1,.345,1.462l-8.277,8.277A.88.88,0,0,1,149.715,134.436Zm-23.2-9.546,22.957,7.653,6.881-6.881L133.4,118.009Z" transform="translate(-124 -116.116)" fill="#f9690e"/>
        </g>
        <g id="Group_2374" data-name="Group 2374" transform="translate(33.109 79.777)">
          <path id="Path_6998" data-name="Path 6998" d="M133.277,152.421l24.832-8.277-8.277-8.277L125,144.143Z" transform="translate(-124.117 -134.983)" fill="#fff"/>
          <path id="Path_6999" data-name="Path 6999" d="M133.16,153.186a.88.88,0,0,1-.624-.259l-8.277-8.277a.882.882,0,0,1,.345-1.461l24.832-8.277a.88.88,0,0,1,.9.213l8.277,8.277a.881.881,0,0,1-.345,1.461l-24.832,8.277A.848.848,0,0,1,133.16,153.186Zm-6.642-8.773,6.881,6.881,22.957-7.653-6.881-6.881Z" transform="translate(-124 -134.866)" fill="#f9690e"/>
        </g>
        <g id="Group_2375" data-name="Group 2375" transform="translate(0 79.777)">
          <path id="Path_7000" data-name="Path 7000" d="M112.332,152.421,87.5,144.143l8.277-8.277,24.832,8.277Z" transform="translate(-86.617 -134.983)" fill="#fff"/>
          <path id="Path_7001" data-name="Path 7001" d="M112.215,153.186a.848.848,0,0,1-.279-.046L87.1,144.863a.882.882,0,0,1-.345-1.461l8.277-8.277a.88.88,0,0,1,.9-.213l24.832,8.277a.883.883,0,0,1,.345,1.461l-8.277,8.277A.88.88,0,0,1,112.215,153.186Zm-23.2-9.546,22.959,7.653,6.881-6.881L95.9,136.76Z" transform="translate(-86.5 -134.866)" fill="#f9690e"/>
        </g>
        <g id="Group_2376" data-name="Group 2376" transform="translate(33.109 88.054)">
          <line id="Line_240" data-name="Line 240" y1="24.832" transform="translate(0.883 0.883)" fill="#fbe1b9"/>
          <path id="Path_7002" data-name="Path 7002" d="M124.883,170.839a.883.883,0,0,1-.883-.883V145.124a.883.883,0,0,1,1.766,0v24.832A.883.883,0,0,1,124.883,170.839Z" transform="translate(-124 -144.241)" fill="#f9690e"/>
        </g>
        <g id="Group_2377" data-name="Group 2377" transform="translate(0.579)">
          <path id="Path_7003" data-name="Path 7003" d="M125.039,55.608a.883.883,0,0,1-.883-.883V45.392a.883.883,0,0,1,1.766,0v9.333A.883.883,0,0,1,125.039,55.608Z" transform="translate(-91.488 -44.509)" fill="#f9690e"/>
          <path id="Path_7004" data-name="Path 7004" d="M125.039,56.227a.883.883,0,0,1-.883-.883V50.677a.883.883,0,0,1,1.766,0v4.667A.883.883,0,0,1,125.039,56.227Z" transform="translate(-91.488 -45.128)" fill="#f9690e"/>
          <path id="Path_7005" data-name="Path 7005" d="M108.873,60.559a.884.884,0,0,1-.765-.441l-2.334-4.042a.883.883,0,1,1,1.529-.883l2.334,4.042a.884.884,0,0,1-.765,1.324Z" transform="translate(-89.322 -45.708)" fill="#1f3a93"/>
          <path id="Path_7006" data-name="Path 7006" d="M96.5,72.085a.881.881,0,0,1-.441-.118L87.977,67.3a.883.883,0,1,1,.883-1.529l8.083,4.666a.883.883,0,0,1-.442,1.648Z" transform="translate(-87.2 -46.985)" fill="#f9690e"/>
          <path id="Path_7007" data-name="Path 7007" d="M97.037,72.394a.878.878,0,0,1-.441-.118l-4.042-2.334a.883.883,0,0,1,.883-1.53l4.042,2.334a.883.883,0,0,1-.442,1.648Z" transform="translate(-87.736 -47.294)" fill="#f9690e"/>
          <path id="Path_7008" data-name="Path 7008" d="M92.706,88.56H88.039a.883.883,0,0,1,0-1.766h4.667a.883.883,0,1,1,0,1.766Z" transform="translate(-87.156 -49.46)" fill="#1f3a93"/>
          <path id="Path_7009" data-name="Path 7009" d="M161.42,88.56h-4.666a.883.883,0,0,1,0-1.766h4.666a.883.883,0,1,1,0,1.766Z" transform="translate(-95.202 -49.46)" fill="#1f3a93"/>
          <path id="Path_7010" data-name="Path 7010" d="M152.506,72.085a.883.883,0,0,1-.442-1.648l8.083-4.666a.883.883,0,1,1,.883,1.529l-8.083,4.667A.876.876,0,0,1,152.506,72.085Z" transform="translate(-94.704 -46.985)" fill="#f9690e"/>
          <path id="Path_7011" data-name="Path 7011" d="M152.506,72.394a.883.883,0,0,1-.442-1.648l4.041-2.334a.883.883,0,0,1,.883,1.53l-4.041,2.334A.876.876,0,0,1,152.506,72.394Z" transform="translate(-94.704 -47.294)" fill="#f9690e"/>
          <path id="Path_7012" data-name="Path 7012" d="M140.9,60.559a.884.884,0,0,1-.765-1.324l2.334-4.042a.883.883,0,1,1,1.529.883l-2.333,4.042A.884.884,0,0,1,140.9,60.559Z" transform="translate(-93.345 -45.708)" fill="#1f3a93"/>
        </g>
        <path id="Path_7013" data-name="Path 7013" d="M119.7,167.189a.882.882,0,0,1-.279-.045l-8.885-2.962a.882.882,0,1,1,.559-1.674l8.884,2.961a.882.882,0,0,1-.279,1.72Z" transform="translate(-89.244 -58.32)" fill="#1f3a93"/>
        <path id="Path_7014" data-name="Path 7014" d="M120.294,163.463a.88.88,0,0,1-.279-.046l-4.443-1.482a.882.882,0,1,1,.559-1.674l4.442,1.481a.883.883,0,0,1-.279,1.721Z" transform="translate(-89.833 -58.057)" fill="#1f3a93"/>
        <path id="Path_7015" data-name="Path 7015" d="M143.978,162.778a.881.881,0,0,1-.883-.883v-4.347a.882.882,0,0,1,.6-.837l4.443-1.481a.882.882,0,0,1,1.162.838v4.346a.882.882,0,0,1-.6.838l-4.442,1.48A.844.844,0,0,1,143.978,162.778Zm.883-4.593v2.485l2.676-.891v-2.485Z" transform="translate(-93.127 -57.468)" fill="#1f3a93"/>
        <g id="Group_2378" data-name="Group 2378" transform="translate(8.277 71.5)">
          <path id="Path_7016" data-name="Path 7016" d="M146.539,134.768l-24.832-8.277-24.832,8.277,24.832,8.277Z" transform="translate(-95.992 -125.608)" fill="#fdc39f"/>
          <path id="Path_7017" data-name="Path 7017" d="M121.59,143.811a.863.863,0,0,1-.279-.046l-24.832-8.277a.882.882,0,0,1,0-1.674l24.832-8.278a.887.887,0,0,1,.558,0l24.832,8.278a.882.882,0,0,1,0,1.674l-24.832,8.277A.863.863,0,0,1,121.59,143.811Zm-22.04-9.16L121.59,142l22.04-7.348L121.59,127.3Z" transform="translate(-95.875 -125.491)" fill="#f9690e"/>
        </g>
        <g id="Group_2379" data-name="Group 2379" transform="translate(16.692 30.113)">
          <path id="Path_7018" data-name="Path 7018" d="M139.515,96.171c0,12.674-16.555,33.109-16.555,33.109s-16.555-20.435-16.555-33.109a16.555,16.555,0,0,1,33.109,0Z" transform="translate(-105.523 -78.733)" fill="#bfc7e0"/>
          <path id="Path_7019" data-name="Path 7019" d="M122.843,130.045a.883.883,0,0,1-.686-.327c-.684-.845-16.751-20.825-16.751-33.665a17.437,17.437,0,0,1,34.875,0c0,12.84-16.067,32.82-16.751,33.665A.883.883,0,0,1,122.843,130.045Zm0-49.664a15.69,15.69,0,0,0-15.672,15.672c0,10.761,12.567,27.668,15.672,31.681,3.105-4.013,15.672-20.92,15.672-31.681A15.69,15.69,0,0,0,122.843,80.382Z" transform="translate(-105.406 -78.616)" fill="#1f3a93"/>
        </g>
        <g id="Group_2380" data-name="Group 2380" transform="translate(24.763 38.391)">
          <circle id="Ellipse_106" data-name="Ellipse 106" cx="8.277" cy="8.277" r="8.277" transform="translate(0.883 0.883)" fill="#fff"/>
          <path id="Path_7020" data-name="Path 7020" d="M123.707,106.311a9.16,9.16,0,1,1,9.16-9.16A9.17,9.17,0,0,1,123.707,106.311Zm0-16.555a7.394,7.394,0,1,0,7.394,7.394A7.4,7.4,0,0,0,123.707,89.757Z" transform="translate(-114.547 -87.991)" fill="#1f3a93"/>
        </g>
      </g>
    </g>
    <g id="Group_2383" data-name="Group 2383" transform="translate(106.414 77.643)">
      <circle id="Ellipse_107" data-name="Ellipse 107" cx="12.419" cy="12.419" r="12.419" transform="translate(0.883 0.883)" fill="#bfc7e0"/>
      <path id="Path_7021" data-name="Path 7021" d="M122.356,108.64a13.3,13.3,0,1,1,13.3-13.3A13.316,13.316,0,0,1,122.356,108.64Zm0-24.837a11.536,11.536,0,1,0,11.536,11.536A11.549,11.549,0,0,0,122.356,83.8Z" transform="translate(-109.055 -82.037)" fill="#bfc7e0"/>
    </g>
    <circle id="Ellipse_108" data-name="Ellipse 108" cx="12.92" cy="12.92" r="12.92" transform="translate(107.754 78.983)" fill="#fff" stroke="#1f3a93" stroke-miterlimit="10" stroke-width="2"/>
    <g id="Group_2384" data-name="Group 2384" transform="translate(117.614 81.527)">
      <path id="Path_7022" data-name="Path 7022" d="M125.079,106.569a2.313,2.313,0,1,1,2.313-2.313A2.315,2.315,0,0,1,125.079,106.569Zm2.014-9.631a2.008,2.008,0,0,1-1.871,1.992h-.216a2.006,2.006,0,0,1-1.871-1.987l-.389-7.215a2.294,2.294,0,0,1,.591-1.716,1.75,1.75,0,0,1,1.28-.575h1a1.748,1.748,0,0,1,1.278.574,2.3,2.3,0,0,1,.592,1.719Z" transform="translate(-121.857 -86.553)" fill="#fff"/>
      <path id="Path_7023" data-name="Path 7023" d="M124.962,107.334a3.2,3.2,0,1,1,3.2-3.2A3.2,3.2,0,0,1,124.962,107.334Zm0-4.626a1.43,1.43,0,1,0,1.43,1.43A1.432,1.432,0,0,0,124.962,102.708ZM125.1,99.7h-.216a2.888,2.888,0,0,1-2.753-2.814l-.388-7.225a3.171,3.171,0,0,1,.829-2.369,2.618,2.618,0,0,1,1.923-.852h1a2.623,2.623,0,0,1,1.923.853,3.18,3.18,0,0,1,.828,2.378l-.388,7.2v.008A2.889,2.889,0,0,1,125.1,99.7ZM124.5,88.2a.861.861,0,0,0-.635.295,1.405,1.405,0,0,0-.355,1.057l.389,7.224a1.142,1.142,0,0,0,.99,1.152h.216a1.149,1.149,0,0,0,.99-1.161l.388-7.2a1.416,1.416,0,0,0-.352-1.067.863.863,0,0,0-.636-.3Zm2.477,8.619h0Z" transform="translate(-121.74 -86.436)" fill="#e50000"/>
    </g>
  </g>
</svg>
