<svg id="Group_2441" data-name="Group 2441" xmlns="http://www.w3.org/2000/svg" width="29.579" height="29.579" viewBox="0 0 29.579 29.579">
  <circle id="Ellipse_85" data-name="Ellipse 85" cx="14.79" cy="14.79" r="14.79" transform="translate(0 0)" fill="#ededed"/>
  <g id="Icon_feather-shopping-cart" data-name="Icon feather-shopping-cart" transform="translate(4.983 7.165)">
    <path id="Path_6782" data-name="Path 6782" d="M13.544,30.772A.772.772,0,1,1,12.772,30,.772.772,0,0,1,13.544,30.772Z" transform="translate(-6.595 -15.33)" fill="none" stroke="#fff" stroke-linecap="round" stroke-linejoin="round" stroke-width="1"/>
    <path id="Path_6783" data-name="Path 6783" d="M30.044,30.772A.772.772,0,1,1,29.272,30,.772.772,0,0,1,30.044,30.772Z" transform="translate(-14.602 -15.33)" fill="none" stroke="#fff" stroke-linecap="round" stroke-linejoin="round" stroke-width="1"/>
    <path id="Path_6784" data-name="Path 6784" d="M1.5,1.5H4.588L6.658,11.839A1.544,1.544,0,0,0,8.2,13.082h7.5a1.544,1.544,0,0,0,1.544-1.243l1.235-6.478H5.361" transform="translate(-1.5 -1.5)" fill="none" stroke="#fff" stroke-linecap="round" stroke-linejoin="round" stroke-width="1"/>
  </g>
</svg>
