<svg xmlns="http://www.w3.org/2000/svg" width="27" height="27" viewBox="0 0 27 27">
  <g id="Group_2407" data-name="Group 2407" transform="translate(175.354 -418)">
    <g id="Group_2399" data-name="Group 2399">
      <g id="Group_2398" data-name="Group 2398">
        <rect id="Rectangle_461" data-name="Rectangle 461" width="27" height="27" rx="7" transform="translate(-175.354 418)" fill="#fff"/>
        <g id="Group_2155" data-name="Group 2155" transform="translate(-170.091 420.922)">
          <path id="Path_6755" data-name="Path 6755" d="M309.321,387h.142a4.33,4.33,0,0,1-1.091,3.262,3.377,3.377,0,0,1-2.972,1.4,4.221,4.221,0,0,1,1.109-3.163A4.8,4.8,0,0,1,309.321,387Zm0,0" transform="translate(-297.194 -387)" fill="#3c3c3c" fill-rule="evenodd"/>
          <path id="Path_6756" data-name="Path 6756" d="M314.472,401.35v.043a11.752,11.752,0,0,1-1.681,3.241c-.641.884-1.43,2.071-2.834,2.071-1.209,0-2.014-.78-3.257-.8-1.318-.021-2.041.654-3.241.823h-.411a3.673,3.673,0,0,1-2.114-1.455A12.786,12.786,0,0,1,298,397.928v-.906a5.92,5.92,0,0,1,2.586-4.86,4.381,4.381,0,0,1,2.929-.681,7.78,7.78,0,0,1,1.438.411,3.9,3.9,0,0,0,1.433.434,3.486,3.486,0,0,0,1.01-.307,6.175,6.175,0,0,1,3.241-.577,4.482,4.482,0,0,1,3.3,1.971,4.242,4.242,0,0,0-2.153,4.2,4.341,4.341,0,0,0,2.686,3.734Zm0,0" transform="translate(-298 -386.521)" fill="#3c3c3c" fill-rule="evenodd"/>
        </g>
      </g>
    </g>
  </g>
</svg>
