<svg id="Group_2155" data-name="Group 2155" xmlns="http://www.w3.org/2000/svg" width="22.038" height="27.032" viewBox="0 0 22.038 27.032">
  <path id="Path_6755" data-name="Path 6755" d="M310.65,387h.19a5.793,5.793,0,0,1-1.46,4.364,4.519,4.519,0,0,1-3.977,1.867A5.647,5.647,0,0,1,306.887,389a6.422,6.422,0,0,1,3.763-2Zm0,0" transform="translate(-294.425 -387)" fill="#fff" fill-rule="evenodd"/>
  <path id="Path_6756" data-name="Path 6756" d="M320.038,404.715v.058a15.722,15.722,0,0,1-2.249,4.336c-.858,1.183-1.913,2.77-3.791,2.77-1.617,0-2.695-1.043-4.358-1.073-1.763-.028-2.73.875-4.336,1.1h-.55a4.914,4.914,0,0,1-2.828-1.947A17.107,17.107,0,0,1,298,400.136v-1.212a7.92,7.92,0,0,1,3.46-6.5,5.862,5.862,0,0,1,3.919-.911,10.411,10.411,0,0,1,1.924.55,5.217,5.217,0,0,0,1.917.58,4.665,4.665,0,0,0,1.352-.411,8.261,8.261,0,0,1,4.336-.772,6,6,0,0,1,4.416,2.637,5.676,5.676,0,0,0-2.88,5.624,5.807,5.807,0,0,0,3.594,5Zm0,0" transform="translate(-298 -384.874)" fill="#fff" fill-rule="evenodd"/>
</svg>
