<svg xmlns="http://www.w3.org/2000/svg" width="17.094" height="20.968" viewBox="0 0 17.094 20.968">
  <g id="Group_2391" data-name="Group 2391" transform="translate(0 0)">
    <path id="Path_6755" data-name="Path 6755" d="M309.469,387h.147a4.493,4.493,0,0,1-1.133,3.385,3.5,3.5,0,0,1-3.085,1.448,4.381,4.381,0,0,1,1.151-3.282,4.981,4.981,0,0,1,2.919-1.55Zm0,0" transform="translate(-296.885 -387)" fill="#fff" fill-rule="evenodd"/>
    <path id="Path_6756" data-name="Path 6756" d="M315.094,401.726v.045a12.2,12.2,0,0,1-1.745,3.363c-.665.917-1.484,2.149-2.941,2.149-1.255,0-2.09-.809-3.38-.832-1.367-.022-2.118.679-3.363.854h-.427a3.812,3.812,0,0,1-2.194-1.51,13.269,13.269,0,0,1-3.044-7.62v-.94a6.143,6.143,0,0,1,2.684-5.043,4.546,4.546,0,0,1,3.04-.707,8.075,8.075,0,0,1,1.493.427,4.047,4.047,0,0,0,1.487.45,3.618,3.618,0,0,0,1.048-.319,6.407,6.407,0,0,1,3.363-.6,4.651,4.651,0,0,1,3.425,2.045,4.4,4.4,0,0,0-2.234,4.362,4.5,4.5,0,0,0,2.788,3.875Zm0,0" transform="translate(-298 -386.337)" fill="#fff" fill-rule="evenodd"/>
  </g>
</svg>
