<svg xmlns="http://www.w3.org/2000/svg" width="19.626" height="24.149" viewBox="0 0 19.626 24.149">
  <g id="Group_3716" data-name="Group 3716" transform="translate(-32.734 -739.83)">
    <g id="Icon_ionic-ios-notifications-outline" data-name="Icon ionic-ios-notifications-outline" transform="translate(26.225 736.15)">
      <path id="Path_208" data-name="Path 208" d="M19.517,28.336a.774.774,0,0,0-.759.609,1.5,1.5,0,0,1-.3.651,1.129,1.129,0,0,1-.962.352,1.148,1.148,0,0,1-.962-.352,1.5,1.5,0,0,1-.3-.651.774.774,0,0,0-.759-.609h0a.779.779,0,0,0-.759.95A2.669,2.669,0,0,0,17.5,31.5a2.664,2.664,0,0,0,2.778-2.216.782.782,0,0,0-.759-.95Z" transform="translate(-1.193 -3.672)" fill="#f7941d"/>
      <path id="Path_209" data-name="Path 209" d="M25.629,21.629c-.92-1.213-2.73-1.923-2.73-7.353,0-5.573-2.461-7.813-4.755-8.351-.215-.054-.37-.125-.37-.352V5.4A1.465,1.465,0,0,0,16.341,3.93h-.036A1.465,1.465,0,0,0,14.871,5.4v.173c0,.221-.155.3-.37.352-2.3.544-4.755,2.778-4.755,8.351,0,5.43-1.81,6.135-2.73,7.353a1.186,1.186,0,0,0,.95,1.9H24.7A1.187,1.187,0,0,0,25.629,21.629Zm-2.33.346H9.37a.262.262,0,0,1-.2-.436,7.237,7.237,0,0,0,1.254-2,13.537,13.537,0,0,0,.854-5.268A9.161,9.161,0,0,1,12.53,9.091a3.833,3.833,0,0,1,2.312-1.649,2.093,2.093,0,0,0,1.111-.627.472.472,0,0,1,.711-.012,2.164,2.164,0,0,0,1.123.639A3.833,3.833,0,0,1,20.1,9.091a9.161,9.161,0,0,1,1.248,5.185,13.537,13.537,0,0,0,.854,5.268,7.319,7.319,0,0,0,1.284,2.025A.247.247,0,0,1,23.3,21.976Z" fill="#0c5eed" stroke="#0c5eed" stroke-width="0.5"/>
    </g>
  </g>
</svg>
