<svg xmlns="http://www.w3.org/2000/svg" width="27.241" height="23.589" viewBox="0 0 27.241 23.589">
  <g id="Group_442" data-name="Group 442" transform="translate(-666.753 377.41)">
    <path id="Path_249" data-name="Path 249" d="M685.436-339.5a8.31,8.31,0,0,0-.011-1.04.782.782,0,0,0-.259-.518c-.11-.069-.375.015-.518.111-.474.318-.906.7-1.39,1a1.058,1.058,0,0,1-.731.114c-.534-.129-1.043-.363-1.575-.5a.8.8,0,0,0-.625.085c-.1.082-.085.39-.033.572.183.649.642,1.326.545,1.918-.1.617-.737,1.142-1.112,1.724-.1.162-.216.447-.144.565a.788.788,0,0,0,.566.284c.551.031,1.11-.041,1.658.006a1.139,1.139,0,0,1,.7.362c.36.417.637.9.979,1.336a.643.643,0,0,0,.471.251.624.624,0,0,0,.377-.373c.2-.533.319-1.1.538-1.62a1.14,1.14,0,0,1,.551-.555c.472-.2.991-.29,1.471-.475a.9.9,0,0,0,.516-.446c.04-.128-.191-.376-.345-.523a2.953,2.953,0,0,0-.651-.466C685.617-338.112,685.158-338.684,685.436-339.5Zm-13.455-2.214a14.029,14.029,0,0,0,2.187-.445,13.326,13.326,0,0,0,2.165-1.135.546.546,0,0,0,.169-.838.617.617,0,0,0-.886-.21c-.125.068-.238.158-.357.235a5.823,5.823,0,0,1-4.8.82,6.557,6.557,0,0,1-2.559-1.4.979.979,0,0,0-.766-.13.643.643,0,0,0-.326.535,1.141,1.141,0,0,0,.373.662A7.622,7.622,0,0,0,671.982-341.716Zm7.23-2.68a4.051,4.051,0,0,0-.142-.7,2.7,2.7,0,0,0-2-1.831,2.681,2.681,0,0,0-2.68.818c-.414.428-.292,1.037.24,1.122a1.077,1.077,0,0,0,.73-.288,1.5,1.5,0,0,1,2.372.357,1.469,1.469,0,0,1-.486,1.937c-.34.285-.466.611-.188.971s.64.308.989.049A2.884,2.884,0,0,0,679.212-344.4Zm-12.459,6.431c.176.167.358.48.563.5a.927.927,0,0,0,.717-.371c.477-.761.878-1.57,1.316-2.356a.636.636,0,0,0-.13-.9.551.551,0,0,0-.852.092c-.448.638-.863,1.3-1.249,1.978A6.344,6.344,0,0,0,666.753-337.964Z" transform="translate(0 -27.126)" fill="#9b9b9b"/>
    <path id="Path_250" data-name="Path 250" d="M712.755-353.821a4.839,4.839,0,0,1-2.3-1.552q-4.3-4.329-8.636-8.632a5.135,5.135,0,0,1-1.554-3.089c-.052-.42.033-.758.495-.865a.622.622,0,0,1,.8.637,4.1,4.1,0,0,0,1.394,2.624q4.454,4.407,8.88,8.843a1.576,1.576,0,0,0,2.62-.019q3.561-3.558,7.121-7.117a1.506,1.506,0,0,0,0-2.486q-4.541-4.547-9.086-9.091a4.045,4.045,0,0,0-2.809-1.239c-1.568-.069-3.133-.243-4.7-.292a3.535,3.535,0,0,0-3.735,3.507c0,.089,0,.178,0,.268,0,.43-.175.735-.64.767-.4.028-.66-.283-.683-.785a4.932,4.932,0,0,1,5.181-5.061c1.747.08,3.492.2,5.235.352a4.4,4.4,0,0,1,2.759,1.287c3.237,3.2,6.476,6.4,9.666,9.647a6.024,6.024,0,0,1,.828,1.693v.321a4.493,4.493,0,0,1-1.612,2.6q-3.083,3.032-6.118,6.113a4.984,4.984,0,0,1-2.346,1.568Z" transform="translate(-29.586 0)" fill="#7b7b7b"/>
    <path id="Path_251" data-name="Path 251" d="M791.657-290.324c-.278.817.181,1.389.974,1.806a2.945,2.945,0,0,1,.651.466c.155.147.386.395.345.523a.9.9,0,0,1-.516.446c-.48.186-1,.274-1.471.475a1.14,1.14,0,0,0-.551.555c-.219.523-.339,1.087-.537,1.62a.624.624,0,0,1-.377.373.643.643,0,0,1-.471-.251c-.342-.433-.62-.92-.979-1.336a1.139,1.139,0,0,0-.7-.362c-.549-.047-1.107.024-1.658-.006a.788.788,0,0,1-.566-.284c-.072-.119.039-.4.144-.565.375-.582,1.011-1.106,1.113-1.724.1-.592-.362-1.27-.545-1.918-.052-.182-.069-.49.034-.572a.8.8,0,0,1,.625-.085c.532.142,1.041.376,1.575.505a1.058,1.058,0,0,0,.731-.114c.484-.3.917-.68,1.39-1,.143-.1.408-.18.518-.111a.782.782,0,0,1,.259.518A8.349,8.349,0,0,1,791.657-290.324Z" transform="translate(-106.22 -76.303)" fill="#0d5eed"/>
    <path id="Path_252" data-name="Path 252" d="M672.391-323.7a7.622,7.622,0,0,1-4.8-1.9,1.141,1.141,0,0,1-.373-.662.643.643,0,0,1,.326-.535.979.979,0,0,1,.766.13,6.557,6.557,0,0,0,2.559,1.4,5.823,5.823,0,0,0,4.8-.82c.12-.078.233-.167.357-.235a.618.618,0,0,1,.886.21.546.546,0,0,1-.169.838,13.324,13.324,0,0,1-2.165,1.135A14.031,14.031,0,0,1,672.391-323.7Z" transform="translate(-0.409 -45.141)" fill="#7b7b7b"/>
    <path id="Path_253" data-name="Path 253" d="M740.509-344.4a2.884,2.884,0,0,1-1.163,2.433c-.349.259-.706.317-.989-.049s-.152-.686.188-.971a1.469,1.469,0,0,0,.486-1.937,1.5,1.5,0,0,0-2.372-.357,1.077,1.077,0,0,1-.73.288c-.532-.085-.654-.695-.24-1.122a2.681,2.681,0,0,1,2.68-.818,2.7,2.7,0,0,1,2,1.831A4.05,4.05,0,0,1,740.509-344.4Z" transform="translate(-61.297 -27.126)" fill="#7b7b7b"/>
    <path id="Path_254" data-name="Path 254" d="M666.753-290.228a6.342,6.342,0,0,1,.365-1.065c.387-.677.8-1.34,1.249-1.978a.551.551,0,0,1,.852-.092.636.636,0,0,1,.13.9c-.438.786-.839,1.594-1.316,2.356a.927.927,0,0,1-.717.371C667.111-289.748,666.929-290.061,666.753-290.228Z" transform="translate(0 -74.862)" fill="#7b7b7b"/>
  </g>
</svg>
