<svg xmlns="http://www.w3.org/2000/svg" xmlns:xlink="http://www.w3.org/1999/xlink" width="13.85" height="13.85" viewBox="0 0 13.85 13.85">
  <defs>
    <clipPath id="clip-path">
      <path id="Path_6809" data-name="Path 6809" d="M2.5,0A2.771,2.771,0,0,0,.572.829,2.422,2.422,0,0,0,.028,2.383C0,5.418,0,8.424,0,11.43a2.435,2.435,0,0,0,2.421,2.416h9.035A2.417,2.417,0,0,0,13.848,11.4V4.885l-.072.071-.04.04,0,0c-.025.025-.6.491-.826.71a2.571,2.571,0,0,0-.624,1.026c-.009.034-.017.068-.017.068a1.371,1.371,0,0,0-.025.189v4.383a.776.776,0,0,1-.816.844c-2.984.029-6,.029-8.98,0a1.039,1.039,0,0,1-.562-.2.866.866,0,0,1-.281-.787V2.608a1.056,1.056,0,0,1,.226-.77A1.079,1.079,0,0,1,2.646,1.6c.792.025,3.313.011,6.784,0a1.675,1.675,0,0,0,.459-.089,1.989,1.989,0,0,0,.935-.745A2.689,2.689,0,0,0,11.23,0Z" transform="translate(0 0.004)" fill="#7b7b7b"/>
    </clipPath>
  </defs>
  <g id="Group_2220" data-name="Group 2220" transform="translate(-121.999 -687)">
    <g id="Group_2218" data-name="Group 2218" transform="translate(122 687.004)">
      <g id="Group_2214" data-name="Group 2214" transform="translate(0 -0.004)">
        <g id="Group_2213" data-name="Group 2213" transform="translate(0 0)" clip-path="url(#clip-path)">
          <rect id="Rectangle_334" data-name="Rectangle 334" width="13.848" height="13.85" transform="translate(0 0)" fill="#7b7b7b"/>
        </g>
      </g>
    </g>
    <g id="Group_2219" data-name="Group 2219" transform="translate(135.845 687.001) rotate(90)">
      <g id="Group_2214-2" data-name="Group 2214" transform="translate(0 -0.004)">
        <g id="Group_2213-2" data-name="Group 2213" transform="translate(0 0)" clip-path="url(#clip-path)">
          <rect id="Rectangle_334-2" data-name="Rectangle 334" width="13.848" height="13.85" transform="translate(0 0)" fill="#7b7b7b"/>
        </g>
      </g>
    </g>
  </g>
</svg>
