<svg xmlns="http://www.w3.org/2000/svg" width="25.122" height="25.128" viewBox="0 0 25.122 25.128">
  <g id="Group_428" data-name="Group 428" transform="translate(-370.866 -196.809)">
    <path id="Path_243" data-name="Path 243" d="M376.239,207.577c-.9,0-1.794,0-2.691,0a2.671,2.671,0,0,1-2.673-2.672q-.008-2.706,0-5.411a2.671,2.671,0,0,1,2.666-2.679q2.719-.009,5.438,0a2.666,2.666,0,0,1,2.656,2.659q.01,2.72,0,5.439a2.665,2.665,0,0,1-2.678,2.665C378.052,207.581,377.145,207.577,376.239,207.577Zm3.606-5.383c0-.86,0-1.72,0-2.579a.92.92,0,0,0-1.011-1.008q-2.579,0-5.158,0a.911.911,0,0,0-1.006,1.007q0,2.565,0,5.131a.928.928,0,0,0,1.036,1.039q2.551,0,5.1,0a.928.928,0,0,0,1.038-1.039Q379.847,203.47,379.845,202.194Z" transform="translate(-0.005)"/>
    <path id="Path_244" data-name="Path 244" d="M632.289,207.583c-.9,0-1.794,0-2.691,0a2.671,2.671,0,0,1-2.668-2.677q-.008-2.705,0-5.411a2.672,2.672,0,0,1,2.669-2.675q2.7-.008,5.41,0a2.667,2.667,0,0,1,2.682,2.69q.007,2.691,0,5.383a2.673,2.673,0,0,1-2.683,2.691C634.1,207.586,633.2,207.583,632.289,207.583Zm3.611-5.374c0-.86,0-1.72,0-2.579a.928.928,0,0,0-1-1.018q-2.593,0-5.185,0a.914.914,0,0,0-.988,1q0,2.593,0,5.187a.925.925,0,0,0,1,.991q2.579,0,5.157,0a.924.924,0,0,0,1.018-1.03C635.9,203.909,635.9,203.059,635.9,202.209Z" transform="translate(-241.706 -0.006)"/>
    <path id="Path_245" data-name="Path 245" d="M381.632,458.324c0,.9,0,1.794,0,2.691a2.673,2.673,0,0,1-2.675,2.67q-2.7.008-5.41,0a2.669,2.669,0,0,1-2.676-2.669q-.008-2.719,0-5.439a2.671,2.671,0,0,1,2.661-2.655q2.719-.009,5.438,0a2.668,2.668,0,0,1,2.661,2.654C381.637,456.493,381.632,457.409,381.632,458.324Zm-1.792.008q0-1.29,0-2.579a.938.938,0,0,0-1.04-1.039q-2.551,0-5.1,0a.926.926,0,0,0-1.037,1.038q0,2.551,0,5.1a.937.937,0,0,0,1.039,1.039q2.551,0,5.1,0a.928.928,0,0,0,1.038-1.039Q379.842,459.594,379.84,458.332Z" transform="translate(0 -241.753)"/>
    <path id="Path_246" data-name="Path 246" d="M626.948,458.291c0-.9,0-1.794,0-2.692a2.667,2.667,0,0,1,2.671-2.671q2.705-.008,5.41,0a2.666,2.666,0,0,1,2.68,2.693q.007,2.692,0,5.383a2.671,2.671,0,0,1-2.686,2.687q-2.691.007-5.382,0a2.671,2.671,0,0,1-2.693-2.709C626.946,460.085,626.948,459.188,626.948,458.291Zm1.792-.01q0,1.29,0,2.579a.93.93,0,0,0,1.039,1.036q2.551,0,5.1,0a.92.92,0,0,0,1.035-1.037q0-2.551,0-5.1a.93.93,0,0,0-1.038-1.037q-2.551,0-5.1,0a.926.926,0,0,0-1.036,1.038Q628.739,457.02,628.741,458.281Z" transform="translate(-241.726 -241.758)"/>
  </g>
</svg>
