<svg xmlns="http://www.w3.org/2000/svg" width="26" height="25" viewBox="0 0 26 25">
  <g id="Group_2185" data-name="Group 2185" transform="translate(6571 -190)">
    <g id="Rectangle_318" data-name="Rectangle 318" transform="translate(-6571 190)" fill="#fff" stroke="#000" stroke-width="1.2">
      <rect width="11" height="11" rx="3" stroke="none"/>
      <rect x="0.6" y="0.6" width="9.8" height="9.8" rx="2.4" fill="none"/>
    </g>
    <g id="Rectangle_314" data-name="Rectangle 314" transform="translate(-6571 204)" fill="#fff" stroke="#000" stroke-width="1.2">
      <rect width="11" height="11" rx="3" stroke="none"/>
      <rect x="0.6" y="0.6" width="9.8" height="9.8" rx="2.4" fill="none"/>
    </g>
    <g id="Rectangle_319" data-name="Rectangle 319" transform="translate(-6556 190)" fill="#fff" stroke="#000" stroke-width="1.2">
      <rect width="11" height="11" rx="3" stroke="none"/>
      <rect x="0.6" y="0.6" width="9.8" height="9.8" rx="2.4" fill="none"/>
    </g>
    <g id="Rectangle_315" data-name="Rectangle 315" transform="translate(-6556 204)" fill="#fff" stroke="#000" stroke-width="1.2">
      <rect width="11" height="11" rx="3" stroke="none"/>
      <rect x="0.6" y="0.6" width="9.8" height="9.8" rx="2.4" fill="none"/>
    </g>
    <rect id="Rectangle_316" data-name="Rectangle 316" width="7" height="7" rx="2" transform="translate(-6554 206)" fill="#0c5eed"/>
    <rect id="Rectangle_320" data-name="Rectangle 320" width="7" height="7" rx="2" transform="translate(-6554 192)" fill="#0c5eed"/>
    <rect id="Rectangle_321" data-name="Rectangle 321" width="7" height="7" rx="2" transform="translate(-6569 192)" fill="#0c5eed"/>
    <rect id="Rectangle_317" data-name="Rectangle 317" width="7" height="7" rx="2" transform="translate(-6569 206)" fill="#0c5eed"/>
  </g>
</svg>
