<svg xmlns="http://www.w3.org/2000/svg" width="23.25" height="23.25" viewBox="0 0 23.25 23.25">
  <g id="Icon_ionic-ios-close-circle-outline" data-name="Icon ionic-ios-close-circle-outline" transform="translate(-3.375 -3.375)">
    <path id="Path_222" data-name="Path 222" d="M21.051,19.787l-2.945-2.945L21.051,13.9a.893.893,0,0,0-1.263-1.263l-2.945,2.945L13.9,12.633A.893.893,0,1,0,12.634,13.9l2.945,2.945-2.945,2.945a.864.864,0,0,0,0,1.263.887.887,0,0,0,1.263,0l2.945-2.945,2.945,2.945a.9.9,0,0,0,1.263,0A.887.887,0,0,0,21.051,19.787Z" transform="translate(-1.843 -1.842)"/>
    <path id="Path_223" data-name="Path 223" d="M15,4.94A10.056,10.056,0,1,1,7.885,7.885,9.994,9.994,0,0,1,15,4.94m0-1.565A11.625,11.625,0,1,0,26.625,15,11.623,11.623,0,0,0,15,3.375Z"/>
  </g>
</svg>
