<svg xmlns="http://www.w3.org/2000/svg" width="26.085" height="19.564" viewBox="0 0 26.085 19.564">
  <g id="Group_3713" data-name="Group 3713" transform="translate(-28.199 -620.058)">
    <g id="Group_3702" data-name="Group 3702">
      <rect id="Rectangle_742" data-name="Rectangle 742" width="3" height="5" transform="translate(47 621)" fill="#f7941d"/>
      <rect id="Rectangle_741" data-name="Rectangle 741" width="3" height="5" transform="translate(32 621)" fill="#f7941d"/>
      <path id="Icon_metro-profile" data-name="Icon metro-profile" d="M28.721,10.507H26.9V7.77l-3.766-.058.02,2.795H11.835l.077-2.795L8.225,7.77v2.795l-1.863-.058A1.864,1.864,0,0,0,4.5,12.37V25.413a1.864,1.864,0,0,0,1.863,1.863H28.721a1.864,1.864,0,0,0,1.863-1.863V12.37A1.864,1.864,0,0,0,28.721,10.507ZM24.063,8.644h1.863V12.37H24.063ZM11.952,14.99c1.125,0,2.038,1.2,2.038,2.678s-.913,2.678-2.038,2.678-2.038-1.2-2.038-2.678.913-2.678,2.038-2.678ZM9.157,8.644H11.02V12.37H9.157ZM7.915,23.5s.221-1.772.723-2.106a7.145,7.145,0,0,1,1.947-.557s.937,1,1.336,1,1.335-1,1.335-1a7.123,7.123,0,0,1,1.948.557c.59.393.737,2.106.737,2.106H7.915Zm18.943-.883H18.473v-.932h8.385Zm0-1.863H18.473v-.932h8.385Zm0-1.863H18.473V17.96h8.385Zm0-1.863H18.473V16.1h8.385Z" transform="translate(23.701 612.346)" fill="#0c5eed"/>
    </g>
  </g>
</svg>
