<svg id="Group_108" data-name="Group 108" xmlns="http://www.w3.org/2000/svg" width="22.288" height="17.458" viewBox="0 0 22.288 17.458">
  <path id="Path_10" data-name="Path 10" d="M513.288,235.857v9.1a1.859,1.859,0,0,1-1.857,1.857H500.472a.371.371,0,0,1,0-.743H511.43a1.116,1.116,0,0,0,1.114-1.115v-9.1a1.116,1.116,0,0,0-1.114-1.115H492.857a1.116,1.116,0,0,0-1.114,1.115v9.1a1.116,1.116,0,0,0,1.114,1.115h2.322a.371.371,0,0,1,0,.743h-2.322A1.859,1.859,0,0,1,491,244.958v-9.1A1.859,1.859,0,0,1,492.857,234H511.43a1.859,1.859,0,0,1,1.857,1.857Zm-15.508,3.761v-3.2a.372.372,0,0,0-.743,0v3.2a.372.372,0,1,0,.743,0Zm9.978-1.031-3.637,3.637a.371.371,0,0,0,.525.525l3.637-3.637a.371.371,0,0,0-.525-.525Zm.384,3.043a.735.735,0,1,1-.735.735.736.736,0,0,1,.735-.735Zm-.008.735c0,.008.015.009.015,0s-.015-.009-.015,0Zm-2.894-3.637a.735.735,0,1,1-.735-.735.736.736,0,0,1,.735.735Zm-.735-.008a.008.008,0,0,0,0,.015.008.008,0,0,0,0-.015Zm-7.218,11.3a1.974,1.974,0,1,1-.174-1.5l.1-.247-.447-1.159a4.079,4.079,0,0,1,0-2.937l2.314-6.022a.372.372,0,0,1,.609-.129,3.916,3.916,0,0,1,.841,4.31Zm.346-2.728,2.215-5.242a3.174,3.174,0,0,0-.3-3.034l-2.087,5.431a3.6,3.6,0,0,0,.172,2.845Zm-1.014,2.19a1.231,1.231,0,1,0-1.23,1.231,1.232,1.232,0,0,0,1.23-1.231Zm5.665,0a1.973,1.973,0,1,1-1.973-1.973,1.975,1.975,0,0,1,1.973,1.973Zm-.743,0a1.231,1.231,0,1,0-1.231,1.231,1.232,1.232,0,0,0,1.231-1.231Zm0,0" transform="translate(-491 -234)" fill="#0c5eed"/>
</svg>
