<svg xmlns="http://www.w3.org/2000/svg" width="20.28" height="18.089" viewBox="0 0 20.28 18.089">
  <path id="Icon_awesome-edit" data-name="Icon awesome-edit" d="M13.759,2.847l3.083,3.083a.334.334,0,0,1,0,.472L9.377,13.865l-3.171.352a.665.665,0,0,1-.735-.735l.352-3.171,7.464-7.464A.334.334,0,0,1,13.759,2.847Zm5.536-.783L17.627.4a1.337,1.337,0,0,0-1.886,0l-1.21,1.21a.334.334,0,0,0,0,.472l3.083,3.083a.334.334,0,0,0,.472,0l1.21-1.21a1.337,1.337,0,0,0,0-1.886Zm-6.172,9.77v3.479H2.187V4.378H10.04a.42.42,0,0,0,.29-.12L11.7,2.891a.41.41,0,0,0-.29-.7H1.64A1.641,1.641,0,0,0,0,3.831V15.861A1.641,1.641,0,0,0,1.64,17.5H13.67a1.641,1.641,0,0,0,1.64-1.64V10.468a.411.411,0,0,0-.7-.29l-1.367,1.367A.42.42,0,0,0,13.123,11.835Z" transform="translate(0.25 0.338)" fill="#0c5eed" stroke="#efefef" stroke-width="0.5"/>
</svg>
