<svg xmlns="http://www.w3.org/2000/svg" width="25.398" height="20.319" viewBox="0 0 25.398 20.319">
  <g id="Group_3704" data-name="Group 3704" transform="translate(-34 -467)">
    <path id="Icon_material-mail-outline" data-name="Icon material-mail-outline" d="M25.858,6H5.54A2.536,2.536,0,0,0,3.013,8.54L3,23.779a2.547,2.547,0,0,0,2.54,2.54H25.858a2.547,2.547,0,0,0,2.54-2.54V8.54A2.547,2.547,0,0,0,25.858,6Zm0,17.779H5.54V11.08L15.7,17.429l10.159-6.35ZM15.7,14.889,5.54,8.54H25.858Z" transform="translate(31 461)" fill="#0c5eed"/>
    <line id="Line_305" data-name="Line 305" x2="18" transform="translate(37.5 482.5)" fill="none" stroke="#f7941d" stroke-width="1"/>
    <line id="Line_306" data-name="Line 306" x2="5" transform="translate(37.5 479.5)" fill="none" stroke="#f7941d" stroke-width="1"/>
  </g>
</svg>
