<svg xmlns="http://www.w3.org/2000/svg" width="27" height="27" viewBox="0 0 27 27">
  <g id="Group_2409" data-name="Group 2409" transform="translate(266 -418)">
    <g id="Group_2404" data-name="Group 2404" transform="translate(0.354)">
      <g id="Group_2401" data-name="Group 2401">
        <g id="Group_2397" data-name="Group 2397" transform="translate(-264.427 417.686)">
          <rect id="Rectangle_462" data-name="Rectangle 462" width="27" height="27" rx="7" transform="translate(-1.928 0.314)" fill="#fff"/>
        </g>
      </g>
    </g>
    <path id="Path_6761" data-name="Path 6761" d="M37.044-35.409h2.484a.414.414,0,0,0,.414-.414v-2.484a.414.414,0,0,0-.414-.414H37.044a4.559,4.559,0,0,0-4.554,4.554v2.9h-2.9a.414.414,0,0,0-.414.414v2.484a.414.414,0,0,0,.414.414h2.9v8.693a.414.414,0,0,0,.414.414h2.484a.414.414,0,0,0,.414-.414v-8.693h2.9a.414.414,0,0,0,.392-.283l.828-2.484a.414.414,0,0,0-.262-.524.414.414,0,0,0-.131-.021H35.8v-2.9A1.242,1.242,0,0,1,37.044-35.409Z" transform="translate(-287.578 460.24)" fill="#4d81de"/>
  </g>
</svg>
