<svg xmlns="http://www.w3.org/2000/svg" width="23" height="23" viewBox="0 0 23 23">
  <g id="Group_2153" data-name="Group 2153" transform="translate(-308 -268)">
    <g id="Ellipse_90" data-name="Ellipse 90" transform="translate(308 268)" fill="#fff" stroke="#0c5eed" stroke-width="1">
      <circle cx="11.5" cy="11.5" r="11.5" stroke="none"/>
      <circle cx="11.5" cy="11.5" r="11" fill="none"/>
    </g>
    <g id="Group_2152" data-name="Group 2152" transform="translate(47.76 78.259)">
      <path id="Path_6747" data-name="Path 6747" d="M489.316,207.364c-.525,0-.73-.37-.495-.747.438-.7.9-1.389,1.348-2.08l6.155-9.416c.032-.049.059-.1.094-.15a.481.481,0,1,1,.8.527c-.3.484-.618.959-.93,1.437q-2.972,4.547-5.945,9.092c-.247.378-.491.759-.756,1.125A.977.977,0,0,1,489.316,207.364Z" transform="translate(-221.07)" fill="#0c5eed"/>
      <path id="Path_6748" data-name="Path 6748" d="M575.7,314.68a2.575,2.575,0,0,1-5.15.027,2.575,2.575,0,1,1,5.15-.027Zm-4.21-.021a1.606,1.606,0,0,0,1.705,1.622,1.573,1.573,0,0,0,1.559-1.609,1.63,1.63,0,0,0-1.606-1.638A1.662,1.662,0,0,0,571.494,314.658Z" transform="translate(-298.051 -110.384)" fill="#0c5eed"/>
      <path id="Path_6749" data-name="Path 6749" d="M464.853,206.154a2.577,2.577,0,1,1,2.508,2.6A2.55,2.55,0,0,1,464.853,206.154Zm.958.028a1.608,1.608,0,0,0,1.638,1.617,1.625,1.625,0,1,0-.045-3.25A1.611,1.611,0,0,0,465.811,206.182Z" transform="translate(-198.613 -8.33)" fill="#0c5eed"/>
      <path id="Path_6750" data-name="Path 6750" d="M586.433,329.869a1.662,1.662,0,0,1,1.658-1.624,1.63,1.63,0,0,1,1.606,1.638,1.573,1.573,0,0,1-1.559,1.609A1.606,1.606,0,0,1,586.433,329.869Z" transform="translate(-312.99 -125.595)" fill="#fff"/>
      <path id="Path_6751" data-name="Path 6751" d="M481.024,221.339a1.611,1.611,0,0,1,1.593-1.633,1.625,1.625,0,1,1,.045,3.25A1.607,1.607,0,0,1,481.024,221.339Z" transform="translate(-213.826 -23.487)" fill="#fff"/>
    </g>
  </g>
</svg>
