<svg xmlns="http://www.w3.org/2000/svg" width="38.567" height="18.561" viewBox="0 0 38.567 18.561">
  <g id="Group_2144" data-name="Group 2144" transform="translate(-1528.758 -237.136)">
    <path id="Path_6740" data-name="Path 6740" d="M1537.135,239.679c0-.679.015-1.288-.005-1.9-.015-.446.138-.648.613-.647q9.269.013,18.538,0c.462,0,.633.172.629.631q-.032,4.124-.034,8.249c0,1.78.02,3.561.027,5.341,0,.614-.063.677-.67.677-3.141,0-6.281,0-9.422.007a.675.675,0,0,1-.649-.346,2.816,2.816,0,0,0-4.721-.023.718.718,0,0,1-.694.37c-1-.021-2-.019-3,0-.432.007-.618-.152-.612-.594.014-1.169,0-2.339,0-3.595h.549q2.488,0,4.976,0c.6,0,.909-.258.885-.714-.024-.439-.408-.66-.957-.659-1.181,0-2.362-.049-3.543-.058-.488,0-.977.074-1.465.068-1.281-.014-2.561-.075-3.842-.076-1.321,0-2.641.05-3.962.076a2.289,2.289,0,0,1-.406-.012.635.635,0,0,1-.611-.684.61.61,0,0,1,.637-.657c1.235,0,2.471.055,3.707.054,2.061,0,4.122-.037,6.183-.053.933-.007,1.866,0,2.8,0,.589,0,1.179.005,1.766-.033a.606.606,0,0,0,.574-.664.642.642,0,0,0-.582-.665,1.662,1.662,0,0,0-.254-.01c-2.07-.017-4.14-.047-6.21-.048-1.948,0-3.9.031-5.844.046a2.131,2.131,0,0,1-.506-.025.625.625,0,0,1-.532-.7.6.6,0,0,1,.565-.612,4.114,4.114,0,0,1,.559-.021h12.732a3.352,3.352,0,0,0,.609-.028.623.623,0,0,0,.556-.68.641.641,0,0,0-.586-.66,2.682,2.682,0,0,0-.457-.01h-11.357a3.9,3.9,0,0,1-.458-.005.628.628,0,0,1-.632-.71.6.6,0,0,1,.657-.624c1.256-.007,2.512,0,3.769,0Z" transform="translate(0 0)" fill="#0c5eed"/>
    <path id="Path_6741" data-name="Path 6741" d="M1824.867,286.164c0,.713-.013,1.426,0,2.138.01.427-.14.625-.591.608-.61-.023-1.223.013-1.832-.018a.7.7,0,0,1-.469-.266,2.844,2.844,0,0,0-4.852.007c-.358.53-.866.241-1.293.237-.389,0-.316-.415-.316-.691q-.006-4.624,0-9.248c0-.657.078-.733.728-.734,1.1,0,2.206.014,3.309-.009a.931.931,0,0,1,.789.348c1.45,1.662,2.911,3.315,4.352,4.983a.941.941,0,0,1,.166.556C1824.879,284.772,1824.867,285.468,1824.867,286.164Zm-8.1-2.276h6.641c-1.3-1.481-2.52-2.881-3.749-4.277a.477.477,0,0,0-.282-.18c-.856-.014-1.713-.008-2.61-.008Z" transform="translate(-257.547 -36.871)" fill="#0c5eed"/>
    <path id="Path_6742" data-name="Path 6742" d="M1833.584,376.348a2.439,2.439,0,1,1,2.442-2.419A2.45,2.45,0,0,1,1833.584,376.348Zm.793-2.458a.789.789,0,1,0-.751.812A.829.829,0,0,0,1834.377,373.89Z" transform="translate(-271.586 -120.651)" fill="#0c5eed"/>
    <path id="Path_6743" data-name="Path 6743" d="M1657.289,373.917a2.407,2.407,0,0,1-2.416,2.429,2.439,2.439,0,1,1,2.416-2.429Zm-2.405.783a.794.794,0,0,0,.758-.79.783.783,0,0,0-.819-.775.768.768,0,0,0-.728.809A.791.791,0,0,0,1654.884,374.7Z" transform="translate(-111.071 -120.65)" fill="#0c5eed"/>
    <path id="Path_6744" data-name="Path 6744" d="M1725.655,391.782v.949h-10.163v-.949Z" transform="translate(-167.714 -138.894)" fill="#0c5eed"/>
  </g>
</svg>
