<svg xmlns="http://www.w3.org/2000/svg" width="59.043" height="37.072" viewBox="0 0 59.043 37.072">
  <g id="Group_3594" data-name="Group 3594" transform="translate(-74.461 -763.928)">
    <g id="Group_3584" data-name="Group 3584" transform="translate(100.862 763.928)">
      <rect id="Rectangle_664" data-name="Rectangle 664" width="31.177" height="6.169" rx="2.503" transform="translate(1.465 10.286)" fill="#ffa840"/>
      <path id="Rectangle_665" data-name="Rectangle 665" d="M0,0H27.492a0,0,0,0,1,0,0V14.071a2.116,2.116,0,0,1-2.116,2.116H2.116A2.116,2.116,0,0,1,0,14.071V0A0,0,0,0,1,0,0Z" transform="translate(3.307 16.455)" fill="#ffa840"/>
      <path id="Path_7038" data-name="Path 7038" d="M325.567,362.674H298.373a.894.894,0,1,1,0-1.788h27.194a.894.894,0,1,1,0,1.788Z" transform="translate(-295.066 -345.326)" fill="#feb523"/>
      <path id="Path_7039" data-name="Path 7039" d="M396.515,380.426H383.521a.894.894,0,0,1,0-1.789h12.2V364.131a.894.894,0,1,1,1.789,0v15.3A1,1,0,0,1,396.515,380.426Z" transform="translate(-366.113 -347.287)" fill="#feb523"/>
      <g id="Group_3582" data-name="Group 3582" transform="translate(0 0)">
        <path id="Path_7040" data-name="Path 7040" d="M333.141,293.9a11.235,11.235,0,0,1-4.707-.774c-2.1-1.135-3.154-3.1-2.41-4.474a2.544,2.544,0,0,1,2.363-1.164,5.82,5.82,0,0,1,2.7.738c1.935,1.048,3.985,4.766,4.071,4.923a.471.471,0,0,1-.377.7C334.753,293.844,334.077,293.9,333.141,293.9Zm-4.754-5.469a1.656,1.656,0,0,0-1.535.671c-.476.879.454,2.343,2.031,3.2a10.055,10.055,0,0,0,4.258.66c.3,0,.575-.005.806-.013-.662-1.09-2.064-3.215-3.309-3.889A4.869,4.869,0,0,0,328.387,288.426Z" transform="translate(-318.686 -284.08)" fill="#0c5eed"/>
        <path id="Path_7041" data-name="Path 7041" d="M379.114,293.9h0c-.936,0-1.612-.052-1.641-.054a.471.471,0,0,1-.377-.7c.086-.158,2.135-3.875,4.071-4.923a5.821,5.821,0,0,1,2.7-.738,2.544,2.544,0,0,1,2.363,1.164c.744,1.374-.315,3.339-2.41,4.474A11.233,11.233,0,0,1,379.114,293.9Zm-.807-.955c.232.007.506.013.806.013a10.052,10.052,0,0,0,4.258-.66c1.577-.854,2.507-2.318,2.031-3.2a1.656,1.656,0,0,0-1.535-.67,4.869,4.869,0,0,0-2.252.625C380.371,289.725,378.969,291.85,378.307,292.94Z" transform="translate(-361.45 -284.08)" fill="#0c5eed"/>
        <path id="Path_7042" data-name="Path 7042" d="M365.848,276.69a.471.471,0,0,1-.387-.2c-.1-.141-2.4-3.489-2.4-5.561,0-2.243,1.224-4,2.786-4s2.786,1.757,2.786,4c0,2.072-2.3,5.419-2.4,5.561A.472.472,0,0,1,365.848,276.69Zm0-8.821c-1,0-1.844,1.4-1.844,3.057,0,1.226,1.112,3.264,1.844,4.433.732-1.169,1.844-3.207,1.844-4.433C367.691,269.269,366.847,267.869,365.848,267.869Z" transform="translate(-349.788 -266.927)" fill="#0c5eed"/>
        <path id="Path_7043" data-name="Path 7043" d="M314.143,327.3H283.8a.887.887,0,0,1-.886-.886v-5.339a.887.887,0,0,1,.886-.886h30.348a.887.887,0,0,1,.886.886v5.339A.887.887,0,0,1,314.143,327.3Zm-30.291-.942h30.235v-5.227H283.852Z" transform="translate(-282.91 -311.372)" fill="#0c5eed"/>
        <path id="Path_7044" data-name="Path 7044" d="M321.648,374.571H294.856a.822.822,0,0,1-.821-.822V357.912a.471.471,0,0,1,.471-.471H322a.471.471,0,0,1,.471.471v15.837A.823.823,0,0,1,321.648,374.571Zm-26.671-.942h26.55V358.383h-26.55Z" transform="translate(-292.193 -342.451)" fill="#0c5eed"/>
        <path id="Path_7045" data-name="Path 7045" d="M377.51,343.491a.471.471,0,0,1-.471-.471V320.664a.471.471,0,0,1,.942,0V343.02A.471.471,0,0,1,377.51,343.491Z" transform="translate(-361.451 -311.372)" fill="#0c5eed"/>
      </g>
      <g id="Group_3583" data-name="Group 3583" transform="translate(4.901 24.472)">
        <path id="Path_7046" data-name="Path 7046" d="M315.75,419.939h-1.192a.472.472,0,0,0-.3,0h-1.186l-.043,0a1,1,0,0,1-.528-.718v-1.192a.472.472,0,0,0,0-.3v-1.192a.472.472,0,0,0,0-.3v-1.068a.471.471,0,1,1,.942,0v1.068a.472.472,0,0,0,0,.3v1.192a.472.472,0,0,0,0,.3V419h.814a.472.472,0,0,0,.3,0h1.192a.471.471,0,0,1,0,.942Z" transform="translate(-312.503 -414.7)" fill="#fff"/>
        <path id="Path_7047" data-name="Path 7047" d="M338.092,441.59h-.558a.471.471,0,0,1,0-.942h.558a.471.471,0,0,1,0,.942Z" transform="translate(-332.996 -436.351)" fill="#fff"/>
      </g>
      <path id="Path_7048" data-name="Path 7048" d="M308.4,339.978h-.019a.474.474,0,0,0-.3,0h-.3a.471.471,0,1,1,0-.942h.3a.475.475,0,0,0,.3,0h.019a.471.471,0,1,1,0,.942Zm-2.6,0h-.3a.474.474,0,0,0-.3,0h-1.987a.471.471,0,1,1,0-.942H305.2a.475.475,0,0,0,.3,0h.3a.471.471,0,1,1,0,.942Z" transform="translate(-299.461 -327.094)" fill="#fff"/>
    </g>
    <g id="Group_3587" data-name="Group 3587" transform="translate(74.461 765.141)">
      <ellipse id="Ellipse_136" data-name="Ellipse 136" cx="1.613" cy="1.613" rx="1.613" ry="1.613" transform="translate(22.602 9.335)" fill="#0c5eed"/>
      <g id="Group_3585" data-name="Group 3585" transform="translate(8.499 0)">
        <path id="Path_7051" data-name="Path 7051" d="M224.035,92.874l-.6-2.413-2.413-.6a.1.1,0,0,1,0-.188l2.413-.6.6-2.413a.1.1,0,0,1,.188,0l.6,2.413,2.413.6a.1.1,0,0,1,0,.188l-2.413.6-.6,2.413A.1.1,0,0,1,224.035,92.874Z" transform="translate(-219.641 -85.438)" fill="#0c5eed"/>
        <path id="Path_7052" data-name="Path 7052" d="M217.077,87.153a.326.326,0,0,1-.316-.247l-.556-2.223-2.223-.556a.423.423,0,0,1,0-.821l2.223-.556.556-2.223a.422.422,0,0,1,.41-.32h0a.422.422,0,0,1,.41.32l.556,2.223,2.223.556a.326.326,0,1,1-.158.633l-2.413-.6a.326.326,0,0,1-.237-.237l-.381-1.523L216.79,83.1a.326.326,0,0,1-.237.237l-1.523.381,1.523.381a.327.327,0,0,1,.237.237l.6,2.413a.327.327,0,0,1-.317.405Z" transform="translate(-213.661 -80.206)" fill="#c3d9ff"/>
      </g>
      <ellipse id="Ellipse_137" data-name="Ellipse 137" cx="1.775" cy="1.775" rx="1.775" ry="1.775" transform="matrix(0.383, -0.924, 0.924, 0.383, 9.652, 26.923)" fill="#ffa840"/>
      <path id="Path_7053" data-name="Path 7053" d="M297.656,208.277a.819.819,0,1,1,.819-.819A.82.82,0,0,1,297.656,208.277Zm0-.986a.167.167,0,1,0,.167.167A.167.167,0,0,0,297.656,207.291Z" transform="translate(-273.441 -183.994)" fill="#0c5eed"/>
      <path id="Path_7054" data-name="Path 7054" d="M370.164,101.421a.819.819,0,1,1,.819-.819A.82.82,0,0,1,370.164,101.421Zm0-.986a.167.167,0,1,0,.167.167A.167.167,0,0,0,370.164,100.435Z" transform="translate(-332.962 -96.277)" fill="#ffa840"/>
      <path id="Path_7055" data-name="Path 7055" d="M181.511,174.67a.739.739,0,1,0-.739.739A.739.739,0,0,0,181.511,174.67Z" transform="translate(-177.557 -157.144)" fill="#feb523"/>
      <path id="Path_7056" data-name="Path 7056" d="M167.031,272.909a.819.819,0,1,1,.819-.819A.82.82,0,0,1,167.031,272.909Zm0-.986a.167.167,0,1,0,.167.167A.167.167,0,0,0,167.031,271.924Z" transform="translate(-166.212 -237.05)" fill="#0c5eed"/>
    </g>
    <g id="Group_3588" data-name="Group 3588" transform="translate(130.441 767)">
      <path id="Path_7058" data-name="Path 7058" d="M1.531,0A1.531,1.531,0,1,1,0,1.531,1.531,1.531,0,0,1,1.531,0Z" transform="translate(0 0.01)" fill="#0c5eed"/>
      <path id="Path_7057" data-name="Path 7057" d="M362.679,180.467a.192.192,0,0,1-.136-.328,1.047,1.047,0,1,0-1.48,0,.192.192,0,1,1-.272.272,1.431,1.431,0,1,1,2.024,0A.192.192,0,0,1,362.679,180.467Z" transform="translate(-360.271 -177.967)" fill="#c3d9ff"/>
    </g>
  </g>
</svg>
