<svg xmlns="http://www.w3.org/2000/svg" width="41.66" height="42.294" viewBox="0 0 41.66 42.294">
  <g id="Group_3584" data-name="Group 3584" transform="translate(-282.91 -266.927)">
    <rect id="Rectangle_664" data-name="Rectangle 664" width="39.791" height="7.873" rx="2.503" transform="translate(284.779 280.055)" fill="#ffa840"/>
    <path id="Rectangle_665" data-name="Rectangle 665" d="M0,0H35.088a0,0,0,0,1,0,0V18.543a2.116,2.116,0,0,1-2.116,2.116H2.116A2.116,2.116,0,0,1,0,18.543V0A0,0,0,0,1,0,0Z" transform="translate(287.131 287.928)" fill="#ffa840"/>
    <path id="Path_7038" data-name="Path 7038" d="M333.328,363.169H298.62a1.141,1.141,0,1,1,0-2.283h34.708a1.141,1.141,0,1,1,0,2.283Z" transform="translate(-11.49 -74.099)" fill="#feb523"/>
    <path id="Path_7039" data-name="Path 7039" d="M400.352,385.175H383.768a1.141,1.141,0,1,1,0-2.283h15.569V364.378a1.141,1.141,0,1,1,2.283,0v19.528A1.27,1.27,0,0,1,400.352,385.175Z" transform="translate(-78.64 -75.954)" fill="#feb523"/>
    <g id="Group_3582" data-name="Group 3582" transform="translate(282.91 266.927)">
      <path id="Path_7040" data-name="Path 7040" d="M335.173,295.667c-1.909,0-4.5-.171-6.007-.988-2.674-1.449-4.026-3.957-3.076-5.71a3.247,3.247,0,0,1,3.016-1.485,7.429,7.429,0,0,1,3.447.942c2.47,1.338,5.085,6.082,5.2,6.283a.6.6,0,0,1-.481.888C337.231,295.6,336.367,295.667,335.173,295.667Zm-6.068-6.98a2.113,2.113,0,0,0-1.958.856c-.607,1.121.579,2.99,2.592,4.08a12.833,12.833,0,0,0,5.435.842c.384,0,.733-.007,1.029-.017-.844-1.391-2.634-4.1-4.223-4.964A6.214,6.214,0,0,0,329.1,288.686Z" transform="translate(-316.724 -283.139)" fill="#0c5eed"/>
      <path id="Path_7041" data-name="Path 7041" d="M379.688,295.667h0c-1.195,0-2.058-.066-2.094-.068a.6.6,0,0,1-.481-.888c.11-.2,2.726-4.945,5.2-6.283a7.43,7.43,0,0,1,3.447-.942,3.247,3.247,0,0,1,3.016,1.485c.95,1.753-.4,4.261-3.076,5.71C384.188,295.5,381.6,295.667,379.688,295.667Zm-1.03-1.219c.3.01.646.017,1.029.017a12.829,12.829,0,0,0,5.435-.842c2.012-1.09,3.2-2.958,2.592-4.08a2.113,2.113,0,0,0-1.958-.856,6.215,6.215,0,0,0-2.875.8C381.292,290.344,379.5,293.057,378.658,294.447Z" transform="translate(-357.143 -283.139)" fill="#0c5eed"/>
      <path id="Path_7042" data-name="Path 7042" d="M366.617,279.388a.6.6,0,0,1-.494-.259c-.125-.181-3.061-4.453-3.061-7.1,0-2.862,1.562-5.1,3.555-5.1s3.555,2.242,3.555,5.1c0,2.645-2.936,6.917-3.061,7.1A.6.6,0,0,1,366.617,279.388Zm0-11.258c-1.275,0-2.353,1.787-2.353,3.9,0,1.565,1.419,4.166,2.353,5.658.934-1.492,2.353-4.093,2.353-5.658C368.97,269.916,367.893,268.129,366.617,268.129Z" transform="translate(-346.121 -266.927)" fill="#0c5eed"/>
      <path id="Path_7043" data-name="Path 7043" d="M322.773,329.268H284.04a1.132,1.132,0,0,1-1.13-1.13v-6.815a1.132,1.132,0,0,1,1.13-1.13h38.732a1.132,1.132,0,0,1,1.13,1.13v6.815A1.132,1.132,0,0,1,322.773,329.268Zm-38.66-1.2H322.7V321.4H284.112Z" transform="translate(-282.91 -308.935)" fill="#0c5eed"/>
      <path id="Path_7044" data-name="Path 7044" d="M329.277,379.3H295.083a1.05,1.05,0,0,1-1.048-1.049V358.042a.6.6,0,0,1,.6-.6h35.088a.6.6,0,0,1,.6.6v20.212A1.05,1.05,0,0,1,329.277,379.3Zm-34.039-1.2h33.886V358.643H295.237Z" transform="translate(-291.684 -338.31)" fill="#0c5eed"/>
      <path id="Path_7045" data-name="Path 7045" d="M377.64,349.928a.6.6,0,0,1-.6-.6V320.794a.6.6,0,0,1,1.2,0v28.532A.6.6,0,0,1,377.64,349.928Z" transform="translate(-357.144 -308.935)" fill="#0c5eed"/>
    </g>
    <g id="Group_3583" data-name="Group 3583" transform="translate(289.165 298.161)">
      <path id="Path_7046" data-name="Path 7046" d="M316.647,421.387h-1.522a.6.6,0,0,0-.38,0h-1.513l-.055,0a1.275,1.275,0,0,1-.673-.916v-1.522a.6.6,0,0,0,0-.381v-1.522a.6.6,0,0,0,0-.381V415.3a.6.6,0,1,1,1.2,0v1.363a.6.6,0,0,0,0,.381v1.522a.6.6,0,0,0,0,.381v1.237h1.039a.6.6,0,0,0,.38,0h1.522a.6.6,0,0,1,0,1.2Z" transform="translate(-312.503 -414.7)" fill="#fff"/>
      <path id="Path_7047" data-name="Path 7047" d="M338.377,441.851h-.713a.6.6,0,0,1,0-1.2h.713a.6.6,0,1,1,0,1.2Z" transform="translate(-331.872 -435.164)" fill="#fff"/>
    </g>
    <path id="Path_7048" data-name="Path 7048" d="M309.966,340.238h-.025a.605.605,0,0,0-.38,0h-.38a.6.6,0,1,1,0-1.2h.38a.606.606,0,0,0,.38,0h.025a.6.6,0,1,1,0,1.2Zm-3.322,0h-.38a.605.605,0,0,0-.38,0h-2.536a.6.6,0,1,1,0-1.2h2.536a.606.606,0,0,0,.38,0h.38a.6.6,0,0,1,0,1.2Z" transform="translate(-15.643 -56.868)" fill="#fff"/>
  </g>
</svg>
