<svg id="Group_2392" data-name="Group 2392" xmlns="http://www.w3.org/2000/svg" width="21.505" height="21.505" viewBox="0 0 21.505 21.505">
  <path id="Path_6861" data-name="Path 6861" d="M4.766,145.456l-.749,2.794-2.736.058A10.771,10.771,0,0,1,1.2,138.268h0l2.436.447,1.067,2.421a6.417,6.417,0,0,0,.06,4.32Z" transform="translate(0 -132.461)" fill="#fbbb00"/>
  <path id="Path_6862" data-name="Path 6862" d="M271.956,208.176a10.748,10.748,0,0,1-3.833,10.394h0l-3.068-.157-.434-2.711a6.408,6.408,0,0,0,2.757-3.272h-5.75v-4.254h10.328Z" transform="translate(-250.639 -199.432)" fill="#518ef8"/>
  <path id="Path_6863" data-name="Path 6863" d="M46.711,315.55h0a10.756,10.756,0,0,1-16.2-3.29l3.485-2.852a6.395,6.395,0,0,0,9.215,3.274Z" transform="translate(-29.228 -296.413)" fill="#28b446"/>
  <path id="Path_6864" data-name="Path 6864" d="M45.037,2.475,41.554,5.327a6.394,6.394,0,0,0-9.427,3.348l-3.5-2.868h0A10.755,10.755,0,0,1,45.037,2.475Z" transform="translate(-27.422)" fill="#f14336"/>
</svg>
