<svg xmlns="http://www.w3.org/2000/svg" width="27" height="27" viewBox="0 0 27 27">
  <g id="Group_2406" data-name="Group 2406" transform="translate(222 -418)">
    <g id="Group_2400" data-name="Group 2400">
      <g id="Group_244" data-name="Group 244" transform="translate(-220.427 417.686)">
        <rect id="Rectangle_462" data-name="Rectangle 462" width="27" height="27" rx="7" transform="translate(-1.573 0.314)" fill="#fff"/>
        <g id="Group_2408" data-name="Group 2408" transform="translate(2.427 3.953)">
          <path id="Path_6757" data-name="Path 6757" d="M4.325,144.791l-.679,2.536-2.483.053a9.774,9.774,0,0,1-.072-9.111h0l2.21.405.968,2.2a5.823,5.823,0,0,0,.055,3.92Z" transform="translate(0 -132.998)" fill="#fbbb00"/>
          <path id="Path_6758" data-name="Path 6758" d="M271,208.176a9.753,9.753,0,0,1-3.478,9.431h0l-2.784-.142-.394-2.46a5.815,5.815,0,0,0,2.5-2.969h-5.217v-3.86H271Z" transform="translate(-251.657 -200.242)" fill="#518ef8"/>
          <path id="Path_6759" data-name="Path 6759" d="M45.211,314.982h0A9.76,9.76,0,0,1,30.509,312l3.162-2.588a5.8,5.8,0,0,0,8.362,2.971Z" transform="translate(-29.346 -297.617)" fill="#28b446"/>
          <path id="Path_6760" data-name="Path 6760" d="M43.518,2.246,40.357,4.834A5.8,5.8,0,0,0,31.8,7.872l-3.178-2.6h0A9.759,9.759,0,0,1,43.518,2.246Z" transform="translate(-27.533)" fill="#f14336"/>
        </g>
      </g>
    </g>
  </g>
</svg>
