<svg id="Group_243" data-name="Group 243" xmlns="http://www.w3.org/2000/svg" width="21.153" height="21.452" viewBox="0 0 21.153 21.452">
  <path id="Path_233" data-name="Path 233" d="M373.1,358.9H363.021l-.043,3.895h5.693a6.746,6.746,0,0,1-.824,1.962,6.986,6.986,0,0,1-1.3,1.543,5.467,5.467,0,0,1-1.708,1.019,5.974,5.974,0,0,1-4.554-.195,6.566,6.566,0,0,1-2.037-1.5,7.288,7.288,0,0,1-1.888-4.929,7.288,7.288,0,0,1,1.888-4.929,6.574,6.574,0,0,1,2.037-1.5,5.8,5.8,0,0,1,2.517-.554,5.9,5.9,0,0,1,3.311.974,6.5,6.5,0,0,1,1.515,1.374l2.918-2.774a11.262,11.262,0,0,0-2.455-1.925,10.282,10.282,0,0,0-5.288-1.393,10.524,10.524,0,0,0-4.18.839,10.648,10.648,0,0,0-5.708,5.708,10.831,10.831,0,0,0,0,8.359,10.649,10.649,0,0,0,5.708,5.708,10.516,10.516,0,0,0,4.18.839,10.241,10.241,0,0,0,7.445-3.131,10.649,10.649,0,0,0,2.187-3.416,11.041,11.041,0,0,0,.794-4.18q0-.449-.03-.9T373.1,358.9Z" transform="translate(-352.072 -349.971)" fill="#0c5eed"/>
  <path id="Path_234" data-name="Path 234" d="M580.9,451.919l-.075-.01.023.044Z" transform="translate(-564.517 -444.643)" fill="#0c5eed"/>
</svg>
