<svg xmlns="http://www.w3.org/2000/svg" width="105.499" height="59.633" viewBox="0 0 105.499 59.633">
  <g id="Group_2144" data-name="Group 2144" transform="translate(-501.584 -53.237)">
    <path id="Path_216" data-name="Path 216" d="M574.416,89.653a3.524,3.524,0,0,1,2.7,1.173,4.6,4.6,0,0,1,1.216,2.849l.048,21.947a3.906,3.906,0,0,1-1.048,2.793,4.153,4.153,0,0,1-2.849,1.245,3.96,3.96,0,0,1-2.731-.985,4.384,4.384,0,0,1-1.369-2.787l-.049-22.443a3.834,3.834,0,0,1,1.295-2.668A4.318,4.318,0,0,1,574.416,89.653Z" transform="translate(-38.381 -20.33)" fill="#d6d6d6"/>
    <g id="Group_169" data-name="Group 169" transform="translate(501.584 53.237)">
      <path id="Path_217" data-name="Path 217" d="M516.615,89.335a14.353,14.353,0,0,1,10.549,4.315,3.71,3.71,0,0,1,.966,2.787,3.827,3.827,0,0,1-1.2,2.668,4.213,4.213,0,0,1-2.85,1.123,3.563,3.563,0,0,1-2.854-1.11,6.617,6.617,0,0,0-4.592-1.724,6.332,6.332,0,0,0-2.7.594,7.687,7.687,0,0,0-2.227,1.555,7.287,7.287,0,0,0-1.513,2.2,6.247,6.247,0,0,0-.554,2.6,6.616,6.616,0,0,0,.565,2.7,6.956,6.956,0,0,0,1.555,2.228A7.7,7.7,0,0,0,514,110.79a5.775,5.775,0,0,0,2.666.49,6.616,6.616,0,0,0,4.585-1.683,3.9,3.9,0,0,1,5.7-.014,3.541,3.541,0,0,1,.87,1.176,3.856,3.856,0,0,1,.343,1.425,3.9,3.9,0,0,1-.215,1.459,3.75,3.75,0,0,1-.74,1.272,15.213,15.213,0,0,1-4.766,3.3,14.5,14.5,0,0,1-5.763,1.129,14.22,14.22,0,0,1-5.83-1.2,15.543,15.543,0,0,1-8.048-8.009,14.227,14.227,0,0,1-.026-11.47,15.4,15.4,0,0,1,3.275-4.781,16.525,16.525,0,0,1,4.8-3.3A13.764,13.764,0,0,1,516.615,89.335Z" transform="translate(-501.584 -73.389)" fill="#d6d6d6"/>
      <path id="Path_218" data-name="Path 218" d="M572.092,53.237a5.429,5.429,0,0,1,4.083,1.78,5.973,5.973,0,0,1,.02,8.34,5.421,5.421,0,0,1-4.075,1.8,6.4,6.4,0,0,1-4.356-1.687,5.935,5.935,0,0,1-1.706-4.533,5.587,5.587,0,0,1,1.869-4.035A5.958,5.958,0,0,1,572.092,53.237Z" transform="translate(-537.578 -53.237)" fill="#d6d6d6"/>
      <path id="Path_219" data-name="Path 219" d="M614.392,130.406l-1.984,0a4.25,4.25,0,0,0-2.724,1.31,4.139,4.139,0,0,1-2.943,1.184,4.021,4.021,0,0,1-2.947-1.233,3.909,3.909,0,0,1-1.277-2.693,3.654,3.654,0,0,1,.955-2.762,10.429,10.429,0,0,1,5.448-3.423,13.221,13.221,0,0,1,3.469-.566l4.589-.009a2.228,2.228,0,0,0,1.485-.81,4.712,4.712,0,0,0,.921-3.783v-.062a12.854,12.854,0,0,1-2.818,1.121,16.288,16.288,0,0,1-4.184.444,15.947,15.947,0,0,1-6.046-1.1,13.823,13.823,0,0,1-7.86-7.825,15.949,15.949,0,0,1-1.13-6.042,13.762,13.762,0,0,1,1.226-5.769,15.867,15.867,0,0,1,3.306-4.781,16.16,16.16,0,0,1,4.767-3.264,13.715,13.715,0,0,1,5.67-1.223,14.569,14.569,0,0,1,5.83,1.165,15.214,15.214,0,0,1,4.781,3.214,14.872,14.872,0,0,1,4.363,10.591,15,15,0,0,1-1.781,7.443q1.8,2.415,1.815,7.869a9.924,9.924,0,0,1-.766,3.94,11.212,11.212,0,0,1-2.223,3.63,10.71,10.71,0,0,1-3.312,2.395,11.194,11.194,0,0,1-4.151,1.032l-2.107,0Zm-2.059-33.225a5.99,5.99,0,0,0-2.6.6,7.87,7.87,0,0,0-3.742,3.759,5.982,5.982,0,0,0-.583,2.6,6.805,6.805,0,0,0,.532,2.633A7.09,7.09,0,0,0,607.4,109a7.254,7.254,0,0,0,2.205,1.544,6.446,6.446,0,0,0,2.758.582,6.994,6.994,0,0,0,2.79-.563,6.538,6.538,0,0,0,2.228-1.555,7.526,7.526,0,0,0,1.452-2.235,6.752,6.752,0,0,0,.522-2.666,6.363,6.363,0,0,0-.6-2.7,7.339,7.339,0,0,0-1.554-2.2,7.548,7.548,0,0,0-2.236-1.482A6.48,6.48,0,0,0,612.333,97.182Z" transform="translate(-555.045 -73.271)" fill="#d6d6d6"/>
      <path id="Path_220" data-name="Path 220" d="M689.061,89.011a14.5,14.5,0,0,1,5.243,1.6,14.8,14.8,0,0,1,4.222,3.308,15.7,15.7,0,0,1,2.8,4.582,14.529,14.529,0,0,1,1.035,5.421l.024,10.973a3.782,3.782,0,0,1-1.233,2.854,3.971,3.971,0,0,1-6.263-.791,3.474,3.474,0,0,0-.557.28c-.166.1-.333.2-.5.279a16.472,16.472,0,0,1-3.035,1.063,15.173,15.173,0,0,1-3.409.378,14.324,14.324,0,0,1-8.313-2.492,15.467,15.467,0,0,1-5.47-6.466,16.455,16.455,0,0,1-.968-2.912,14.288,14.288,0,0,1-.014-6.2,16.4,16.4,0,0,1,.954-2.917,15.2,15.2,0,0,1,5.44-6.521,14.462,14.462,0,0,1,8.3-2.5h.9A6.083,6.083,0,0,1,689.061,89.011Zm-1.75,21.888a6.983,6.983,0,0,0,2.7-.532,6.7,6.7,0,0,0,2.2-1.463,7.082,7.082,0,0,0,1.482-2.2,6.761,6.761,0,0,0,.553-2.76,6.485,6.485,0,0,0-.565-2.634,7.217,7.217,0,0,0-3.759-3.741,6.474,6.474,0,0,0-2.636-.553,6.257,6.257,0,0,0-2.6.564,7.323,7.323,0,0,0-3.712,3.758,6.5,6.5,0,0,0-.551,2.637,6.338,6.338,0,0,0,.594,2.7,7.311,7.311,0,0,0,1.555,2.2,7.65,7.65,0,0,0,2.2,1.484A6.127,6.127,0,0,0,687.311,110.9Z" transform="translate(-596.887 -73.176)" fill="#d6d6d6"/>
    </g>
  </g>
</svg>
