<?xml version="1.0" encoding="utf-8"?>
<!-- Generator: Adobe Illustrator 25.0.0, SVG Export Plug-In . SVG Version: 6.00 Build 0)  -->
<svg version="1.1" id="Layer_1" xmlns="http://www.w3.org/2000/svg" xmlns:xlink="http://www.w3.org/1999/xlink" x="0px" y="0px"
	 viewBox="0 0 327.78 82.82" style="enable-background:new 0 0 327.78 82.82;" xml:space="preserve">
<style type="text/css">
	.st0{fill:#FFFFFF;}
	.st1{fill:#F89521;}
</style>
<g>
	<g>
		<path class="st0" d="M146.02,60.33h6.89V44.9c0-9.17-7.46-16.63-16.63-16.63c-5.05,0-9.77,2.26-12.95,6.21l-0.25,0.31l-0.25-0.31
			c-3.18-3.95-7.91-6.21-12.96-6.21c-9.17,0-16.64,7.46-16.64,16.63v15.43h6.89V44.9c0-5.37,4.37-9.75,9.75-9.75
			s9.75,4.37,9.75,9.75v15.43h6.92V44.9c0-5.37,4.37-9.75,9.75-9.75c5.37,0,9.75,4.37,9.75,9.75V60.33z"/>
		<path class="st0" d="M279.61,60.33V44.77c0-5.38-4.37-9.75-9.75-9.75c-5.38,0-9.75,4.37-9.75,9.75c0,4.76,3.87,8.63,8.63,8.63
			h6.21v6.89h-6.21c-8.55,0-15.51-6.96-15.51-15.51c0-9.17,7.46-16.64,16.64-16.64c3.3,0,6.5,0.97,9.24,2.81l0.5,0.34v-3.19h6.89
			v32.24H279.61z"/>
		<path class="st0" d="M198.33,60.33V46.56c0-2.54,0.58-5,1.73-7.31c1.09-2.18,2.63-4.13,4.59-5.8c3.32-2.82,7.49-4.56,12.07-5.03
			v6.95c-6.69,0.98-11.51,5.64-11.51,11.19v13.77H198.33z"/>
		<path class="st0" d="M185.17,60.33V44.77c0-5.38-4.37-9.75-9.75-9.75c-5.38,0-9.75,4.37-9.75,9.75c0,4.76,3.87,8.63,8.63,8.63
			h6.21v6.89h-6.21c-8.55,0-15.51-6.96-15.51-15.51c0-9.17,7.46-16.64,16.64-16.64c3.31,0,6.5,0.97,9.24,2.81l0.5,0.34v-3.19
			l6.89,0.1v32.13H185.17z"/>
		<path class="st0" d="M317.81,60.33V44.77c0-5.38-4.37-9.75-9.75-9.75c-5.38,0-9.75,4.37-9.75,9.75c0,4.76,3.87,8.63,8.63,8.63
			h6.21v6.89h-6.21c-8.55,0-15.51-6.96-15.51-15.51c0-9.17,7.46-16.64,16.64-16.64c3.3,0,6.5,0.97,9.25,2.81l0.5,0.34v-3.19h6.89
			v32.24H317.81z"/>
		<polygon class="st0" points="244.59,60.33 236.95,43.95 230.17,51.11 230.17,60.21 223.28,60.21 223.28,19.83 230.2,19.83 
			230.17,27.96 230.17,41.09 242.55,28 252.03,28 242.03,38.57 252.19,60.33 		"/>
	</g>
	<path class="st1" d="M77.73,52.42L69.5,35.74l-1.75-3.55l-3.36-6.8c-3.02-6.11-10.44-8.63-16.55-5.61c-2.43,1.2-4.29,3.1-5.46,5.33
		c0.02-0.1-0.02-0.01-0.2,0.38c-1.13-2.28-2.97-4.24-5.4-5.49c-6.06-3.12-13.53-0.73-16.65,5.33l-3.47,6.74l-1.82,3.52L6.32,52.11
		c-3.12,6.06-0.73,13.53,5.33,16.65c6.06,3.12,13.53,0.73,16.65-5.33l8.52-16.54l1.82-3.52l3.47-6.74c0.05-0.09,0.09-0.18,0.13-0.27
		l3.34,6.77l1.76,3.56l8.23,16.68c0.09,0.18,0.18,0.36,0.28,0.53c0.03,0.06,0.07,0.11,0.1,0.17c0.07,0.12,0.13,0.23,0.2,0.34
		c0.04,0.07,0.08,0.13,0.13,0.19c0.07,0.1,0.13,0.2,0.2,0.3c0.05,0.07,0.09,0.13,0.14,0.2c0.07,0.09,0.14,0.19,0.21,0.28
		c0.05,0.06,0.1,0.13,0.15,0.19c0.07,0.09,0.14,0.18,0.22,0.27c0.05,0.06,0.1,0.12,0.15,0.18c0.08,0.09,0.16,0.18,0.24,0.26
		c0.05,0.05,0.1,0.11,0.15,0.16c0.1,0.1,0.19,0.19,0.29,0.29c0.04,0.04,0.08,0.08,0.12,0.11c0.14,0.13,0.27,0.25,0.41,0.37
		c0.05,0.05,0.11,0.09,0.16,0.14c0.09,0.08,0.18,0.15,0.27,0.22c0.07,0.05,0.13,0.1,0.2,0.15c0.08,0.06,0.16,0.12,0.25,0.18
		c0.07,0.05,0.15,0.1,0.22,0.15c0.08,0.05,0.16,0.11,0.24,0.16c0.08,0.05,0.16,0.1,0.24,0.15c0.08,0.05,0.16,0.1,0.24,0.14
		c0.08,0.05,0.17,0.1,0.25,0.14c0.08,0.04,0.16,0.08,0.23,0.13c0.09,0.05,0.18,0.09,0.26,0.14c0.07,0.04,0.15,0.07,0.22,0.11
		c0.1,0.05,0.19,0.09,0.29,0.13c0.03,0.01,0.06,0.03,0.1,0.04c0.24,0.11,0.49,0.2,0.74,0.29c0.05,0.02,0.1,0.04,0.16,0.06
		c0.11,0.04,0.23,0.07,0.34,0.11c0.06,0.02,0.12,0.04,0.19,0.06c0.11,0.03,0.23,0.06,0.34,0.09c0.06,0.02,0.13,0.03,0.19,0.05
		c0.12,0.03,0.23,0.06,0.35,0.08c0.06,0.01,0.12,0.03,0.18,0.04c0.12,0.02,0.24,0.05,0.36,0.07c0.06,0.01,0.11,0.02,0.17,0.03
		c0.13,0.02,0.25,0.04,0.38,0.06c0.04,0.01,0.08,0.01,0.12,0.01c0.64,0.07,1.29,0.1,1.95,0.07c0.02,0,0.05,0,0.07,0
		c0.14-0.01,0.29-0.02,0.43-0.03c0.04,0,0.08-0.01,0.12-0.01c0.14-0.01,0.28-0.03,0.41-0.05c0.05-0.01,0.09-0.01,0.14-0.02
		c0.14-0.02,0.27-0.04,0.41-0.06c0.04-0.01,0.09-0.02,0.13-0.02c0.14-0.03,0.28-0.05,0.42-0.08c0.01,0,0.02,0,0.04-0.01
		c0.05-0.01,0.1-0.02,0.15-0.03c0.12-0.03,0.23-0.06,0.35-0.09c0.02,0,0.03-0.01,0.05-0.01c0,0,0,0,0,0
		c0.75-0.2,1.49-0.48,2.21-0.84C78.23,65.96,80.75,58.53,77.73,52.42 M36.4,35.72l-2.65,5.14l0,0L23.5,60.76
		c-1.76,3.41-6.05,4.88-9.44,3.07c-3.29-1.76-4.58-5.87-2.86-9.2l8.52-16.54l0,0l5.21-10.11c1.66-3.22,5.51-4.75,8.84-3.35
		c1.42,0.6,2.51,1.61,3.24,2.82l0-0.02l1.86,3.25c0.12,0.2,0.12,0.45,0,0.66L36.4,35.72z M73.51,58.15
		c-0.01,0.22-0.03,0.44-0.06,0.66c-0.18,1.31-0.73,2.56-1.61,3.57c-0.15,0.17-0.3,0.33-0.46,0.49c-0.49,0.47-1.06,0.87-1.69,1.18
		c-0.42,0.21-0.86,0.37-1.3,0.49c-3.08,0.79-6.41-0.65-7.87-3.61l-3.2-6.49c-0.01,0-0.02,0-0.03,0l0,0
		c0.01-0.01,0.01-0.01,0.02-0.02l-5.02-10.17l0,0l-5.11-10.35c-0.1-0.21-0.2-0.42-0.28-0.64c-0.03-0.07-0.06-0.14-0.1-0.21
		c-0.01-0.02-0.01-0.04-0.02-0.06L46.77,33l-1.21-2.35c-0.1-0.2-0.1-0.43,0.01-0.62c0.34-0.62,1.18-2.05,2.27-3.31
		c0.51-0.68,1.15-1.27,1.91-1.73c0.17-0.11,0.35-0.21,0.52-0.29c3.4-1.68,7.52-0.28,9.2,3.12l3.36,6.8l0,0l9.99,20.23l0,0l0,0
		C73.33,55.91,73.55,57.04,73.51,58.15"/>
</g>
</svg>
