<?xml version="1.0" encoding="utf-8"?>
<!-- Generator: Adobe Illustrator 25.0.0, SVG Export Plug-In . SVG Version: 6.00 Build 0)  -->
<svg version="1.1" id="Layer_1" xmlns="http://www.w3.org/2000/svg" xmlns:xlink="http://www.w3.org/1999/xlink" x="0px" y="0px"
	 viewBox="0 0 327.78 327.78" style="enable-background:new 0 0 327.78 327.78;" xml:space="preserve">
<style type="text/css">
	.st0{clip-path:url(#SVGID_2_);}
	.st1{fill:#FFFFFF;}
	.st2{fill:#F57F20;}
</style>
<g>
	<defs>
		<rect id="SVGID_1_" x="21.21" y="100.1" width="285.48" height="130.35"/>
	</defs>
	<clipPath id="SVGID_2_">
		<use xlink:href="#SVGID_1_"  style="overflow:visible;"/>
	</clipPath>
	<g id="Group_2168" class="st0">
		<path id="Path_6768" class="st1" d="M86.32,230.45h8.5v-19.02c0-11.33-9.17-20.51-20.5-20.52c-6.22,0-12.1,2.82-15.99,7.66
			l-0.31,0.39l-0.31-0.39c-7.1-8.83-20.01-10.23-28.84-3.14c-4.84,3.89-7.66,9.78-7.66,15.99v19.02h8.5v-19.02
			c0-6.64,5.38-12.02,12.02-12.02s12.02,5.38,12.02,12.02v19.02h8.53v-19.02c0-6.64,5.39-12.02,12.03-12.02
			c6.64,0,12.02,5.38,12.02,12.02L86.32,230.45z"/>
		<path id="Path_6769" class="st1" d="M251.08,230.45v-19.19c0-6.64-5.38-12.02-12.02-12.02s-12.02,5.38-12.02,12.02
			c0.01,5.87,4.77,10.63,10.64,10.64h7.66v8.5h-7.66c-10.56-0.01-19.12-8.57-19.13-19.13c-0.01-11.33,9.17-20.51,20.5-20.52
			c4.07,0,8.04,1.21,11.42,3.47l0.62,0.42v-3.95h8.49v39.76L251.08,230.45z"/>
		<path id="Path_6770" class="st1" d="M150.84,230.45v-16.99c0-3.13,0.73-6.21,2.14-9.01c1.38-2.75,3.31-5.18,5.66-7.15
			c4.22-3.53,9.41-5.69,14.89-6.2v8.57c-8.25,1.2-14.2,6.96-14.2,13.79v16.98H150.84z"/>
		<path id="Path_6771" class="st1" d="M134.6,230.45v-19.19c0-6.64-5.38-12.02-12.02-12.02s-12.02,5.38-12.02,12.02
			c0.01,5.87,4.77,10.63,10.64,10.64h7.66v8.5h-7.66c-10.56-0.01-19.12-8.57-19.13-19.13c-0.01-11.33,9.17-20.51,20.5-20.52
			c4.07,0,8.04,1.21,11.42,3.47l0.62,0.42v-3.93l8.5,0.12v39.63L134.6,230.45z"/>
		<path id="Path_6772" class="st1" d="M298.2,230.45v-19.19c0-6.64-5.38-12.02-12.02-12.02c-6.64,0-12.02,5.38-12.02,12.02
			c0.01,5.87,4.77,10.63,10.64,10.64h7.66v8.5h-7.66c-10.56-0.01-19.12-8.57-19.13-19.14c-0.01-11.33,9.17-20.51,20.5-20.52
			c4.07,0,8.04,1.21,11.42,3.47l0.62,0.42v-3.94h8.49v39.76L298.2,230.45z"/>
		<path id="Path_6773" class="st1" d="M207.89,230.45l-9.43-20.2l-8.36,8.83v11.22h-8.5V180.5h8.53l-0.04,10.03v16.19l15.27-16.14
			h11.69l-12.33,13.03l12.53,26.83H207.89z"/>
		<path id="Path_6774" class="st2" d="M208.05,141.93l-10.16-20.57l-2.16-4.38l-4.14-8.38c-3.72-7.55-12.85-10.65-20.4-6.93
			c-2.89,1.42-5.26,3.73-6.75,6.58c0.03-0.12-0.03-0.01-0.24,0.46c-3.74-7.54-12.88-10.62-20.42-6.88
			c-2.92,1.45-5.29,3.79-6.78,6.68l-4.28,8.31l-2.24,4.35l-10.51,20.39c-3.86,7.49-0.91,16.68,6.57,20.53
			c7.49,3.86,16.68,0.91,20.53-6.57l0,0l10.51-20.39l2.24-4.35l4.28-8.31c0.06-0.11,0.11-0.23,0.16-0.34l4.12,8.35l2.17,4.38
			l10.15,20.57c0.11,0.22,0.23,0.44,0.34,0.65c0.04,0.07,0.08,0.14,0.12,0.21c0.08,0.14,0.16,0.28,0.25,0.42
			c0.05,0.08,0.1,0.16,0.15,0.24c0.08,0.12,0.16,0.25,0.24,0.37c0.06,0.08,0.11,0.16,0.17,0.24c0.08,0.12,0.17,0.23,0.25,0.34
			c0.06,0.08,0.12,0.16,0.18,0.24c0.09,0.11,0.18,0.22,0.27,0.33c0.06,0.07,0.13,0.15,0.19,0.22c0.1,0.11,0.19,0.22,0.29,0.32
			c0.06,0.07,0.12,0.14,0.19,0.2c0.12,0.12,0.24,0.24,0.36,0.36c0.05,0.05,0.09,0.1,0.14,0.14c0.17,0.16,0.34,0.31,0.51,0.46
			c0.07,0.06,0.13,0.11,0.2,0.17c0.11,0.09,0.22,0.19,0.34,0.28c0.08,0.06,0.17,0.13,0.25,0.19c0.1,0.08,0.2,0.15,0.31,0.23
			s0.18,0.13,0.27,0.19s0.2,0.13,0.3,0.2s0.19,0.12,0.29,0.18s0.2,0.12,0.29,0.18s0.2,0.12,0.31,0.18s0.19,0.1,0.29,0.15
			c0.1,0.05,0.22,0.12,0.33,0.17c0.09,0.04,0.18,0.09,0.27,0.13c0.12,0.06,0.23,0.11,0.35,0.17l0.12,0.05
			c0.3,0.13,0.6,0.25,0.91,0.36c0.06,0.02,0.13,0.05,0.19,0.07c0.14,0.05,0.28,0.09,0.42,0.13l0.23,0.07
			c0.14,0.04,0.28,0.08,0.42,0.12c0.08,0.02,0.16,0.04,0.24,0.06c0.14,0.04,0.29,0.07,0.43,0.1l0.23,0.05
			c0.15,0.03,0.3,0.06,0.45,0.08c0.07,0.01,0.14,0.02,0.21,0.03c0.16,0.02,0.31,0.05,0.47,0.07c0.05,0.01,0.1,0.01,0.15,0.02
			c0.8,0.09,1.6,0.12,2.4,0.09h0.09c0.18-0.01,0.35-0.02,0.53-0.04c0.05,0,0.1-0.01,0.15-0.01c0.17-0.02,0.34-0.04,0.51-0.06
			l0.17-0.02c0.17-0.02,0.34-0.05,0.51-0.08l0.16-0.03c0.17-0.03,0.35-0.07,0.52-0.1l0.04-0.01c0.06-0.01,0.12-0.03,0.18-0.04
			c0.14-0.03,0.29-0.07,0.43-0.11l0.06-0.01l0,0c8.12-2.22,12.9-10.59,10.69-18.71c-0.26-0.94-0.61-1.86-1.04-2.74 M157.07,121.34
			l-3.26,6.34l0,0l-12.64,24.54c-2.17,4.26-7.38,5.95-11.64,3.78c-4.07-2.19-5.64-7.23-3.53-11.34l10.51-20.39l0,0l6.42-12.46
			c2.01-4,6.75-5.79,10.9-4.13c1.67,0.7,3.07,1.92,3.99,3.48v-0.02l2.29,4c0.14,0.25,0.14,0.56,0,0.81L157.07,121.34z M202.84,149
			c-0.01,0.27-0.03,0.54-0.07,0.81c-0.22,1.63-0.91,3.16-1.98,4.41c-0.18,0.21-0.37,0.41-0.57,0.6c-3.38,3.21-8.72,3.08-11.93-0.29
			c-0.59-0.62-1.09-1.33-1.47-2.11l-3.95-8h-0.04l0,0l0.02-0.03l-6.19-12.54l0,0l-6.3-12.77c-0.13-0.26-0.24-0.52-0.34-0.79
			c-0.04-0.08-0.08-0.17-0.12-0.26c-0.01-0.02-0.01-0.05-0.02-0.07l-0.02,0.01l-1.49-2.9c-0.12-0.24-0.12-0.53,0.01-0.77
			c0.8-1.45,1.73-2.82,2.8-4.08c0.64-0.85,1.44-1.57,2.35-2.13c0.21-0.13,0.42-0.25,0.64-0.35c4.2-2.06,9.27-0.34,11.35,3.85
			l4.14,8.38l0,0l12.32,24.96l0,0C202.6,146.19,202.9,147.59,202.84,149"/>
	</g>
</g>
</svg>
