<svg xmlns="http://www.w3.org/2000/svg" xmlns:xlink="http://www.w3.org/1999/xlink" width="157.153" height="25.432" viewBox="0 0 157.153 25.432">
  <defs>
    <clipPath id="clip-path">
      <rect id="Rectangle_299" data-name="Rectangle 299" width="157.153" height="25.432" fill="none"/>
    </clipPath>
  </defs>
  <g id="Group_2171" data-name="Group 2171" transform="translate(0 0)">
    <g id="Group_2170" data-name="Group 2170" transform="translate(0 0)" clip-path="url(#clip-path)">
      <path id="Path_6775" data-name="Path 6775" d="M114.223,25.524h3.385V17.942a8.173,8.173,0,0,0-14.543-5.123l-.124.154-.123-.154a8.174,8.174,0,0,0-14.544,5.123v7.582h3.385V17.942a4.791,4.791,0,0,1,9.582,0v7.582h3.4V17.942a4.791,4.791,0,0,1,9.581,0Z" transform="translate(-44.889 -4.967)" fill="#fff"/>
      <path id="Path_6776" data-name="Path 6776" d="M261.244,25.433V17.786a4.791,4.791,0,1,0-9.581,0,4.244,4.244,0,0,0,4.24,4.24h3.052v3.385H255.9a7.634,7.634,0,0,1-7.625-7.625A8.172,8.172,0,0,1,261,10.993l.247.166V9.589h3.385V25.433Z" transform="translate(-126.253 -4.876)" fill="#fff"/>
      <path id="Path_6777" data-name="Path 6777" d="M193.385,25.6V18.833a7.993,7.993,0,0,1,.851-3.591,9.005,9.005,0,0,1,2.257-2.852,10.8,10.8,0,0,1,5.934-2.471v3.416c-3.287.48-5.657,2.774-5.657,5.5V25.6Z" transform="translate(-98.339 -5.044)" fill="#fff"/>
      <path id="Path_6778" data-name="Path 6778" d="M166.8,25.436V17.789a4.791,4.791,0,0,0-9.582,0,4.245,4.245,0,0,0,4.24,4.24h3.052v3.385h-3.052a7.633,7.633,0,0,1-7.624-7.625A8.172,8.172,0,0,1,166.555,11l.247.166V9.594l3.385.05V25.436Z" transform="translate(-78.228 -4.879)" fill="#fff"/>
      <path id="Path_6779" data-name="Path 6779" d="M299.448,25.433V17.786a4.791,4.791,0,0,0-9.582,0,4.245,4.245,0,0,0,4.24,4.24h3.053v3.385h-3.053a7.633,7.633,0,0,1-7.624-7.625,8.173,8.173,0,0,1,12.72-6.794l.247.166V9.589h3.385V25.433Z" transform="translate(-145.68 -4.876)" fill="#fff"/>
      <path id="Path_6780" data-name="Path 6780" d="M228.805,21.234l-3.757-8.05L221.719,16.7v4.472h-3.385V1.331h3.4l-.014,4v6.45L227.8,5.347h4.66l-4.914,5.193,4.992,10.694Z" transform="translate(-111.026 -0.677)" fill="#fff"/>
      <path id="Path_6781" data-name="Path 6781" d="M35.772,16.67l-4.047-8.2-.863-1.747L29.213,3.385a6.071,6.071,0,0,0-10.82-.139c.01-.047-.01,0-.1.185A6.071,6.071,0,0,0,7.458,3.349L5.752,6.661,4.86,8.393.673,16.52a6.076,6.076,0,0,0,10.8,5.564l4.186-8.127.892-1.732L18.26,8.913c.023-.044.043-.089.065-.135L19.966,12.1l.863,1.747,4.046,8.2c.044.089.09.175.138.26.016.029.032.056.049.085.032.057.065.113.1.168l.061.1c.032.05.064.1.1.147.022.032.045.065.068.1s.067.092.1.137.048.063.073.095.071.087.107.131l.076.089c.038.044.078.087.117.129l.074.08c.047.049.095.1.143.143l.057.056q.1.094.2.184c.026.023.053.045.08.067.045.037.089.074.135.11l.1.076.122.09.11.076.118.079.116.073.116.07c.041.025.082.048.123.071l.115.062.13.068.108.052c.047.022.094.045.141.065l.047.02q.179.078.363.144l.077.029c.055.019.111.036.166.054l.092.029.167.046.094.025.171.039.091.019c.059.012.118.024.177.033l.083.013c.063.01.125.02.188.028l.061.007a6.088,6.088,0,0,0,.957.035h.035c.07,0,.141-.009.212-.015l.061,0c.067-.006.136-.014.2-.023l.068-.008c.067-.01.135-.02.2-.032l.064-.012c.069-.013.138-.027.207-.042l.018,0,.071-.017c.058-.014.115-.028.172-.043l.025-.006h0a6.071,6.071,0,0,0,3.844-8.548M15.456,8.464l-1.3,2.526h0L9.116,20.768a3.451,3.451,0,0,1-4.638,1.51,3.381,3.381,0,0,1-1.407-4.522L7.259,9.628h0L9.819,4.662a3.435,3.435,0,0,1,4.346-1.645A3.348,3.348,0,0,1,15.754,4.4V4.4l.914,1.595a.324.324,0,0,1,0,.322ZM33.7,19.487a3.231,3.231,0,0,1-.029.324,3.39,3.39,0,0,1-.791,1.756q-.107.125-.227.239a3.364,3.364,0,0,1-5.341-.955l-1.574-3.188-.014,0v0l.01-.01-2.468-5h0L20.752,7.565a3.312,3.312,0,0,1-.136-.314c-.016-.034-.031-.068-.047-.1,0-.009-.005-.019-.008-.028l-.009,0-.593-1.156a.324.324,0,0,1,0-.305,10.151,10.151,0,0,1,1.114-1.627,3.35,3.35,0,0,1,.939-.848,2.4,2.4,0,0,1,.256-.142,3.381,3.381,0,0,1,4.522,1.533L28.443,7.92h0l4.909,9.944h0a3.356,3.356,0,0,1,.346,1.622" transform="translate(0 0)" fill="#f7941d"/>
    </g>
  </g>
</svg>
