<svg xmlns="http://www.w3.org/2000/svg" width="239.742" height="167.514" viewBox="0 0 239.742 167.514">
  <path id="Path_1" data-name="Path 1" d="M235.614,109.8,208.959,55.808,203.277,44.3l-10.861-22a39.986,39.986,0,0,0-71.267-.916c.068-.308-.068-.029-.634,1.217a39.989,39.989,0,0,0-71.39-.537L37.888,43.875,32.01,55.286,4.435,108.814a40.017,40.017,0,0,0,71.151,36.648L103.16,91.935l5.876-11.411,11.236-21.816c.152-.288.285-.589.431-.887l10.809,21.906L137.2,91.236l26.652,53.993c.291.586.592,1.152.906,1.716.1.191.21.369.32.557.214.372.427.745.654,1.107.133.21.269.421.4.628.21.327.424.651.644.971.146.214.3.427.45.638.22.3.44.605.667.9.159.21.317.418.482.625.23.291.466.576.7.861.168.194.333.395.5.589.253.288.511.57.77.851.162.175.324.353.489.528.308.32.625.628.942.939.123.123.246.249.372.369q.656.622,1.34,1.211c.172.152.35.295.524.44.295.243.586.489.887.725.214.168.434.333.651.5.269.2.534.4.8.6.24.168.479.333.722.5s.515.35.777.521.508.324.767.482.508.311.767.463.537.317.809.466c.249.139.5.272.754.408.285.149.57.3.858.447.233.117.476.227.712.343.311.146.618.295.929.431.1.049.207.087.311.133q1.18.515,2.392.945c.168.065.337.126.505.188.363.126.728.24,1.094.353.2.065.4.13.609.191.366.107.732.2,1.1.3.207.055.411.113.618.165.372.091.751.178,1.123.259.2.042.4.087.6.126.388.078.777.155,1.169.22q.272.049.544.087c.414.068.825.13,1.24.181.133.019.269.029.4.049a40.1,40.1,0,0,0,6.3.233c.074,0,.155,0,.233-.006.463-.023.929-.058,1.4-.1.133-.01.269-.019.4-.032.444-.042.893-.094,1.337-.152.152-.019.3-.039.45-.055.443-.065.887-.133,1.334-.21.142-.026.285-.055.424-.078.456-.087.91-.175,1.363-.275.039-.006.074-.016.117-.026.155-.032.311-.078.469-.11.379-.094.754-.181,1.13-.282.055-.016.11-.026.162-.042l.01-.01a39.985,39.985,0,0,0,25.321-56.3M101.8,55.749,93.235,72.385l-.01,0L60.047,136.793c-5.694,11.055-19.588,15.814-30.546,9.945a22.272,22.272,0,0,1-9.265-29.782L47.811,63.422l.01,0L64.673,30.713C70.031,20.305,82.5,15.346,93.3,19.878a22.053,22.053,0,0,1,10.472,9.129l0-.055,6.018,10.5a2.136,2.136,0,0,1,.006,2.12Zm120.142,72.607a21.28,21.28,0,0,1-.188,2.137,22.326,22.326,0,0,1-5.209,11.563q-.7.821-1.5,1.577a22.158,22.158,0,0,1-35.179-6.293l-10.366-21-.091.013-.006-.013a.611.611,0,0,1,.065-.065L153.224,83.347h.006L136.688,49.832a21.817,21.817,0,0,1-.9-2.069c-.107-.223-.2-.45-.308-.673-.023-.062-.036-.126-.055-.181l-.062.019-3.907-7.614a2.136,2.136,0,0,1,.026-2.01,66.858,66.858,0,0,1,7.336-10.715A22.064,22.064,0,0,1,145.008,21a15.809,15.809,0,0,1,1.687-.932,22.269,22.269,0,0,1,29.786,10.1l10.861,22-.006,0,32.333,65.5v0a22.106,22.106,0,0,1,2.279,10.686" transform="translate(0 0.001)" fill="#f7941d"/>
</svg>
