<?xml version="1.0" encoding="utf-8"?>
<!-- Generator: Adobe Illustrator 25.0.0, SVG Export Plug-In . SVG Version: 6.00 Build 0)  -->
<svg version="1.1" id="Layer_1" xmlns="http://www.w3.org/2000/svg" xmlns:xlink="http://www.w3.org/1999/xlink" x="0px" y="0px"
	 viewBox="0 0 313.85 274.44" style="enable-background:new 0 0 313.85 274.44;" xml:space="preserve">
<style type="text/css">
	.st0{fill:#F79520;}
</style>
<path id="Path_6781" class="st0" d="M302.94,162.51l-33.17-67.21l-7.07-14.32l-13.52-27.36C237.03,28.98,207.2,18.85,182.55,31
	c-9.44,4.65-17.16,12.18-22.05,21.49c0.08-0.39-0.08,0-0.82,1.52c-12.22-24.62-42.07-34.67-66.69-22.45
	c-9.51,4.72-17.25,12.35-22.11,21.78L56.89,80.48l-7.31,14.2l-34.32,66.61c-12.05,24.72-1.77,54.53,22.95,66.58
	c23.95,11.67,52.84,2.43,65.57-20.98l34.31-66.61l7.31-14.2l14.01-27.15c0.19-0.36,0.35-0.73,0.53-1.11l13.45,27.23l7.07,14.32
	l33.16,67.21c0.36,0.73,0.74,1.43,1.13,2.13c0.13,0.24,0.26,0.46,0.4,0.7c0.26,0.47,0.53,0.93,0.82,1.38l0.5,0.82
	c0.26,0.41,0.52,0.82,0.82,1.2c0.18,0.26,0.37,0.53,0.56,0.82c0.19,0.29,0.55,0.75,0.82,1.12c0.27,0.37,0.39,0.52,0.6,0.78
	c0.2,0.26,0.58,0.71,0.88,1.07l0.62,0.73c0.31,0.36,0.64,0.71,0.96,1.06l0.61,0.66c0.39,0.4,0.78,0.82,1.17,1.17l0.47,0.46
	c0.55,0.51,1.09,1.02,1.64,1.51c0.21,0.19,0.43,0.37,0.66,0.55c0.37,0.3,0.73,0.61,1.11,0.9l0.82,0.62l1,0.74l0.9,0.62l0.97,0.65
	l0.95,0.6l0.95,0.57c0.34,0.2,0.67,0.39,1.01,0.58l0.94,0.51l1.07,0.56l0.89,0.43c0.39,0.18,0.77,0.37,1.16,0.53l0.39,0.16
	c0.98,0.43,1.97,0.82,2.98,1.18l0.63,0.24c0.45,0.16,0.91,0.3,1.36,0.44l0.75,0.24l1.37,0.38l0.77,0.2l1.4,0.32l0.75,0.16
	c0.48,0.1,0.97,0.2,1.45,0.27l0.68,0.11c0.52,0.08,1.02,0.16,1.54,0.23l0.5,0.06c2.6,0.3,5.23,0.4,7.84,0.29h0.29
	c0.57,0,1.16-0.07,1.74-0.12h0.5c0.55-0.05,1.11-0.11,1.64-0.19l0.56-0.07c0.55-0.08,1.11-0.16,1.64-0.26l0.52-0.1
	c0.57-0.11,1.13-0.22,1.7-0.34h0.15l0.58-0.14c0.48-0.11,0.94-0.23,1.41-0.35l0.2-0.05l0,0c26.51-7.23,42.14-34.59,34.91-61.1
	c-0.84-3.09-1.98-6.09-3.4-8.96 M136.43,95.26l-10.65,20.7l0,0L84.47,196.1c-7.09,13.91-24.1,19.45-38.01,12.38
	c-13.3-7.15-18.43-23.63-11.53-37.06l34.33-66.62l0,0l20.98-40.7c6.57-13.06,22.05-18.92,35.62-13.48
	c5.45,2.28,10.02,6.25,13.02,11.34l0,0l7.49,13.07c0.47,0.82,0.47,1.82,0,2.64L136.43,95.26z M285.96,185.6
	c-0.03,0.89-0.11,1.77-0.24,2.66c-0.72,5.32-2.98,10.32-6.48,14.39c-0.58,0.68-1.2,1.34-1.86,1.96
	c-11.03,10.5-28.48,10.08-38.98-0.94c-1.94-2.04-3.56-4.36-4.79-6.88l-12.9-26.13h-0.11l0,0l0.08-0.08l-20.23-40.98l0,0l-20.6-41.7
	c-0.42-0.84-0.79-1.7-1.11-2.57c-0.13-0.28-0.25-0.56-0.39-0.82c0-0.07-0.04-0.16-0.07-0.23h-0.07l-4.86-9.47
	c-0.42-0.78-0.42-1.72,0-2.5c2.6-4.73,5.66-9.2,9.13-13.33c2.1-2.78,4.71-5.14,7.7-6.95c0.68-0.43,1.38-0.82,2.1-1.16
	c13.71-6.74,30.28-1.12,37.06,12.56l13.55,27.39l0,0l40.23,81.5l0,0c2.04,4.12,3.02,8.7,2.84,13.29"/>
</svg>
