<svg xmlns="http://www.w3.org/2000/svg" width="18.256" height="18.256" viewBox="0 0 18.256 18.256">
  <path id="Icon_material-language" data-name="Icon material-language" d="M12.119,3a9.128,9.128,0,1,0,9.137,9.128A9.123,9.123,0,0,0,12.119,3Zm6.326,5.477H15.752a14.284,14.284,0,0,0-1.26-3.25A7.329,7.329,0,0,1,18.444,8.477ZM12.128,4.862a12.858,12.858,0,0,1,1.743,3.615H10.384A12.858,12.858,0,0,1,12.128,4.862ZM5.063,13.954a7.14,7.14,0,0,1,0-3.651H8.148a15.075,15.075,0,0,0-.128,1.826,15.075,15.075,0,0,0,.128,1.826Zm.748,1.826H8.5a14.284,14.284,0,0,0,1.26,3.25A7.29,7.29,0,0,1,5.811,15.779ZM8.5,8.477H5.811a7.29,7.29,0,0,1,3.952-3.25A14.284,14.284,0,0,0,8.5,8.477Zm3.624,10.917a12.858,12.858,0,0,1-1.743-3.615h3.487A12.858,12.858,0,0,1,12.128,19.394Zm2.136-5.44H9.992a13.43,13.43,0,0,1-.146-1.826A13.313,13.313,0,0,1,9.992,10.3h4.272a13.313,13.313,0,0,1,.146,1.826A13.43,13.43,0,0,1,14.264,13.954Zm.228,5.075a14.284,14.284,0,0,0,1.26-3.25h2.693a7.329,7.329,0,0,1-3.952,3.25Zm1.616-5.075a15.075,15.075,0,0,0,.128-1.826,15.075,15.075,0,0,0-.128-1.826h3.085a7.14,7.14,0,0,1,0,3.651Z" transform="translate(-3 -3)"/>
</svg>
