<svg xmlns="http://www.w3.org/2000/svg" width="16.977" height="18.286" viewBox="0 0 16.977 18.286">
  <g id="Group_2121" data-name="Group 2121" transform="translate(7.996 -2389.714) rotate(180)">
    <path id="Path_6729" data-name="Path 6729" d="M-.53-2408a.7.7,0,0,1,.4.833c-.123.4-.461.444-.817.443-1.448,0-2.9.037-4.345-.011a2.32,2.32,0,0,0-2.419,2.4c.054,3.6.064,7.2,0,10.8a2.364,2.364,0,0,0,2.589,2.56c1.391-.071,2.788-.019,4.182-.013.557,0,.883.347.729.8-.062.182-.262.317-.4.474H-5.975a.358.358,0,0,0-.1-.061,3.456,3.456,0,0,1-2.9-3.525c-.005-3.732-.012-7.465,0-11.2a3.349,3.349,0,0,1,1.939-3.132A7.685,7.685,0,0,1-5.975-2408Z" fill="#fff"/>
    <path id="Path_6730" data-name="Path 6730" d="M49.018-2343.789H38.955a2.394,2.394,0,0,1-.365-.008.579.579,0,0,1-.532-.612.578.578,0,0,1,.528-.615,2.386,2.386,0,0,1,.406-.01H49.015c-.148-.161-.232-.259-.323-.35q-1.09-1.094-2.182-2.185a.662.662,0,0,1-.1-.968.652.652,0,0,1,1,.073q1.757,1.748,3.507,3.5a.655.655,0,0,1,.013,1.083q-1.749,1.756-3.506,3.5a.658.658,0,0,1-.97.084c-.288-.279-.263-.647.081-.994.716-.721,1.437-1.436,2.155-2.155C48.784-2343.528,48.868-2343.626,49.018-2343.789Z" transform="translate(46.055 -4743.295) rotate(180)" fill="#fff"/>
  </g>
</svg>
