<svg xmlns="http://www.w3.org/2000/svg" width="229.012" height="129.449" viewBox="0 0 229.012 129.449">
  <g id="Group_298" data-name="Group 298" transform="translate(-501.584 -53.237)">
    <path id="Path_216" data-name="Path 216" d="M579.2,89.653a7.65,7.65,0,0,1,5.861,2.547,9.987,9.987,0,0,1,2.64,6.184l.1,47.642a8.479,8.479,0,0,1-2.275,6.062,9.014,9.014,0,0,1-6.184,2.7,8.6,8.6,0,0,1-5.928-2.139,9.515,9.515,0,0,1-2.972-6.05l-.107-48.719a8.322,8.322,0,0,1,2.81-5.792A9.374,9.374,0,0,1,579.2,89.653Z" transform="translate(-2.827 -1.497)" fill="#fff"/>
    <g id="Group_169" data-name="Group 169" transform="translate(501.584 53.237)">
      <path id="Path_217" data-name="Path 217" d="M534.213,89.335a31.158,31.158,0,0,1,22.9,9.367,8.054,8.054,0,0,1,2.1,6.051,8.308,8.308,0,0,1-2.61,5.791,9.145,9.145,0,0,1-6.188,2.438,7.735,7.735,0,0,1-6.2-2.41,14.364,14.364,0,0,0-9.968-3.742,13.746,13.746,0,0,0-5.852,1.289,16.688,16.688,0,0,0-4.834,3.376,15.818,15.818,0,0,0-3.285,4.784,13.563,13.563,0,0,0-1.2,5.655,14.363,14.363,0,0,0,1.225,5.852,15.1,15.1,0,0,0,3.375,4.837,16.709,16.709,0,0,0,4.852,3.286,12.538,12.538,0,0,0,5.788,1.064,14.361,14.361,0,0,0,9.953-3.654,8.465,8.465,0,0,1,12.382-.03,7.691,7.691,0,0,1,1.889,2.553,8.369,8.369,0,0,1,.745,3.093,8.461,8.461,0,0,1-.466,3.166,8.143,8.143,0,0,1-1.606,2.762,33.027,33.027,0,0,1-10.345,7.156,31.464,31.464,0,0,1-12.511,2.45,30.868,30.868,0,0,1-12.656-2.6,33.74,33.74,0,0,1-17.47-17.385,30.883,30.883,0,0,1-.056-24.9,33.423,33.423,0,0,1,7.11-10.378A35.872,35.872,0,0,1,521.7,92.052,29.877,29.877,0,0,1,534.213,89.335Z" transform="translate(-501.584 -54.721)" fill="#fff"/>
      <path id="Path_218" data-name="Path 218" d="M579.158,53.237A11.784,11.784,0,0,1,588.02,57.1a12.967,12.967,0,0,1,.043,18.1,11.768,11.768,0,0,1-8.846,3.9,13.893,13.893,0,0,1-9.457-3.662q-3.691-3.465-3.7-9.839a12.128,12.128,0,0,1,4.057-8.759A12.933,12.933,0,0,1,579.158,53.237Z" transform="translate(-504.235 -53.237)" fill="#ff800a"/>
      <path id="Path_219" data-name="Path 219" d="M634.348,178.74l-4.306.009a9.226,9.226,0,0,0-5.914,2.843,8.984,8.984,0,0,1-6.388,2.57,8.728,8.728,0,0,1-6.4-2.677,8.485,8.485,0,0,1-2.773-5.846,7.931,7.931,0,0,1,2.072-5.995q4.024-5.125,11.827-7.429A28.7,28.7,0,0,1,630,160.986l9.962-.02a4.837,4.837,0,0,0,3.224-1.759q2.947-4.443,2-8.212v-.134a27.909,27.909,0,0,1-6.117,2.433,35.36,35.36,0,0,1-9.083.964,34.617,34.617,0,0,1-13.125-2.392A30.008,30.008,0,0,1,599.8,134.878a34.628,34.628,0,0,1-2.453-13.116,29.878,29.878,0,0,1,2.663-12.522,34.44,34.44,0,0,1,7.176-10.378,35.08,35.08,0,0,1,10.348-7.086,29.773,29.773,0,0,1,12.307-2.654A31.628,31.628,0,0,1,642.5,91.651a33.027,33.027,0,0,1,10.378,6.976,32.282,32.282,0,0,1,9.472,22.99,32.553,32.553,0,0,1-3.867,16.157q3.915,5.243,3.94,17.082a21.54,21.54,0,0,1-1.662,8.553,24.34,24.34,0,0,1-4.825,7.88,23.247,23.247,0,0,1-7.191,5.2,24.3,24.3,0,0,1-9.01,2.241l-4.575.009Zm-4.469-72.122a13,13,0,0,0-5.649,1.293,17.085,17.085,0,0,0-8.123,8.16,12.991,12.991,0,0,0-1.266,5.654A14.776,14.776,0,0,0,616,127.44a15.394,15.394,0,0,0,3.175,4.84,15.749,15.749,0,0,0,4.787,3.352,13.993,13.993,0,0,0,5.986,1.264A15.183,15.183,0,0,0,636,135.673a14.193,14.193,0,0,0,4.836-3.376,16.332,16.332,0,0,0,3.152-4.851,14.656,14.656,0,0,0,1.133-5.788,13.81,13.81,0,0,0-1.293-5.853,15.931,15.931,0,0,0-3.372-4.77,16.384,16.384,0,0,0-4.855-3.218A14.066,14.066,0,0,0,629.879,106.618Z" transform="translate(-505.522 -54.712)" fill="#fff"/>
      <path id="Path_220" data-name="Path 220" d="M708.691,89.08a31.476,31.476,0,0,1,11.381,3.474,32.124,32.124,0,0,1,9.164,7.18,34.067,34.067,0,0,1,6.079,9.947,31.53,31.53,0,0,1,2.247,11.768l.053,23.82a8.211,8.211,0,0,1-2.677,6.2,8.62,8.62,0,0,1-13.6-1.717,7.545,7.545,0,0,0-1.208.608c-.361.227-.722.428-1.077.606a35.766,35.766,0,0,1-6.589,2.307,32.937,32.937,0,0,1-7.4.821,31.094,31.094,0,0,1-18.045-5.41,33.576,33.576,0,0,1-11.874-14.035,35.7,35.7,0,0,1-2.1-6.321,31.01,31.01,0,0,1-.03-13.457,35.636,35.636,0,0,1,2.072-6.332A33,33,0,0,1,686.9,94.379a31.394,31.394,0,0,1,18.022-5.424c.719,0,1.368,0,1.953,0A13.21,13.21,0,0,1,708.691,89.08Zm-3.8,47.514a15.161,15.161,0,0,0,5.855-1.155,14.552,14.552,0,0,0,4.768-3.175,15.376,15.376,0,0,0,3.218-4.781,14.671,14.671,0,0,0,1.2-5.992,14.071,14.071,0,0,0-1.226-5.719,15.668,15.668,0,0,0-8.16-8.122,14.053,14.053,0,0,0-5.722-1.2,13.581,13.581,0,0,0-5.649,1.225,15.928,15.928,0,0,0-4.769,3.306,15.769,15.769,0,0,0-3.288,4.851,14.115,14.115,0,0,0-1.2,5.725,13.759,13.759,0,0,0,1.289,5.852,15.874,15.874,0,0,0,3.375,4.767,16.61,16.61,0,0,0,4.785,3.222A13.3,13.3,0,0,0,704.893,136.594Z" transform="translate(-508.603 -54.705)" fill="#fff"/>
    </g>
  </g>
</svg>
