<svg xmlns="http://www.w3.org/2000/svg" width="85.172" height="14.901" viewBox="0 0 85.172 14.901">
  <g id="Group_2" data-name="Group 2" transform="translate(-394.828 -280.49)">
    <g id="Group_1" data-name="Group 1" transform="translate(368 -425)">
      <path id="Path_7047" data-name="Path 7047" d="M107.7,21.563h2.534V15.887a6.119,6.119,0,0,0-10.888-3.835l-.093.115-.092-.115a6.119,6.119,0,0,0-10.888,3.835v5.676h2.534V15.887a3.587,3.587,0,0,1,7.174,0v5.676h2.545V15.887a3.587,3.587,0,0,1,7.173,0Z" transform="translate(-61.446 698.827)" fill="#0c5eed"/>
      <path id="Path_7048" data-name="Path 7048" d="M257.985,21.451V15.726a3.587,3.587,0,1,0-7.173,0,3.178,3.178,0,0,0,3.174,3.174h2.285v2.534h-2.285a5.715,5.715,0,0,1-5.708-5.709A6.118,6.118,0,0,1,257.8,10.64l.185.124V9.589h2.534V21.451Z" transform="translate(-162.576 698.939)" fill="#0c5eed"/>
      <path id="Path_7049" data-name="Path 7049" d="M193.385,21.66V16.592a5.984,5.984,0,0,1,.637-2.688,6.742,6.742,0,0,1,1.69-2.135,8.089,8.089,0,0,1,4.443-1.85v2.557c-2.46.359-4.235,2.077-4.235,4.116V21.66Z" transform="translate(-127.882 698.731)" fill="#0c5eed"/>
      <path id="Path_7050" data-name="Path 7050" d="M163.543,21.454V15.729a3.587,3.587,0,0,0-7.174,0,3.178,3.178,0,0,0,3.174,3.174h2.285v2.534h-2.285a5.715,5.715,0,0,1-5.708-5.709,6.118,6.118,0,0,1,9.523-5.086l.185.124V9.594l2.534.037V21.454Z" transform="translate(-102.884 698.936)" fill="#0c5eed"/>
      <path id="Path_7051" data-name="Path 7051" d="M296.189,21.451V15.726a3.587,3.587,0,0,0-7.174,0,3.178,3.178,0,0,0,3.174,3.174h2.285v2.534h-2.285a5.715,5.715,0,0,1-5.708-5.709A6.118,6.118,0,0,1,296,10.64l.185.124V9.589h2.534V21.451Z" transform="translate(-186.723 698.939)" fill="#0c5eed"/>
      <path id="Path_7052" data-name="Path 7052" d="M226.173,16.232l-2.813-6.026-2.492,2.635v3.348h-2.534V1.331h2.545l-.011,2.992V9.152l4.555-4.814h3.488l-3.679,3.888,3.737,8.006Z" transform="translate(-143.65 704.159)" fill="#0c5eed"/>
    </g>
  </g>
</svg>
