<svg xmlns="http://www.w3.org/2000/svg" width="28.398" height="19.843" viewBox="0 0 28.398 19.843">
  <g id="Group_3706" data-name="Group 3706" transform="translate(-31 -346.568)">
    <path id="Path_6781" data-name="Path 6781" d="M27.909,13.006l-3.157-6.4-.673-1.363L22.792,2.64a4.737,4.737,0,0,0-8.442-.109c.008-.036-.008,0-.075.144a4.737,4.737,0,0,0-8.456-.064L4.488,5.2l-.7,1.352L.525,12.889A4.74,4.74,0,0,0,8.953,17.23l3.266-6.34.7-1.352,1.331-2.584c.018-.034.034-.07.051-.105l1.28,2.595.673,1.363,3.157,6.4c.035.069.07.137.107.2.012.023.025.044.038.066.025.044.051.088.077.131l.048.074c.025.039.05.077.076.115l.053.076c.026.036.052.072.079.107l.057.074c.027.035.055.068.083.1l.059.07c.03.034.061.067.091.1l.058.063c.036.038.074.074.112.111l.044.044q.078.074.159.143l.062.052c.035.029.069.058.105.086l.077.059.1.071.086.059.092.062.091.057.091.055.1.055.089.048.1.053.084.041.11.051.037.016q.14.061.283.112l.06.022c.043.015.086.028.13.042l.072.023.13.036.073.02.133.031.071.015c.046.009.092.018.138.026l.064.01c.049.008.1.015.147.021l.048.006a4.75,4.75,0,0,0,.747.028h.028c.055,0,.11-.007.165-.012l.048,0,.158-.018.053-.007.158-.025.05-.009c.054-.01.108-.021.161-.033l.014,0,.056-.013.134-.033.019,0h0a4.736,4.736,0,0,0,3-6.669M12.059,6.6,11.044,8.574h0L7.113,16.2a2.693,2.693,0,0,1-3.618,1.178,2.638,2.638,0,0,1-1.1-3.528L5.663,7.512h0l2-3.875a2.68,2.68,0,0,1,3.391-1.283,2.612,2.612,0,0,1,1.24,1.081V3.429L13,4.673a.253.253,0,0,1,0,.251ZM26.29,15.2a2.521,2.521,0,0,1-.022.253,2.645,2.645,0,0,1-.617,1.37q-.083.1-.177.187a2.625,2.625,0,0,1-4.167-.745L20.079,13.78l-.011,0v0l.008-.008-1.925-3.9h0L16.191,5.9a2.584,2.584,0,0,1-.106-.245c-.013-.026-.024-.053-.036-.08,0-.007,0-.015-.007-.021l-.007,0-.463-.9a.253.253,0,0,1,0-.238,7.92,7.92,0,0,1,.869-1.269,2.614,2.614,0,0,1,.733-.662,1.873,1.873,0,0,1,.2-.11,2.638,2.638,0,0,1,3.528,1.2l1.287,2.606h0l3.83,7.759h0a2.619,2.619,0,0,1,.27,1.266" transform="translate(31 346.568)" fill="#f7941d"/>
  </g>
</svg>
