<svg xmlns="http://www.w3.org/2000/svg" xmlns:xlink="http://www.w3.org/1999/xlink" width="360.995" height="164.831" viewBox="0 0 360.995 164.831">
  <defs>
    <clipPath id="clip-path">
      <rect id="Rectangle_4" data-name="Rectangle 4" width="360.995" height="164.831" fill="none"/>
    </clipPath>
  </defs>
  <g id="Group_7" data-name="Group 7" clip-path="url(#clip-path)">
    <path id="Path_16" data-name="Path 16" d="M107.729,512.691h10.748V488.64a25.931,25.931,0,0,0-46.142-16.262l-.392.494-.392-.494A25.936,25.936,0,0,0,25.4,488.627v24.051H36.144V488.627a15.2,15.2,0,1,1,30.4,0v24.051H77.33V488.627a15.206,15.206,0,0,1,30.412,0Z" transform="translate(-25.396 -347.86)" fill="#fff"/>
    <path id="Path_17" data-name="Path 17" d="M597.43,512.379V488.112a15.2,15.2,0,0,0-30.4,0,13.482,13.482,0,0,0,13.455,13.455h9.686v10.748h-9.686a24.215,24.215,0,0,1-24.19-24.19,25.93,25.93,0,0,1,40.363-21.56l.784.531v-5h10.736v50.278Z" transform="translate(-306.754 -347.548)" fill="#fff"/>
    <path id="Path_18" data-name="Path 18" d="M374.137,512.964V491.479a25.305,25.305,0,0,1,2.706-11.393A28.459,28.459,0,0,1,384,471.045a34.286,34.286,0,0,1,18.829-7.84v10.837c-10.432,1.517-17.956,8.8-17.956,17.438v21.472H374.137Z" transform="translate(-210.217 -348.133)" fill="#fff"/>
    <path id="Path_19" data-name="Path 19" d="M284.067,512.407V488.141a15.2,15.2,0,1,0-30.4,0A13.481,13.481,0,0,0,267.122,501.6h9.686v10.748h-9.686a24.215,24.215,0,0,1-24.19-24.19,25.93,25.93,0,0,1,40.364-21.56l.784.531v-4.97l10.748.152v50.113Z" transform="translate(-140.683 -347.576)" fill="#fff"/>
    <path id="Path_20" data-name="Path 20" d="M724.2,512.379V488.112a15.2,15.2,0,1,0-30.4,0,13.481,13.481,0,0,0,13.454,13.455h9.686v10.748h-9.686a24.218,24.218,0,0,1-24.19-24.2,25.931,25.931,0,0,1,40.364-21.56l.784.531V462.1h10.736v50.278Z" transform="translate(-373.936 -347.548)" fill="#fff"/>
    <path id="Path_21" data-name="Path 21" d="M490.134,497.85l-11.924-25.544-10.572,11.166v14.188H456.889V434.687h10.787l-.051,12.683v20.472l19.309-20.409h14.783l-15.591,16.477,15.844,33.927H490.134Z" transform="translate(-254.073 -333.019)" fill="#fff"/>
    <path id="Path_22" data-name="Path 22" d="M400.048,271.279,387.2,245.268l-2.732-5.539-5.235-10.6a19.262,19.262,0,0,0-34.332-.443c.038-.152-.038-.013-.3.582a19.269,19.269,0,0,0-34.4-.253l-5.412,10.508-2.832,5.5-13.29,25.783a19.274,19.274,0,1,0,34.268,17.653l13.29-25.784,2.832-5.5,5.412-10.508c.076-.139.139-.291.2-.43l5.21,10.559,2.744,5.538,12.835,26.012c.139.278.291.556.43.822l.152.266c.1.177.2.354.316.531.063.1.126.2.189.3.1.151.2.316.3.468.076.1.139.2.215.3.1.152.215.29.316.43l.228.3.341.417c.076.089.165.189.24.278.127.139.241.278.367.4a2.308,2.308,0,0,0,.24.253l.455.455a2.327,2.327,0,0,0,.177.177c.215.2.43.392.645.582l.253.215c.139.114.278.24.43.354.1.076.215.164.316.24.126.1.253.19.392.291s.228.165.341.24.253.165.379.253.241.152.367.228.253.152.367.228.253.151.392.227.24.126.367.189.278.152.417.215c.114.05.228.114.342.165.152.076.291.139.442.215l.152.063c.379.165.759.316,1.151.455.076.025.165.063.24.089.177.063.354.113.531.164l.291.089.531.151.3.076c.177.05.367.088.544.126l.29.063c.19.038.38.076.569.1l.266.038c.2.025.392.063.595.089.063.013.126.013.189.025a20.294,20.294,0,0,0,3.035.114h.114c.227-.013.442-.026.67-.051.063,0,.126-.013.189-.013l.645-.076.215-.026c.215-.025.43-.063.645-.1l.2-.038c.215-.038.442-.088.658-.126l.051-.013c.076-.013.151-.038.227-.051.177-.038.367-.088.543-.139l.077-.012a19.273,19.273,0,0,0,13.517-23.659,20.122,20.122,0,0,0-1.315-3.465m-64.428-26.037-4.122,8.017-15.984,31.031a10.94,10.94,0,0,1-14.719,4.78,10.722,10.722,0,0,1-4.464-14.34l13.29-25.783,8.118-15.756a10.9,10.9,0,0,1,13.783-5.223,10.624,10.624,0,0,1,5.046,4.4v-.025l2.9,5.058a1.053,1.053,0,0,1,0,1.024Zm57.877,34.977a9.394,9.394,0,0,1-.088,1.024,10.8,10.8,0,0,1-2.5,5.576,10.281,10.281,0,0,1-.721.759,10.675,10.675,0,0,1-16.945-3.035l-4.995-10.116h-.05l.025-.038-7.828-15.857-7.966-16.148a9.868,9.868,0,0,1-.43-1c-.05-.1-.1-.215-.152-.329-.013-.025-.013-.063-.025-.088l-.025.013-1.884-3.667a1.059,1.059,0,0,1,.013-.974,31.343,31.343,0,0,1,3.541-5.159,10.8,10.8,0,0,1,2.971-2.693,7.2,7.2,0,0,1,.81-.443,10.738,10.738,0,0,1,14.352,4.869l5.235,10.6,15.579,31.563a10.641,10.641,0,0,1,1.088,5.146" transform="translate(-163.784 -218.384)" fill="#f58020"/>
  </g>
</svg>
