<svg xmlns="http://www.w3.org/2000/svg" width="53.15" height="41.243" viewBox="0 0 53.15 41.243">
  <g id="Group_2296" data-name="Group 2296" transform="translate(-205 -206.5)">
    <g id="layer1" transform="translate(205 206.5)">
      <g id="g13" transform="translate(0 0)">
        <g id="g15" transform="translate(2.692 35.038)">
          <path id="Path_6853" data-name="Path 6853" d="M57.624,665.346v-2.737a1.606,1.606,0,0,0-1.734-1.734,1.8,1.8,0,0,0-1.551.776,1.6,1.6,0,0,0-1.46-.776,1.473,1.473,0,0,0-1.277.639v-.547h-.958v4.38H51.6v-2.418c0-.776.411-1.141,1.049-1.141s.958.411.958,1.141v2.418h.958v-2.418a1.009,1.009,0,0,1,1.049-1.141c.639,0,.958.411.958,1.141v2.418Zm14.189-4.38H70.262v-1.323H69.3v1.323h-.867v.867H69.3v2.007c0,1,.411,1.6,1.506,1.6A2.551,2.551,0,0,0,72,665.118l-.274-.821a1.5,1.5,0,0,1-.821.228c-.456,0-.639-.274-.639-.73v-1.962h1.551Zm8.121-.091a1.286,1.286,0,0,0-1.141.639v-.547h-.958v4.38h.958v-2.464c0-.73.319-1.141.912-1.141a2.668,2.668,0,0,1,.593.091l.274-.912a3.006,3.006,0,0,0-.639-.046Zm-12.272.456a3.131,3.131,0,0,0-1.779-.456c-1.095,0-1.825.547-1.825,1.414,0,.73.547,1.141,1.506,1.277l.456.046c.5.091.776.228.776.456,0,.319-.365.547-1,.547a2.519,2.519,0,0,1-1.46-.456l-.456.73a3.226,3.226,0,0,0,1.871.547c1.277,0,2.007-.593,2.007-1.414,0-.776-.593-1.186-1.506-1.323l-.456-.046c-.411-.046-.73-.137-.73-.411,0-.319.319-.5.821-.5a3.289,3.289,0,0,1,1.369.365l.411-.776Zm25.457-.456a1.286,1.286,0,0,0-1.141.639v-.547H91.02v4.38h.958v-2.464c0-.73.319-1.141.912-1.141a2.668,2.668,0,0,1,.593.091l.274-.912a3.006,3.006,0,0,0-.639-.046Zm-12.227,2.281a2.191,2.191,0,0,0,2.327,2.281,2.27,2.27,0,0,0,1.551-.5l-.456-.776a1.843,1.843,0,0,1-1.141.411,1.3,1.3,0,0,1-1.323-1.414,1.346,1.346,0,0,1,1.323-1.414,1.844,1.844,0,0,1,1.141.411l.456-.776a2.27,2.27,0,0,0-1.551-.5,2.191,2.191,0,0,0-2.327,2.281Zm8.851,0v-2.19h-.958v.547a1.648,1.648,0,0,0-1.369-.639,2.283,2.283,0,0,0,0,4.562,1.535,1.535,0,0,0,1.369-.639v.547h.958v-2.19Zm-3.513,0a1.326,1.326,0,1,1,2.646,0,1.326,1.326,0,1,1-2.646,0Zm-11.451-2.281a2.282,2.282,0,0,0,.046,4.562,2.79,2.79,0,0,0,1.779-.593l-.456-.684a2.18,2.18,0,0,1-1.277.456,1.231,1.231,0,0,1-1.323-1.049h3.239V663.2a2.015,2.015,0,0,0-2.007-2.327h0Zm0,.821a1.067,1.067,0,0,1,1.095,1.049H73.592a1.155,1.155,0,0,1,1.186-1.049Zm23.769,1.46v-3.923h-.958v2.281a1.648,1.648,0,0,0-1.369-.639,2.283,2.283,0,0,0,0,4.562,1.536,1.536,0,0,0,1.369-.639v.547h.958v-2.19Zm-3.513,0a1.326,1.326,0,1,1,2.646,0,1.326,1.326,0,1,1-2.646,0Zm-32.027,0v-2.19H62.05v.547a1.648,1.648,0,0,0-1.369-.639,2.283,2.283,0,0,0,0,4.562,1.536,1.536,0,0,0,1.369-.639v.547h.958v-2.19Zm-3.559,0a1.326,1.326,0,1,1,2.646,0,1.326,1.326,0,1,1-2.646,0Z" transform="translate(-50.644 -659.233)"/>
        </g>
        <g id="Group_2295" data-name="Group 2295">
          <rect id="rect19" width="14.371" height="25.822" transform="translate(19.389 3.513)" fill="#ff5f00"/>
          <path id="Path_6854" data-name="Path 6854" d="M20.3,16.424a16.468,16.468,0,0,1,6.25-12.911A16.418,16.418,0,1,0,16.424,32.848a16.323,16.323,0,0,0,10.128-3.513A16.4,16.4,0,0,1,20.3,16.424Z" transform="translate(0 0)" fill="#eb001b"/>
          <path id="path22" d="M526.985,16.424a16.407,16.407,0,0,1-26.552,12.911,16.46,16.46,0,0,0,0-25.822,16.407,16.407,0,0,1,26.552,12.911Z" transform="translate(-473.835 0)" fill="#f79e1b"/>
        </g>
      </g>
    </g>
  </g>
</svg>
