<svg xmlns="http://www.w3.org/2000/svg" width="26.501" height="23.293" viewBox="0 0 26.501 23.293">
  <g id="Group_3711" data-name="Group 3711" transform="translate(-36 -505)">
    <g id="Group_3699" data-name="Group 3699" transform="translate(-3.499 -7.484)">
      <path id="Icon_awesome-rocketchat" data-name="Icon awesome-rocketchat" d="M22.379,5.019A17.161,17.161,0,0,0,10.227,2.853,8.788,8.788,0,0,0,0,1.134s3.362,2.857,2.816,5.36c-3.981,4.058-2.088,8.576,0,10.709C3.362,19.7,0,22.562,0,22.562a8.807,8.807,0,0,0,10.227-1.7,17.182,17.182,0,0,0,12.152-2.17c5.487-3.5,5.5-10.15,0-13.671ZM13.535,18.667a15.621,15.621,0,0,1-4.054-.523l-.91.878a8.269,8.269,0,0,1-1.683,1.26,6.586,6.586,0,0,1-2.379.678c.046-.082.086-.164.127-.241a5.806,5.806,0,0,0,.736-4.541A5.588,5.588,0,0,1,2.98,11.848c0-3.773,4.727-6.829,10.555-6.829S24.09,8.075,24.09,11.848,19.363,18.667,13.535,18.667Zm-5.064-5.2a1.576,1.576,0,1,1,1.551-1.6v.023a1.564,1.564,0,0,1-1.551,1.579Zm3.394-1.551a1.577,1.577,0,0,1,3.153-.055v.028A1.577,1.577,0,0,1,11.865,11.921Zm6.6,1.551a1.577,1.577,0,1,1,1.551-1.6v.023a1.559,1.559,0,0,1-1.551,1.579Z" transform="translate(39.499 512.283)" fill="#0c5eed"/>
      <path id="Icon_awesome-rocketchat-2" data-name="Icon awesome-rocketchat" d="M8.471,13.472a1.576,1.576,0,1,1,1.551-1.6v.023a1.564,1.564,0,0,1-1.551,1.579Zm3.394-1.551a1.577,1.577,0,0,1,3.153-.055v.028A1.577,1.577,0,0,1,11.865,11.921Zm6.6,1.551a1.577,1.577,0,1,1,1.551-1.6v.023a1.559,1.559,0,0,1-1.551,1.579Z" transform="translate(39.499 512.23)" fill="#f7941d"/>
    </g>
  </g>
</svg>
