<svg xmlns="http://www.w3.org/2000/svg" width="20.005" height="17.583" viewBox="0 0 20.005 17.583">
  <path id="Icon_awesome-rocketchat" data-name="Icon awesome-rocketchat" d="M16.893,3.838A12.955,12.955,0,0,0,7.72,2.2,6.634,6.634,0,0,0,0,.905S2.538,3.062,2.126,4.951a5.555,5.555,0,0,0,0,8.084C2.538,14.924,0,17.081,0,17.081A6.648,6.648,0,0,0,7.72,15.8a12.97,12.97,0,0,0,9.173-1.638c4.142-2.644,4.155-7.662,0-10.32Zm-6.676,10.3a11.792,11.792,0,0,1-3.06-.395l-.687.663A6.242,6.242,0,0,1,5.2,15.36a4.971,4.971,0,0,1-1.8.512c.035-.062.065-.124.1-.182a4.383,4.383,0,0,0,.556-3.428A4.218,4.218,0,0,1,2.249,8.993c0-2.848,3.568-5.155,7.967-5.155s7.967,2.307,7.967,5.155S14.616,14.141,10.217,14.141ZM6.395,10.219A1.19,1.19,0,1,1,7.566,9.01v.018A1.181,1.181,0,0,1,6.395,10.22ZM8.957,9.048a1.19,1.19,0,0,1,2.38-.041v.021A1.19,1.19,0,0,1,8.957,9.048Zm4.98,1.171A1.19,1.19,0,1,1,15.107,9.01v.018a1.177,1.177,0,0,1-1.171,1.192Z" transform="translate(0 -0.202)"/>
</svg>
