<svg xmlns="http://www.w3.org/2000/svg" width="21.561" height="21.54" viewBox="0 0 21.561 21.54">
  <g id="Group_443" data-name="Group 443" transform="translate(-1771.501 363.184)">
    <path id="Path_255" data-name="Path 255" d="M1778.525-342.843c-.267,0-.535.012-.8,0a1.791,1.791,0,0,1-1.483-.891c-.249-.4-.446-.824-.714-1.2a3.06,3.06,0,0,0-.692-.7,10.311,10.311,0,0,0-1.083-.64,1.952,1.952,0,0,1-1.056-1.8c0-.411-.008-.822.005-1.232a1.745,1.745,0,0,0-.266-1.006c-.216-.348-.412-.709-.618-1.063a1.786,1.786,0,0,1,0-2.028,4.865,4.865,0,0,0,.9-3.335,1.845,1.845,0,0,1,1.041-1.8c1.86-1.086,1.3-.532,2.378-2.372a1.993,1.993,0,0,1,1.881-1.072,11.8,11.8,0,0,0,1.26-.008,2.51,2.51,0,0,0,.839-.226c.412-.2.8-.451,1.194-.677a1.856,1.856,0,0,1,1.933-.011c.4.223.781.482,1.194.675a2.721,2.721,0,0,0,.892.238c.436.039.878,0,1.317.009a1.915,1.915,0,0,1,1.745,1,12.539,12.539,0,0,0,.654,1.107,3.238,3.238,0,0,0,.713.714c.354.255.754.446,1.132.669a1.907,1.907,0,0,1,.979,1.731c0,.449-.028.9.011,1.346a2.618,2.618,0,0,0,.236.864c.18.388.42.748.636,1.118a1.8,1.8,0,0,1,0,2.03,4.886,4.886,0,0,0-.9,3.336,1.807,1.807,0,0,1-1.016,1.789c-.39.221-.791.427-1.159.68a2.382,2.382,0,0,0-.6.594c-.243.351-.44.736-.648,1.111a1.933,1.933,0,0,1-1.822,1.07c-.42,0-.84,0-1.26,0a1.713,1.713,0,0,0-.951.257c-.365.225-.741.432-1.114.645a1.913,1.913,0,0,1-2.036-.012c-.165-.1-.338-.18-.493-.29A2.966,2.966,0,0,0,1778.525-342.843Zm.183-18.58c-.239,0-.478,0-.716,0a1.44,1.44,0,0,0-1.359.782c-1.119,1.931-.656,1.463-2.6,2.592a1.372,1.372,0,0,0-.751,1.285c.006.43,0,.86,0,1.29a2.287,2.287,0,0,1-.329,1.227c-.222.367-.43.743-.647,1.113a1.348,1.348,0,0,0,.006,1.463c.228.386.47.766.665,1.168a2.716,2.716,0,0,1,.28.888,13.393,13.393,0,0,1,.023,1.517,1.378,1.378,0,0,0,.769,1.332c.368.2.725.423,1.093.625a2.163,2.163,0,0,1,.86.857c.23.407.46.814.7,1.214a1.258,1.258,0,0,0,1.134.653c.458,0,.917.005,1.375,0a2.261,2.261,0,0,1,1.2.32c.376.226.761.437,1.139.658a1.351,1.351,0,0,0,1.463,0c.37-.218.747-.423,1.113-.646a2.305,2.305,0,0,1,1.254-.333c.41,0,.822-.009,1.232,0a1.372,1.372,0,0,0,1.309-.757c1.13-1.936.647-1.465,2.6-2.595a1.407,1.407,0,0,0,.768-1.308c0-.42.006-.841,0-1.261a2.247,2.247,0,0,1,.336-1.252c.224-.366.433-.741.646-1.114a1.333,1.333,0,0,0,.016-1.388c-.208-.375-.415-.752-.642-1.116a2.337,2.337,0,0,1-.356-1.333c.01-.391-.007-.783,0-1.175a1.392,1.392,0,0,0-.782-1.355c-.37-.2-.726-.421-1.092-.626a2.187,2.187,0,0,1-.872-.884c-.2-.369-.421-.726-.624-1.093a1.39,1.39,0,0,0-1.316-.754c-.43,0-.86-.005-1.289.005a2.155,2.155,0,0,1-1.17-.317c-.4-.237-.8-.476-1.215-.7a1.285,1.285,0,0,0-1.286,0,8.189,8.189,0,0,0-.718.415A3.029,3.029,0,0,1,1778.708-361.423Z" transform="translate(0 0)" fill="#7b7b7b"/>
    <path id="Path_256" data-name="Path 256" d="M1846.714-294.947a6.84,6.84,0,0,1,6.821,6.9,6.826,6.826,0,0,1-7.021,6.808,6.859,6.859,0,0,1-6.683-7.094A6.875,6.875,0,0,1,1846.714-294.947Z" transform="translate(-64.402 -64.319)" fill="#7b7b7b"/>
    <path id="Path_257" data-name="Path 257" d="M1971.9-198.35c.241.112.495-.116.6.193.064.184.124.37.205.615.058-.163.1-.267.132-.374.138-.432.137-.432.66-.369-.106.3-.188.6-.319.881-.156.334.051.584.152.945.172-.494.321-.919.468-1.346.188-.546.187-.546.8-.49-.1.262-.2.516-.3.769-.206.523-.421,1.042-.618,1.569a.286.286,0,0,1-.327.2c-.154,0-.271-.015-.331-.191-.085-.25-.2-.491-.32-.8-.129.317-.218.583-.348.828a.382.382,0,0,1-.29.14c-.1,0-.268-.052-.3-.126-.323-.772-.625-1.554-.932-2.334-.006-.015.005-.037.009-.055s.015-.013.022-.013c.559-.06.559-.06.74.464l.459,1.338c.158-.335.31-.6.147-.946C1972.1-197.711,1972.025-198,1971.9-198.35Z" transform="translate(-187.898 -155.37)" fill="#fff"/>
    <path id="Path_258" data-name="Path 258" d="M1882.243-197.814a.536.536,0,0,1,.665.24c.275.387.586.748.94,1.193v-1.442h.588v2.5a.526.526,0,0,1-.656-.206,8.467,8.467,0,0,0-.958-1.1v1.322h-.579Z" transform="translate(-104.384 -155.843)" fill="#fff"/>
    <path id="Path_259" data-name="Path 259" d="M1935.342-197.131v.475h-1.119v.5h.953v.472h-.954v.529h1.158v.52h-1.759v-2.494Z" transform="translate(-152.812 -156.519)" fill="#fff"/>
  </g>
</svg>
