<svg xmlns="http://www.w3.org/2000/svg" width="16.686" height="25.831" viewBox="0 0 16.686 25.831">
  <g id="Group_2148" data-name="Group 2148" transform="translate(-1708.181 -270.052)">
    <path id="Path_6734" data-name="Path 6734" d="M1716.584,485.273q3.509,0,7.018,0c.827,0,1.261.468,1.27,1.362s-.439,1.392-1.244,1.392q-7.1,0-14.2,0c-.806,0-1.256-.511-1.244-1.393s.444-1.36,1.271-1.361Q1713.022,485.272,1716.584,485.273Z" transform="translate(-0.006 -192.146)" fill="#0c5eed"/>
    <path id="Path_6735" data-name="Path 6735" d="M1716.521,270.052q3.561,0,7.122,0c.786,0,1.215.473,1.224,1.339.009.886-.431,1.374-1.243,1.374h-14.244c-.766,0-1.2-.5-1.2-1.366s.438-1.347,1.217-1.347Q1712.959,270.05,1716.521,270.052Z" fill="#0c5eed"/>
    <path id="Path_6736" data-name="Path 6736" d="M1740.726,409.873a4.846,4.846,0,0,0,1.691,2.928c.892.822,1.761,1.673,2.59,2.558a4.325,4.325,0,0,1,1.093,2.152h-10.862a3.71,3.71,0,0,1,.32-.889,21.829,21.829,0,0,1,1.6-2.121c.569-.638,1.23-1.193,1.861-1.774A4.829,4.829,0,0,0,1740.726,409.873Z" transform="translate(-24.156 -124.83)" fill="#a5d000"/>
    <path id="Path_6737" data-name="Path 6737" d="M1720.726,318.865h-1.144a6.456,6.456,0,0,1,1.987-6.1c.97-.907,1.819-1.944,2.732-2.913a.8.8,0,0,0-.025-1.255c-.79-.825-1.513-1.727-2.374-2.47a6.554,6.554,0,0,1-2.4-5.937c.026-.261,0-.527,0-.82h1.249c0,.734,0,1.459,0,2.183a4.156,4.156,0,0,0,1.385,3.024q1.567,1.576,3.073,3.212a1.818,1.818,0,0,1,.49,2.148,5.078,5.078,0,0,1-.806,1.12c-1.047,1.158-2.115,2.3-3.181,3.437a4.076,4.076,0,0,0-.99,2.915C1720.723,317.878,1720.726,318.341,1720.726,318.865Z" transform="translate(-10.072 -26.179)" fill="#0c5eed"/>
    <path id="Path_6738" data-name="Path 6738" d="M1799.2,318.941h-1.268c0-.718,0-1.408,0-2.1a3.411,3.411,0,0,0-.981-2.311c-.912-1-1.877-1.955-2.757-2.982a9.3,9.3,0,0,1-1.24-1.883,1.35,1.35,0,0,1,.293-1.446c.38-.472.767-.941,1.182-1.381.735-.779,1.49-1.539,2.244-2.3a3.875,3.875,0,0,0,1.267-2.8c0-.749,0-1.5,0-2.286h1.206c.223,2.357.068,4.56-1.883,6.279a36.266,36.266,0,0,0-2.676,2.773c-.655.715-.665.864-.028,1.581q1.38,1.554,2.838,3.038a5.743,5.743,0,0,1,1.807,4.627C1799.176,318.129,1799.2,318.5,1799.2,318.941Z" transform="translate(-75.586 -26.254)" fill="#0c5eed"/>
    <path id="Path_6739" data-name="Path 6739" d="M1748.585,335.783c-.021-.043-.06-.086-.06-.129a4.626,4.626,0,0,0-1.605-3.368c-.984-1-1.89-2.073-2.8-3.187a8.364,8.364,0,0,0,8.982.053c-.491.568-.975,1.143-1.475,1.7-.606.679-1.2,1.367-1.846,2.011a3.7,3.7,0,0,0-1.052,2.445c-.012.157-.034.313-.052.47Z" transform="translate(-32.089 -52.717)" fill="#a5d000"/>
  </g>
</svg>
