<svg xmlns="http://www.w3.org/2000/svg" width="18.728" height="18.728" viewBox="0 0 18.728 18.728">
  <g id="Group_3705" data-name="Group 3705" transform="translate(-35.569 -307.69)">
    <path id="Icon_awesome-history" data-name="Icon awesome-history" d="M19.291,9.909A9.364,9.364,0,0,1,4.05,17.217a.906.906,0,0,1-.069-1.344l.425-.425a.908.908,0,0,1,1.2-.075A6.948,6.948,0,1,0,5.166,4.864L7.083,6.781a.6.6,0,0,1-.427,1.031H1.167a.6.6,0,0,1-.6-.6V1.719a.6.6,0,0,1,1.031-.427L3.458,3.156A9.364,9.364,0,0,1,19.291,9.909ZM12.46,12.884l.371-.477a.906.906,0,0,0-.159-1.272l-1.537-1.2V6a.906.906,0,0,0-.906-.906h-.6A.906.906,0,0,0,8.718,6v5.122l2.47,1.921a.906.906,0,0,0,1.272-.159Z" transform="translate(35.006 307.128)" fill="#0c5eed"/>
    <path id="Icon_awesome-history-2" data-name="Icon awesome-history" d="M12.46,12.884l.371-.477a.906.906,0,0,0-.159-1.272l-1.537-1.2V6a.906.906,0,0,0-.906-.906h-.6A.906.906,0,0,0,8.718,6v5.122l2.47,1.921a.906.906,0,0,0,1.272-.159Z" transform="translate(35.006 307.128)" fill="#f7941d"/>
  </g>
</svg>
