<svg xmlns="http://www.w3.org/2000/svg" width="23.963" height="21.36" viewBox="0 0 23.963 21.36">
  <g id="Group_3714" data-name="Group 3714" transform="translate(-370.635 -439)">
    <path id="Path_7970" data-name="Path 7970" d="M568.713,546.272a8.579,8.579,0,0,1-1.63-5.014c.005-.1.008-.2.008-.309a5.837,5.837,0,0,0-4.234-5.6,1.647,1.647,0,1,0-3.2,0,5.837,5.837,0,0,0-4.234,5.6c0,.1,0,.208.008.308a8.583,8.583,0,0,1-1.63,5.014,2.1,2.1,0,0,0,1,3.945h3.5a2.974,2.974,0,0,0,5.913,0h3.5a2.1,2.1,0,0,0,1-3.945Zm-8.462-11.319a1.006,1.006,0,1,1,1.981.25,5.838,5.838,0,0,0-.969-.082h-.012a5.838,5.838,0,0,0-.969.082A1.009,1.009,0,0,1,560.251,534.953Zm1.006,17.276a2.336,2.336,0,0,1-2.311-2.013h4.621A2.336,2.336,0,0,1,561.258,552.23Zm7.484-3.081a1.45,1.45,0,0,1-1.032.427h-12.9a1.459,1.459,0,0,1-.751-2.711H558.6a.32.32,0,0,0,0-.641h-3.981a9.535,9.535,0,0,0,1.455-4.973c0-.006,0-.012,0-.018-.005-.092-.008-.188-.008-.284a5.193,5.193,0,0,1,5.187-5.187h.012a5.193,5.193,0,0,1,5.187,5.187c0,.1,0,.192-.008.284,0,.008,0,.016,0,.023a9.524,9.524,0,0,0,1.455,4.967h-7.624a.32.32,0,0,0,0,.641h8.186a1.46,1.46,0,0,1,.282,2.284Z" transform="translate(-178.605 -92.511)" fill="#0c5eed"/>
    <path id="Path_7971" data-name="Path 7971" d="M1333.861,531.947a.32.32,0,0,0,0,.453,6.026,6.026,0,0,1,1.895,4.282,5.611,5.611,0,0,1-.626,2.568.32.32,0,1,0,.571.291,6.246,6.246,0,0,0,.7-2.859,6.661,6.661,0,0,0-2.086-4.739A.32.32,0,0,0,1333.861,531.947Z" transform="translate(-944.799 -91.084)" fill="#f7941d"/>
    <path id="Path_7972" data-name="Path 7972" d="M1417.385,439.073a.32.32,0,1,0-.406.5,8.361,8.361,0,0,1,3.287,6.477,7.708,7.708,0,0,1-1.052,3.875.32.32,0,1,0,.556.319,8.341,8.341,0,0,0,1.137-4.194A8.989,8.989,0,0,0,1417.385,439.073Z" transform="translate(-1026.31 -0.001)" fill="#f7941d"/>
    <path id="Path_7973" data-name="Path 7973" d="M528.991,539.716a.32.32,0,0,0,.285-.466,5.613,5.613,0,0,1-.625-2.568,6.026,6.026,0,0,1,1.895-4.282.32.32,0,0,0-.449-.457,6.661,6.661,0,0,0-2.086,4.739,6.249,6.249,0,0,0,.7,2.859A.32.32,0,0,0,528.991,539.716Z" transform="translate(-154.379 -91.083)" fill="#f7941d"/>
    <path id="Path_7974" data-name="Path 7974" d="M371.276,446.046a8.361,8.361,0,0,1,3.287-6.477.32.32,0,0,0-.406-.5,8.99,8.99,0,0,0-3.522,6.973,8.342,8.342,0,0,0,1.137,4.194.32.32,0,0,0,.556-.319A7.709,7.709,0,0,1,371.276,446.046Z" fill="#f7941d"/>
  </g>
</svg>
