<svg xmlns="http://www.w3.org/2000/svg" width="19.703" height="19.564" viewBox="0 0 19.703 19.564">
  <g id="Group_3728" data-name="Group 3728" transform="translate(-291.297 -505.487)">
    <g id="Group_3714" data-name="Group 3714" transform="translate(-82.804 64.691)">
      <path id="Path_7970" data-name="Path 7970" d="M568.713,546.272a8.579,8.579,0,0,1-1.63-5.014c.005-.1.008-.2.008-.309a5.837,5.837,0,0,0-4.234-5.6,1.647,1.647,0,1,0-3.2,0,5.837,5.837,0,0,0-4.234,5.6c0,.1,0,.208.008.308a8.583,8.583,0,0,1-1.63,5.014,2.1,2.1,0,0,0,1,3.945h3.5a2.974,2.974,0,0,0,5.913,0h3.5a2.1,2.1,0,0,0,1-3.945Zm-8.462-11.319a1.006,1.006,0,1,1,1.981.25,5.838,5.838,0,0,0-.969-.082h-.012a5.838,5.838,0,0,0-.969.082A1.009,1.009,0,0,1,560.251,534.953Zm1.006,17.276a2.336,2.336,0,0,1-2.311-2.013h4.621A2.336,2.336,0,0,1,561.258,552.23Zm7.484-3.081a1.45,1.45,0,0,1-1.032.427h-12.9a1.459,1.459,0,0,1-.751-2.711H558.6a.32.32,0,0,0,0-.641h-3.981a9.535,9.535,0,0,0,1.455-4.973c0-.006,0-.012,0-.018-.005-.092-.008-.188-.008-.284a5.193,5.193,0,0,1,5.187-5.187h.012a5.193,5.193,0,0,1,5.187,5.187c0,.1,0,.192-.008.284,0,.008,0,.016,0,.023a9.524,9.524,0,0,0,1.455,4.967h-7.624a.32.32,0,0,0,0,.641h8.186a1.46,1.46,0,0,1,.282,2.284Z" transform="translate(-178.605 -92.511)" fill="#0c5eed"/>
    </g>
    <circle id="Ellipse_148" data-name="Ellipse 148" cx="5.5" cy="5.5" r="5.5" transform="translate(300 506)" fill="#2e9017"/>
    <path id="Icon_feather-check" data-name="Icon feather-check" d="M12.608,9,8.065,13.543,6,11.478" transform="translate(296.196 500.229)" fill="none" stroke="#fff" stroke-linecap="round" stroke-linejoin="round" stroke-width="1"/>
  </g>
</svg>
