<svg xmlns="http://www.w3.org/2000/svg" xmlns:xlink="http://www.w3.org/1999/xlink" width="159.248" height="25.771" viewBox="0 0 159.248 25.771">
  <defs>
    <clipPath id="clip-path">
      <rect id="Rectangle_299" data-name="Rectangle 299" width="159.248" height="25.771" fill="none"/>
    </clipPath>
  </defs>
  <g id="Group_3774" data-name="Group 3774" transform="translate(20876.625 9198.773)">
    <g id="Group_3680" data-name="Group 3680" transform="translate(-20876.625 -9198.773)">
      <g id="Group_2170" data-name="Group 2170" transform="translate(0 0)" clip-path="url(#clip-path)">
        <path id="Path_6781" data-name="Path 6781" d="M36.249,16.892l-4.1-8.307-.874-1.771L29.6,3.43a6.152,6.152,0,0,0-10.964-.141c.01-.047-.01,0-.1.187A6.152,6.152,0,0,0,7.558,3.393L5.829,6.75l-.9,1.756L.682,16.74a6.157,6.157,0,0,0,10.946,5.638l4.242-8.235.9-1.756L18.5,9.032c.023-.044.044-.091.066-.136l1.663,3.37.875,1.771,4.1,8.307c.045.09.091.177.139.264.016.029.032.057.049.086.033.057.066.115.1.17l.062.1c.032.05.065.1.1.149.022.033.046.066.069.1s.068.093.1.139.049.064.074.1.072.089.108.132l.077.091c.039.044.079.088.119.131l.075.081c.047.049.1.1.145.144l.057.057q.1.1.206.186c.026.023.054.045.081.068.045.037.09.075.136.112l.1.077.124.092.111.077.12.08.118.074.118.071c.041.025.083.049.125.072l.116.063.132.069.11.053c.048.022.1.045.143.066l.048.02q.182.079.368.145l.078.029c.056.019.112.037.168.054l.094.029.169.047.1.025.173.04.092.019c.06.012.12.024.18.034l.084.013c.064.01.127.02.191.028l.062.007a6.169,6.169,0,0,0,.97.036h.036c.071,0,.143-.009.215-.015l.062,0c.068-.006.137-.014.206-.023l.069-.008c.068-.01.136-.02.205-.032l.065-.012c.07-.013.14-.027.21-.042l.018,0,.072-.017c.058-.014.116-.028.174-.043l.025-.006h0a6.152,6.152,0,0,0,3.9-8.662M15.662,8.576l-1.318,2.559h0l-5.1,9.909a3.5,3.5,0,0,1-4.7,1.53,3.426,3.426,0,0,1-1.425-4.582L7.355,9.757h0L9.95,4.725a3.48,3.48,0,0,1,4.4-1.667,3.393,3.393,0,0,1,1.611,1.4V4.454l.926,1.616a.329.329,0,0,1,0,.326Zm18.484,11.17a3.274,3.274,0,0,1-.029.329,3.435,3.435,0,0,1-.8,1.779q-.108.126-.23.243a3.409,3.409,0,0,1-5.412-.968L26.079,17.9l-.014,0v0l.01-.01-2.5-5.066h0L21.029,7.666a3.356,3.356,0,0,1-.138-.318c-.016-.034-.031-.069-.047-.1,0-.009-.005-.019-.008-.028l-.009,0-.6-1.171a.329.329,0,0,1,0-.309A10.286,10.286,0,0,1,21.357,4.09a3.4,3.4,0,0,1,.952-.86,2.432,2.432,0,0,1,.259-.143A3.426,3.426,0,0,1,27.151,4.64l1.671,3.385h0L33.8,18.1h0a3.4,3.4,0,0,1,.351,1.644" transform="translate(0 0)" fill="#f7941d"/>
      </g>
    </g>
    <g id="Group_3773" data-name="Group 3773">
      <path id="Path_7988" data-name="Path 7988" d="M114.569,25.734H118V18.051a8.282,8.282,0,0,0-14.737-5.191l-.126.156-.125-.156a8.282,8.282,0,0,0-14.738,5.191v7.683H91.7V18.051a4.855,4.855,0,0,1,9.71,0v7.683h3.445V18.051a4.855,4.855,0,0,1,9.709,0Z" transform="translate(-20920.936 -9203.676)" fill="#0c5eed"/>
      <path id="Path_7989" data-name="Path 7989" d="M261.417,25.645V17.9a4.855,4.855,0,1,0-9.709,0,4.3,4.3,0,0,0,4.3,4.3H259.1v3.43H256a7.736,7.736,0,0,1-7.727-7.727,8.281,8.281,0,0,1,12.889-6.884l.251.168V9.589h3.43V25.645Z" transform="translate(-21001.252 -9203.587)" fill="#0c5eed"/>
      <path id="Path_7990" data-name="Path 7990" d="M193.385,25.81V18.951a8.1,8.1,0,0,1,.863-3.639,9.125,9.125,0,0,1,2.287-2.89,10.949,10.949,0,0,1,6.013-2.5V13.38c-3.33.487-5.732,2.811-5.732,5.571V25.81Z" transform="translate(-20973.697 -9203.753)" fill="#0c5eed"/>
      <path id="Path_7991" data-name="Path 7991" d="M166.975,25.647V17.9a4.855,4.855,0,0,0-9.71,0,4.3,4.3,0,0,0,4.3,4.3h3.093v3.43h-3.093a7.735,7.735,0,0,1-7.726-7.727,8.281,8.281,0,0,1,12.889-6.884l.251.168V9.594l3.43.05v16Z" transform="translate(-20953.844 -9203.59)" fill="#0c5eed"/>
      <path id="Path_7992" data-name="Path 7992" d="M299.621,25.645V17.9a4.855,4.855,0,0,0-9.71,0,4.3,4.3,0,0,0,4.3,4.3H297.3v3.43h-3.093a7.735,7.735,0,0,1-7.726-7.727,8.282,8.282,0,0,1,12.89-6.884l.251.168V9.589h3.43V25.645Z" transform="translate(-21020.428 -9203.587)" fill="#0c5eed"/>
      <path id="Path_7993" data-name="Path 7993" d="M228.945,21.5l-3.807-8.157-3.374,3.566V21.44h-3.43V1.331h3.445l-.014,4.05v6.536L227.929,5.4h4.722l-4.979,5.262L232.73,21.5Z" transform="translate(-20986.221 -9199.441)" fill="#0c5eed"/>
    </g>
  </g>
</svg>
