<svg xmlns="http://www.w3.org/2000/svg" width="38.567" height="20.561" viewBox="0 0 38.567 20.561">
  <g id="Group_2349" data-name="Group 2349" transform="translate(-10.072 -10)">
    <g id="Group_2348" data-name="Group 2348" transform="translate(10.072 10)">
      <g id="Group_2137" data-name="Group 2137" transform="translate(0 2)">
        <path id="Path_6740" data-name="Path 6740" d="M1548.533,239.679c0-.679-.015-1.288.005-1.9.015-.446-.138-.648-.613-.647q-9.269.013-18.538,0c-.462,0-.633.172-.629.631q.032,4.124.034,8.249c0,1.78-.02,3.561-.027,5.341,0,.614.063.677.67.677,3.141,0,6.281,0,9.422.007a.675.675,0,0,0,.649-.346,2.816,2.816,0,0,1,4.721-.023.718.718,0,0,0,.694.37c1-.021,2-.019,3,0,.432.007.618-.152.612-.594-.014-1.169,0-2.339,0-3.595h-.549q-2.488,0-4.976,0c-.6,0-.909-.258-.885-.714.024-.439.408-.66.957-.659,1.181,0,2.362-.049,3.543-.058.488,0,.977.074,1.465.068,1.281-.014,2.561-.075,3.842-.076,1.321,0,2.641.05,3.962.076a2.289,2.289,0,0,0,.406-.012.635.635,0,0,0,.611-.684.61.61,0,0,0-.637-.657c-1.235,0-2.471.055-3.707.054-2.061,0-4.122-.037-6.183-.053-.933-.007-1.866,0-2.8,0-.589,0-1.179.005-1.766-.033a.606.606,0,0,1-.574-.664.642.642,0,0,1,.582-.665,1.662,1.662,0,0,1,.254-.01c2.07-.017,4.14-.047,6.21-.048,1.948,0,3.9.031,5.844.046a2.131,2.131,0,0,0,.506-.025.625.625,0,0,0,.532-.7.6.6,0,0,0-.565-.612,4.114,4.114,0,0,0-.559-.021h-12.732a3.352,3.352,0,0,1-.609-.028.623.623,0,0,1-.556-.68.641.641,0,0,1,.586-.66,2.682,2.682,0,0,1,.457-.01h11.357a3.9,3.9,0,0,0,.458-.005.628.628,0,0,0,.632-.71.6.6,0,0,0-.657-.624c-1.256-.007-2.512,0-3.769,0Z" transform="translate(-1518.344 -237.136)" fill="#0c5eed"/>
        <path id="Path_6741" data-name="Path 6741" d="M1815.518,286.164c0,.713.013,1.426,0,2.138-.01.427.14.625.591.608.61-.023,1.223.013,1.832-.018a.7.7,0,0,0,.469-.266,2.844,2.844,0,0,1,4.852.007c.358.53.866.241,1.293.237.389,0,.316-.415.316-.691q.006-4.624,0-9.248c0-.657-.078-.733-.728-.734-1.1,0-2.206.014-3.309-.009a.931.931,0,0,0-.789.348c-1.45,1.662-2.911,3.315-4.352,4.983a.941.941,0,0,0-.166.556C1815.507,284.772,1815.518,285.468,1815.518,286.164Zm8.1-2.276h-6.641c1.3-1.481,2.52-2.881,3.749-4.277a.477.477,0,0,1,.282-.18c.856-.014,1.713-.008,2.61-.008Z" transform="translate(-1815.513 -274.007)" fill="#0c5eed"/>
        <path id="Path_6742" data-name="Path 6742" d="M1833.586,376.348a2.439,2.439,0,1,0-2.442-2.419A2.45,2.45,0,0,0,1833.586,376.348Zm-.793-2.458a.789.789,0,1,1,.751.812A.829.829,0,0,1,1832.793,373.89Z" transform="translate(-1828.259 -357.787)" fill="#0c5eed"/>
        <path id="Path_6743" data-name="Path 6743" d="M1652.426,373.917a2.407,2.407,0,0,0,2.416,2.429,2.439,2.439,0,1,0-2.416-2.429Zm2.405.783a.794.794,0,0,1-.758-.79.783.783,0,0,1,.819-.775.768.768,0,0,1,.728.809A.791.791,0,0,1,1654.831,374.7Z" transform="translate(-1631.319 -357.786)" fill="#0c5eed"/>
        <path id="Path_6744" data-name="Path 6744" d="M1715.492,391.782v.949h10.163v-.949Z" transform="translate(-1706.109 -376.03)" fill="#0c5eed"/>
      </g>
      <rect id="Rectangle_374" data-name="Rectangle 374" width="10" height="7" transform="translate(18.639 4)" fill="#0c5eed"/>
      <g id="Group_2236" data-name="Group 2236" transform="translate(11.764)">
        <path id="Icon_awesome-check-circle" data-name="Icon awesome-check-circle" d="M15.438,8A7.438,7.438,0,1,1,8,.563,7.437,7.437,0,0,1,15.438,8Zm-8.3,3.938L12.658,6.42a.48.48,0,0,0,0-.679l-.679-.679a.48.48,0,0,0-.679,0l-4.5,4.5-2.1-2.1a.48.48,0,0,0-.679,0l-.679.679a.48.48,0,0,0,0,.679l3.119,3.119a.48.48,0,0,0,.679,0Z" transform="translate(-0.563 -0.563)" fill="#2fc4a7"/>
      </g>
      <circle id="Ellipse_1" data-name="Ellipse 1" cx="6" cy="6" r="6" transform="translate(12.928 2)" fill="#2fc4a7"/>
    </g>
    <path id="Path_6745" data-name="Path 6745" d="M228.356,221.257v-1.181a.263.263,0,0,0-.42-.21l-2.1,1.575a.263.263,0,0,0,0,.421l2.1,1.575a.263.263,0,0,0,.42-.21v-1.181a4.068,4.068,0,1,1-4.068,4.068v-.262a.394.394,0,1,0-.787,0v.262a4.856,4.856,0,1,0,4.856-4.856Z" transform="translate(-196.391 245.855) rotate(-90)" fill="#fff" stroke="#fff" stroke-width="0.5"/>
  </g>
</svg>
