<svg xmlns="http://www.w3.org/2000/svg" width="26.5" height="20.611" viewBox="0 0 26.5 20.611">
  <path id="Icon_awesome-address-card" data-name="Icon awesome-address-card" d="M24.292,2.25H2.208A2.209,2.209,0,0,0,0,4.458V20.653a2.209,2.209,0,0,0,2.208,2.208H24.292A2.209,2.209,0,0,0,26.5,20.653V4.458A2.209,2.209,0,0,0,24.292,2.25ZM8.1,6.667A2.944,2.944,0,1,1,5.153,9.611,2.947,2.947,0,0,1,8.1,6.667ZM13.25,17.561a.965.965,0,0,1-1.031.883H3.975a.965.965,0,0,1-1.031-.883v-.883a2.9,2.9,0,0,1,3.092-2.65h.23a4.739,4.739,0,0,0,3.662,0h.23a2.9,2.9,0,0,1,3.092,2.65Zm10.306-2.429a.369.369,0,0,1-.368.368H16.563a.369.369,0,0,1-.368-.368V14.4a.369.369,0,0,1,.368-.368h6.625a.369.369,0,0,1,.368.368Zm0-2.944a.369.369,0,0,1-.368.368H16.563a.369.369,0,0,1-.368-.368v-.736a.369.369,0,0,1,.368-.368h6.625a.369.369,0,0,1,.368.368Zm0-2.944a.369.369,0,0,1-.368.368H16.563a.369.369,0,0,1-.368-.368V8.507a.369.369,0,0,1,.368-.368h6.625a.369.369,0,0,1,.368.368Z" transform="translate(0 -2.25)" fill="#0c5eed"/>
</svg>
