<svg xmlns="http://www.w3.org/2000/svg" width="25.845" height="20.676" viewBox="0 0 25.845 20.676">
  <g id="Group_3715" data-name="Group 3715" transform="translate(-28.199 -701.065)">
    <g id="Group_3703" data-name="Group 3703" transform="translate(0 -1.435)">
      <path id="Icon_awesome-shipping-fast" data-name="Icon awesome-shipping-fast" d="M25.2,14.215h-.646V9.849a1.938,1.938,0,0,0-.569-1.369L19.949,4.446a1.938,1.938,0,0,0-1.369-.569H16.8V1.938A1.939,1.939,0,0,0,14.861,0H4.523A1.939,1.939,0,0,0,2.584,1.938V3.877H.323A.324.324,0,0,0,0,4.2v.646a.324.324,0,0,0,.323.323H11.307a.324.324,0,0,1,.323.323v.646a.324.324,0,0,1-.323.323H1.615a.324.324,0,0,0-.323.323V7.43a.324.324,0,0,0,.323.323h8.4a.324.324,0,0,1,.323.323v.646a.324.324,0,0,1-.323.323H.323A.324.324,0,0,0,0,9.369v.646a.324.324,0,0,0,.323.323h8.4a.324.324,0,0,1,.323.323v.646a.324.324,0,0,1-.323.323H2.584V16.8a3.877,3.877,0,0,0,7.753,0h5.169a3.877,3.877,0,0,0,7.753,0H25.2a.648.648,0,0,0,.646-.646V14.861A.648.648,0,0,0,25.2,14.215ZM6.461,18.737A1.938,1.938,0,1,1,8.4,16.8,1.939,1.939,0,0,1,6.461,18.737Zm12.922,0A1.938,1.938,0,1,1,21.322,16.8,1.939,1.939,0,0,1,19.384,18.737Zm3.231-8.4H16.8V5.815H18.58l4.034,4.034Z" transform="translate(28.199 702.5)" fill="#0c5eed"/>
      <circle id="Ellipse_146" data-name="Ellipse 146" cx="1.075" cy="1.075" r="1.075" transform="translate(46.253 718.619)" fill="#f7941d"/>
      <circle id="Ellipse_147" data-name="Ellipse 147" cx="1.075" cy="1.075" r="1.075" transform="translate(33.358 718.619)" fill="#f7941d"/>
    </g>
  </g>
</svg>
