<svg xmlns="http://www.w3.org/2000/svg" width="30.601" height="24.481" viewBox="0 0 30.601 24.481">
  <path id="Icon_awesome-shipping-fast" data-name="Icon awesome-shipping-fast" d="M29.836,16.831h-.765V11.662a2.3,2.3,0,0,0-.674-1.621L23.62,5.264A2.3,2.3,0,0,0,22,4.59H19.891V2.3A2.3,2.3,0,0,0,17.6,0H5.355a2.3,2.3,0,0,0-2.3,2.3v2.3H.383A.384.384,0,0,0,0,4.973v.765a.384.384,0,0,0,.383.383H13.388a.384.384,0,0,1,.383.383v.765a.384.384,0,0,1-.383.383H1.913a.384.384,0,0,0-.383.383V8.8a.384.384,0,0,0,.383.383h9.945a.384.384,0,0,1,.383.383v.765a.384.384,0,0,1-.383.383H.383A.384.384,0,0,0,0,11.093v.765a.384.384,0,0,0,.383.383h9.945a.384.384,0,0,1,.383.383v.765a.384.384,0,0,1-.383.383H3.06v6.12a4.59,4.59,0,0,0,9.18,0h6.12a4.59,4.59,0,0,0,9.18,0h2.3a.767.767,0,0,0,.765-.765V17.6A.767.767,0,0,0,29.836,16.831ZM7.65,22.186a2.3,2.3,0,1,1,2.3-2.3A2.3,2.3,0,0,1,7.65,22.186Zm15.3,0a2.3,2.3,0,1,1,2.3-2.3A2.3,2.3,0,0,1,22.951,22.186Zm3.825-9.945H19.891V6.885H22l4.777,4.777Z"/>
</svg>
