<svg xmlns="http://www.w3.org/2000/svg" width="28.278" height="24.396" viewBox="0 0 28.278 24.396">
  <path id="Icon_metro-shopping-basket" data-name="Icon metro-shopping-basket" d="M24.692,14.139l-5.63-8.426a1.25,1.25,0,0,0-1.067-.546,1.266,1.266,0,0,0-1.067.546L11.3,14.139H5.141a1.289,1.289,0,0,0-1.285,1.285,1.509,1.509,0,0,0,.045.347L7.159,27.687A2.577,2.577,0,0,0,9.64,29.563H26.35a2.562,2.562,0,0,0,2.474-1.883l3.258-11.915a1.146,1.146,0,0,0,.051-.341,1.289,1.289,0,0,0-1.285-1.285H24.692Zm-10.553,0,3.856-5.656,3.856,5.656H14.139Zm3.856,10.283a2.571,2.571,0,1,1,2.571-2.571A2.57,2.57,0,0,1,17.995,24.422Z" transform="translate(-3.856 -5.167)" fill="#9b9b9b"/>
</svg>
