<svg xmlns="http://www.w3.org/2000/svg" width="27.064" height="25.925" viewBox="0 0 27.064 25.925">
  <g id="Icon_feather-shopping-cart" data-name="Icon feather-shopping-cart" transform="translate(1 1)">
    <path id="Path_31" data-name="Path 31" d="M14.279,31.139A1.139,1.139,0,1,1,13.139,30,1.139,1.139,0,0,1,14.279,31.139Z" transform="translate(-4.025 -8.354)" fill="none" stroke="#fff" stroke-linecap="round" stroke-linejoin="round" stroke-width="2"/>
    <path id="Path_32" data-name="Path 32" d="M30.779,31.139A1.139,1.139,0,1,1,29.639,30,1.139,1.139,0,0,1,30.779,31.139Z" transform="translate(-7.993 -8.354)" fill="none" stroke="#fff" stroke-linecap="round" stroke-linejoin="round" stroke-width="2"/>
    <path id="Path_33" data-name="Path 33" d="M1.5,1.5H6.057L9.11,16.755a2.279,2.279,0,0,0,2.279,1.834H22.463a2.279,2.279,0,0,0,2.279-1.834L26.564,7.2H7.2" transform="translate(-1.5 -1.5)" fill="none" stroke="#fff" stroke-linecap="round" stroke-linejoin="round" stroke-width="2"/>
  </g>
</svg>
