<svg xmlns="http://www.w3.org/2000/svg" width="21.072" height="21.077" viewBox="0 0 21.072 21.077">
  <g id="Group_441" data-name="Group 441" transform="translate(-370.866 -196.809)">
    <path id="Path_243" data-name="Path 243" d="M375.374,205.841c-.752,0-1.5,0-2.257,0a2.24,2.24,0,0,1-2.242-2.242q-.007-2.269,0-4.539a2.241,2.241,0,0,1,2.236-2.247q2.281-.007,4.561,0a2.237,2.237,0,0,1,2.228,2.23q.008,2.281,0,4.562a2.236,2.236,0,0,1-2.246,2.235C376.894,205.844,376.134,205.841,375.374,205.841Zm3.025-4.515c0-.721,0-1.442,0-2.164a.772.772,0,0,0-.848-.845q-2.163,0-4.326,0a.764.764,0,0,0-.844.845q0,2.152,0,4.3a.778.778,0,0,0,.869.872q2.14,0,4.279,0a.778.778,0,0,0,.87-.871Q378.4,202.4,378.4,201.326Z" transform="translate(-0.005 0)" fill="#7b7b7b"/>
    <path id="Path_244" data-name="Path 244" d="M631.424,205.847c-.752,0-1.5,0-2.257,0a2.241,2.241,0,0,1-2.238-2.245q-.006-2.269,0-4.539a2.241,2.241,0,0,1,2.239-2.244q2.269-.007,4.538,0a2.237,2.237,0,0,1,2.25,2.256q.006,2.257,0,4.515a2.242,2.242,0,0,1-2.251,2.257C632.945,205.85,632.185,205.847,631.424,205.847Zm3.029-4.508c0-.721,0-1.442,0-2.163a.778.778,0,0,0-.842-.854q-2.175,0-4.349,0a.766.766,0,0,0-.829.839q0,2.175,0,4.35a.776.776,0,0,0,.841.831q2.163,0,4.326,0a.775.775,0,0,0,.854-.864C634.454,202.766,634.453,202.052,634.453,201.339Z" transform="translate(-244.02 -0.006)" fill="#7b7b7b"/>
    <path id="Path_245" data-name="Path 245" d="M379.9,457.453c0,.753,0,1.505,0,2.258a2.242,2.242,0,0,1-2.244,2.239q-2.269.007-4.538,0a2.239,2.239,0,0,1-2.244-2.238q-.007-2.281,0-4.562a2.24,2.24,0,0,1,2.232-2.227q2.28-.008,4.561,0a2.238,2.238,0,0,1,2.232,2.226C379.9,455.916,379.9,456.685,379.9,457.453Zm-1.5.007q0-1.082,0-2.163a.787.787,0,0,0-.872-.871q-2.139,0-4.279,0a.776.776,0,0,0-.87.87q0,2.14,0,4.28a.786.786,0,0,0,.872.872q2.139,0,4.279,0a.778.778,0,0,0,.87-.871Q378.4,458.518,378.393,457.459Z" transform="translate(0 -244.067)" fill="#7b7b7b"/>
    <path id="Path_246" data-name="Path 246" d="M626.948,457.426c0-.753,0-1.505,0-2.258a2.237,2.237,0,0,1,2.241-2.241q2.269-.007,4.538,0a2.237,2.237,0,0,1,2.248,2.258q.005,2.258,0,4.515a2.24,2.24,0,0,1-2.253,2.254q-2.257.006-4.514,0a2.241,2.241,0,0,1-2.259-2.272C626.946,458.931,626.948,458.178,626.948,457.426Zm1.5-.008q0,1.082,0,2.164a.78.78,0,0,0,.872.869q2.139,0,4.279,0a.772.772,0,0,0,.868-.87q0-2.14,0-4.28a.78.78,0,0,0-.871-.87h-4.279a.776.776,0,0,0-.869.871Q628.45,456.359,628.451,457.418Z" transform="translate(-244.04 -244.073)" fill="#7b7b7b"/>
  </g>
</svg>
