<svg xmlns="http://www.w3.org/2000/svg" width="36" height="31.5" viewBox="0 0 36 31.5">
  <path id="Icon_awesome-sms" data-name="Icon awesome-sms" d="M18,2.25C8.058,2.25,0,8.8,0,16.875a12.981,12.981,0,0,0,4.008,9.19A17.888,17.888,0,0,1,.155,32.8a.559.559,0,0,0-.105.612.551.551,0,0,0,.513.338,16.08,16.08,0,0,0,9.886-3.614A21.444,21.444,0,0,0,18,31.5c9.942,0,18-6.546,18-14.625S27.942,2.25,18,2.25ZM9.014,21.375H8.156a.564.564,0,0,1-.562-.562V19.688a.564.564,0,0,1,.563-.562h.865c.422,0,.731-.246.731-.464a.372.372,0,0,0-.148-.267l-1.54-1.322A2.6,2.6,0,0,1,7.13,15.1a2.859,2.859,0,0,1,2.981-2.714h.858a.564.564,0,0,1,.563.563V14.07a.564.564,0,0,1-.562.563H10.1c-.422,0-.731.246-.731.464a.372.372,0,0,0,.148.267l1.54,1.322A2.6,2.6,0,0,1,12,18.661,2.854,2.854,0,0,1,9.014,21.375ZM22.5,20.813a.564.564,0,0,1-.562.563H20.813a.564.564,0,0,1-.562-.562v-4.8l-1.744,3.923a.562.562,0,0,1-1.005,0L15.75,16.017v4.8a.564.564,0,0,1-.562.563H14.063a.564.564,0,0,1-.562-.562V13.5a1.128,1.128,0,0,1,1.125-1.125H15.75a1.12,1.12,0,0,1,1.005.619L18,15.483l1.245-2.489a1.128,1.128,0,0,1,1.005-.619h1.125A1.128,1.128,0,0,1,22.5,13.5Zm3.4.563h-.865a.564.564,0,0,1-.562-.562V19.688a.564.564,0,0,1,.563-.562H25.9c.422,0,.731-.246.731-.464a.372.372,0,0,0-.148-.267l-1.54-1.322A2.6,2.6,0,0,1,24,15.1a2.859,2.859,0,0,1,2.981-2.714h.858a.564.564,0,0,1,.563.563V14.07a.564.564,0,0,1-.562.563h-.865c-.422,0-.731.246-.731.464a.372.372,0,0,0,.148.267l1.54,1.322a2.6,2.6,0,0,1,.935,1.976A2.848,2.848,0,0,1,25.9,21.375Z" transform="translate(0 -2.25)" fill="#fff"/>
</svg>
