<svg xmlns="http://www.w3.org/2000/svg" width="19" height="19" viewBox="0 0 19 19">
  <path id="Icon_awesome-fingerprint" data-name="Icon awesome-fingerprint" d="M9.5,9.128a.891.891,0,0,0-.891.891,27.136,27.136,0,0,1-1.028,7.851A.891.891,0,1,0,9.3,18.35,28.722,28.722,0,0,0,10.4,10.018a.89.89,0,0,0-.89-.891ZM9.473,6.095A3.712,3.712,0,0,0,5.645,9.846a24.347,24.347,0,0,1-.5,5.29.891.891,0,0,0,1.744.361,26.127,26.127,0,0,0,.533-5.679A1.934,1.934,0,0,1,9.447,7.876a2.148,2.148,0,0,1,2.138,2.058,29.835,29.835,0,0,1-.394,5.327.89.89,0,1,0,1.757.29,31.655,31.655,0,0,0,.418-5.645A3.943,3.943,0,0,0,9.473,6.095ZM5.365,5.361a.891.891,0,0,0-1.253.129A6.436,6.436,0,0,0,2.674,9.646,21.551,21.551,0,0,1,2.336,13.8a.891.891,0,0,0,1.753.317,23.341,23.341,0,0,0,.366-4.5,4.586,4.586,0,0,1,1.039-3,.891.891,0,0,0-.13-1.253ZM9.428,3.047a6.633,6.633,0,0,0-1.7.184.891.891,0,0,0,.41,1.734A5.326,5.326,0,0,1,9.4,4.829a5.2,5.2,0,0,1,5.154,4.994,32.7,32.7,0,0,1-.207,4.217.891.891,0,0,0,1.77.2A34.477,34.477,0,0,0,16.336,9.8,6.989,6.989,0,0,0,9.428,3.047Zm9.354,4.507a.891.891,0,1,0-1.739.384,9.254,9.254,0,0,1,.174,2.286.89.89,0,0,0,.883.9h.007A.891.891,0,0,0,19,10.239a11.028,11.028,0,0,0-.216-2.685ZM17.293,4.188A9.872,9.872,0,0,0,9.382,0,9.3,9.3,0,0,0,2.615,2.707,8.85,8.85,0,0,0,.006,9.153l0,.8a.89.89,0,0,0,.864.916H.892A.891.891,0,0,0,1.781,10l.006-.877A7.08,7.08,0,0,1,3.876,3.967a7.521,7.521,0,0,1,5.48-2.184,8.085,8.085,0,0,1,6.48,3.429.89.89,0,1,0,1.457-1.023Z" transform="translate(-0.001)"/>
</svg>
