<svg xmlns="http://www.w3.org/2000/svg" width="32.779" height="26.633" viewBox="0 0 32.779 26.633">
  <path id="Path_6754" data-name="Path 6754" d="M32.779,67.153a14.011,14.011,0,0,1-3.872,1.061A6.682,6.682,0,0,0,31.863,64.5,13.429,13.429,0,0,1,27.6,66.127a6.72,6.72,0,0,0-11.624,4.6,6.92,6.92,0,0,0,.156,1.532A19.021,19.021,0,0,1,2.282,65.225a6.722,6.722,0,0,0,2.065,8.981,6.636,6.636,0,0,1-3.036-.828v.074a6.751,6.751,0,0,0,5.384,6.6,6.707,6.707,0,0,1-1.762.221,5.942,5.942,0,0,1-1.272-.115A6.784,6.784,0,0,0,9.94,84.843a13.5,13.5,0,0,1-8.332,2.866A12.586,12.586,0,0,1,0,87.617a18.919,18.919,0,0,0,10.309,3.016c12.366,0,19.127-10.243,19.127-19.122,0-.3-.01-.584-.025-.869A13.406,13.406,0,0,0,32.779,67.153Z" transform="translate(0 -64)" fill="#fff"/>
</svg>
