<svg xmlns="http://www.w3.org/2000/svg" xmlns:xlink="http://www.w3.org/1999/xlink" width="13.855" height="13.855" viewBox="0 0 13.855 13.855">
  <defs>
    <clipPath id="clip-path">
      <path id="Path_6808" data-name="Path 6808" d="M8.852,1.611H11.24a1.055,1.055,0,0,1,.77.226,1.079,1.079,0,0,1,.241.815c-.024.747-.013,3.033,0,6.2v2.53a.776.776,0,0,1-.816.844c-2.986.029-6,.029-8.985,0a1.04,1.04,0,0,1-.562-.2.535.535,0,0,1-.114-.1.846.846,0,0,1-.142-.493c-.029-2.986-.029-6,0-8.985a1.04,1.04,0,0,1,.2-.562.866.866,0,0,1,.787-.281h.1c.341.009.937.012,1.742.012,1.108,0,2.612-.006,4.4-.012M2.418,0A2.494,2.494,0,0,0,1.157.369,2.109,2.109,0,0,0,.572.84a2.192,2.192,0,0,0-.438.819A2.563,2.563,0,0,0,0,2.427V7.746q0,1.85,0,3.7c0,.05,0,.1.007.147a2.416,2.416,0,0,0,2.438,2.27H8.964l0,0h2.5a2.417,2.417,0,0,0,2.393-2.444V4.9l0,0q0-1.194,0-2.388A2.773,2.773,0,0,0,13.02.577,2.422,2.422,0,0,0,11.466.033l-.239,0,.008-.024H6.115Q4.265,0,2.418,0Z" transform="translate(0 -0.005)" fill="#7b7b7b"/>
    </clipPath>
  </defs>
  <g id="Group_2218" data-name="Group 2218" transform="translate(0 -0.005)">
    <g id="Group_2211" data-name="Group 2211" transform="translate(0 0.005)" clip-path="url(#clip-path)">
      <rect id="Rectangle_333" data-name="Rectangle 333" width="13.855" height="13.855" transform="translate(0 0)" fill="#7b7b7b"/>
    </g>
  </g>
</svg>
