<svg xmlns="http://www.w3.org/2000/svg" xmlns:xlink="http://www.w3.org/1999/xlink" width="304.708" height="139.13" viewBox="0 0 304.708 139.13">
  <defs>
    <clipPath id="clip-path">
      <rect id="Rectangle_98" data-name="Rectangle 98" width="304.708" height="139.13" fill="none"/>
    </clipPath>
  </defs>
  <g id="Group_11" data-name="Group 11" transform="translate(0 -0.01)">
    <g id="Group_10" data-name="Group 10" transform="translate(0 0.01)" clip-path="url(#clip-path)">
      <path id="Path_23" data-name="Path 23" d="M69.5,286.516h9.072v-20.3A21.887,21.887,0,0,0,39.62,252.488l-.331.417-.331-.417A21.892,21.892,0,0,0,0,266.2v20.3H9.072V266.2a12.83,12.83,0,0,1,25.659,0v20.3h9.1V266.2a12.835,12.835,0,0,1,25.67,0Z" transform="translate(0 -147.386)" fill="#fff"/>
      <path id="Path_24" data-name="Path 24" d="M565.621,286.16V265.677a12.83,12.83,0,0,0-25.659,0,11.38,11.38,0,0,0,11.357,11.357h8.176v9.072h-8.176A20.439,20.439,0,0,1,530.9,265.688a21.887,21.887,0,0,1,34.07-18.2l.662.448v-4.216h9.062V286.16Z" transform="translate(-320.268 -147.031)" fill="#fff"/>
      <path id="Path_25" data-name="Path 25" d="M348.741,286.826V268.692a21.36,21.36,0,0,1,2.284-9.617,24.021,24.021,0,0,1,6.041-7.632,28.939,28.939,0,0,1,15.893-6.617v9.147c-8.805,1.281-15.156,7.429-15.156,14.719v18.124h-9.062Z" transform="translate(-210.38 -147.697)" fill="#fff"/>
      <path id="Path_26" data-name="Path 26" d="M252.257,286.193V265.71a12.83,12.83,0,1,0-25.659,0,11.379,11.379,0,0,0,11.356,11.357h8.176v9.072h-8.176a20.439,20.439,0,0,1-20.418-20.418,21.887,21.887,0,0,1,34.07-18.2l.662.448v-4.195l9.072.128v42.3Z" transform="translate(-131.23 -147.063)" fill="#fff"/>
      <path id="Path_27" data-name="Path 27" d="M692.386,286.16V265.677a12.83,12.83,0,0,0-25.659,0,11.379,11.379,0,0,0,11.356,11.357h8.176v9.072h-8.176a20.442,20.442,0,0,1-20.419-20.429,21.888,21.888,0,0,1,34.07-18.2l.662.448v-4.205h9.062V286.16Z" transform="translate(-396.74 -147.031)" fill="#fff"/>
      <path id="Path_28" data-name="Path 28" d="M459.554,269.623l-10.065-21.561-8.923,9.425v11.976h-9.073V216.308h9.1l-.043,10.706v17.28l16.3-17.227h12.478l-13.16,13.908,13.374,28.637h-9.99Z" transform="translate(-260.301 -130.493)" fill="#fff"/>
      <path id="Path_29" data-name="Path 29" d="M356.95,44.652,346.106,22.7,343.8,18.021l-4.419-8.944A16.258,16.258,0,0,0,310.4,8.7c.032-.128-.032-.011-.256.491a16.264,16.264,0,0,0-29.032-.213l-4.569,8.87-2.39,4.643L262.938,44.257a16.269,16.269,0,1,0,28.925,14.9l11.218-21.763,2.391-4.643,4.569-8.87c.064-.117.117-.246.171-.363l4.4,8.912,2.316,4.675,10.833,21.956c.117.235.246.469.363.694l.128.224c.085.15.171.3.267.448.053.086.106.171.16.256.085.128.171.267.256.395.064.086.117.171.182.256.085.128.182.245.267.363l.192.256.288.352c.064.075.139.16.2.235.107.117.2.235.309.342a1.948,1.948,0,0,0,.2.213l.384.384a1.963,1.963,0,0,0,.15.149c.181.171.363.331.544.491l.213.181c.117.1.235.2.363.3.086.064.182.139.267.2.107.086.213.16.331.246s.192.139.288.2.213.139.32.213.2.128.309.192.213.129.31.192.213.128.331.192.2.107.309.16.235.128.352.182c.1.042.192.1.288.139.128.064.246.117.373.181l.129.053c.32.139.64.267.971.384.064.021.139.053.2.075.15.053.3.1.448.138l.246.075.448.128.256.064c.15.042.309.075.459.107l.246.053c.16.032.32.064.48.086l.224.032c.171.021.331.053.5.075.053.011.107.011.16.021a17.13,17.13,0,0,0,2.562.1h.1c.192-.011.374-.022.566-.043.054,0,.106-.011.16-.011l.544-.064.181-.022c.182-.021.363-.053.544-.085l.171-.032c.181-.032.373-.075.555-.107l.043-.011c.064-.011.128-.032.192-.043.149-.032.31-.075.459-.117l.065-.01a16.268,16.268,0,0,0,11.41-19.97,16.983,16.983,0,0,0-1.11-2.925M302.536,22.675l-3.479,6.767L285.565,55.635a9.234,9.234,0,0,1-12.424,4.034,9.05,9.05,0,0,1-3.768-12.1L280.592,25.8l6.852-13.3A9.2,9.2,0,0,1,299.078,8.1a8.967,8.967,0,0,1,4.259,3.714v-.021l2.444,4.269a.889.889,0,0,1,0,.865ZM351.389,52.2a7.934,7.934,0,0,1-.075.865A9.117,9.117,0,0,1,349.2,57.77a8.679,8.679,0,0,1-.609.641,9.01,9.01,0,0,1-14.3-2.562l-4.216-8.539h-.042l.021-.032-6.607-13.385-6.724-13.63a8.32,8.32,0,0,1-.363-.843c-.042-.086-.085-.182-.128-.278-.011-.021-.011-.053-.021-.075l-.021.011-1.59-3.1a.894.894,0,0,1,.011-.822,26.46,26.46,0,0,1,2.989-4.355A9.113,9.113,0,0,1,320.1,8.533a6.073,6.073,0,0,1,.684-.374A9.064,9.064,0,0,1,332.9,12.269l4.419,8.944,13.15,26.641a8.986,8.986,0,0,1,.918,4.344" transform="translate(-157.526 -0.004)" fill="#f58020"/>
    </g>
  </g>
</svg>
