<svg xmlns="http://www.w3.org/2000/svg" width="24.533" height="21.551" viewBox="0 0 24.533 21.551">
  <g id="Group_2187" data-name="Group 2187" transform="translate(6422.067 -192.331)">
    <path id="Icon_feather-heart" data-name="Icon feather-heart" d="M18.421,5.842a4.589,4.589,0,0,0-6.492,0l-.885.885-.885-.885a4.591,4.591,0,1,0-6.492,6.492l.885.885,6.492,6.492,6.492-6.492.885-.885a4.589,4.589,0,0,0,0-6.492Z" transform="translate(-6420.845 191.003)" fill="#0c5eed"/>
    <path id="Icon_feather-heart-2" data-name="Icon feather-heart" d="M23.857,6.3a6.139,6.139,0,0,0-8.684,0L13.989,7.48,12.806,6.3a6.141,6.141,0,1,0-8.684,8.684L5.3,16.164l8.684,8.684,8.684-8.684,1.183-1.183a6.139,6.139,0,0,0,0-8.684Z" transform="translate(-6423.791 188.434)" fill="none" stroke="#000" stroke-linecap="round" stroke-linejoin="round" stroke-width="1.2"/>
  </g>
</svg>
