<svg xmlns="http://www.w3.org/2000/svg" width="21.094" height="18.654" viewBox="0 0 21.094 18.654">
  <g id="Group_3704" data-name="Group 3704" transform="translate(-31 -270.5)">
    <path id="Icon_feather-heart" data-name="Icon feather-heart" d="M19.945,5.97a5.024,5.024,0,0,0-7.107,0l-.968.968L10.9,5.97a5.025,5.025,0,1,0-7.107,7.107l.968.968,7.107,7.107,7.107-7.107.968-.968a5.024,5.024,0,0,0,0-7.107Z" transform="translate(29.677 267.003)" fill="none" stroke="#0c5eed" stroke-linecap="round" stroke-linejoin="round" stroke-width="2"/>
    <path id="Icon_feather-heart-2" data-name="Icon feather-heart" d="M10.618,5.19a2.365,2.365,0,0,0-3.345,0l-.456.456L6.361,5.19A2.365,2.365,0,0,0,3.016,8.536l.456.456,3.345,3.345,3.345-3.345.456-.456a2.365,2.365,0,0,0,0-3.345Z" transform="translate(34.73 271.41)" fill="#f7941d"/>
  </g>
</svg>
